<?xml version="1.0" encoding="UTF-8" standalone="no"?>
<svg
   xmlns:dc="http://purl.org/dc/elements/1.1/"
   xmlns:cc="http://creativecommons.org/ns#"
   xmlns:rdf="http://www.w3.org/1999/02/22-rdf-syntax-ns#"
   xmlns:svg="http://www.w3.org/2000/svg"
   xmlns="http://www.w3.org/2000/svg"
   xmlns:sodipodi="http://sodipodi.sourceforge.net/DTD/sodipodi-0.dtd"
   xmlns:inkscape="http://www.inkscape.org/namespaces/inkscape"
   width="793.70081"
   height="1122.5197"
   id="svg2"
   version="1.1"
   inkscape:version="0.92.2 5c3e80d, 2017-08-06"
   sodipodi:docname="LUHC-01_Side_Solid.svg">
  <metadata
     id="metadata1104">
    <rdf:RDF>
      <cc:Work
         rdf:about="">
        <dc:format>image/svg+xml</dc:format>
        <dc:type
           rdf:resource="http://purl.org/dc/dcmitype/StillImage" />
        <dc:title />
      </cc:Work>
    </rdf:RDF>
  </metadata>
  <sodipodi:namedview
     pagecolor="#ffffff"
     bordercolor="#666666"
     borderopacity="1"
     objecttolerance="10"
     gridtolerance="10"
     guidetolerance="10"
     inkscape:pageopacity="0"
     inkscape:pageshadow="2"
     inkscape:window-width="1600"
     inkscape:window-height="849"
     id="namedview1102"
     showgrid="false"
     inkscape:zoom="0.22425739"
     inkscape:cx="372.04724"
     inkscape:cy="704.54756"
     inkscape:window-x="0"
     inkscape:window-y="0"
     inkscape:window-maximized="1"
     inkscape:current-layer="g20" />
  <desc
     id="desc4">G:\GPIO_CASE_VER1.1\hacker case mini filled side.dxf - scale = 1.000000, origin = (0.000000, 0.000000), auto = False</desc>
  <defs
     id="defs6">
    <marker
       refY="0"
       refX="0"
       style="overflow:visible"
       id="DistanceX"
       orient="auto">
      <path
         style="stroke:#000000;stroke-width:0.53333336"
         d="M 3.2,-3.2 -3.2,3.2 M 0,-5.3333333 V 5.3333333"
         id="path9"
         inkscape:connector-curvature="0" />
    </marker>
    <pattern
       height="8"
       width="8"
       patternUnits="userSpaceOnUse"
       y="0"
       x="0"
       id="Hatch">
      <path
         linecap="square"
         stroke="#000000"
         stroke-width="0.25"
         d="M8 4 l-4,4"
         id="path12" />
      <path
         linecap="square"
         stroke="#000000"
         stroke-width="0.25"
         d="M6 2 l-4,4"
         id="path14" />
      <path
         linecap="square"
         stroke="#000000"
         stroke-width="0.25"
         d="M4 0 l-4,4"
         id="path16" />
    </pattern>
    <symbol
       id="*MODEL_SPACE" />
    <symbol
       id="*PAPER_SPACE" />
  </defs>
  <g
     inkscape:label="0"
     inkscape:groupmode="layer"
     id="g20">
    <path
       id="path1100"
       style="fill:none;stroke:#000000;stroke-width:1.06666672"
       d="m 353.2074,328.49107 -7e-4,0.0786 m 0.011,-0.26735 -0.011,0.18876 m 0.027,-0.37685 -0.018,0.18809 m 0.046,-0.37505 -0.028,0.18696 m 0.064,-0.3723 -0.036,0.18534 m 0.083,-0.36861 -0.046,0.18327 m 0.1014,-0.36402 -0.055,0.18075 m 0.1191,-0.35853 -0.064,0.17778 m 0.137,-0.35213 -0.072,0.17435 m 0.1543,-0.34483 -0.081,0.17048 m 0.1713,-0.33669 -0.09,0.16621 m 0.188,-0.32772 -0.098,0.16151 m 0.2041,-0.3179 -0.1056,0.15639 m 0.2198,-0.3073 -0.1138,0.15091 m 0.2349,-0.29594 -0.1211,0.14503 m 0.2493,-0.28383 -0.1282,0.1388 m 0.2632,-0.27102 -0.135,0.13222 m 0.2764,-0.25752 -0.1414,0.1253 m 0.2889,-0.24338 -0.1475,0.11808 m 0.3008,-0.22864 -0.1533,0.11056 m 0.3118,-0.21332 -0.1585,0.10272 m 0.322,-0.19747 -0.1635,0.0947 m 0.3316,-0.18112 -0.1681,0.0864 m 0.3403,-0.16432 -0.1722,0.0779 m 0.348,-0.14712 -0.1758,0.0692 m 0.3549,-0.12955 -0.1791,0.0604 m 0.361,-0.11163 -0.1819,0.0513 m 0.366,-0.0934 -0.1841,0.0421 m 0.3702,-0.0751 -0.1861,0.0329 m 0.3735,-0.0564 -0.1874,0.0236 m 0.3759,-0.0378 -0.1885,0.0142 m 0.3774,-0.0189 -0.1889,0.004 m 128.6928,-0.004 H 356.9887 m 128.5825,8.2e-4 -0.079,-8.2e-4 m 0.2674,0.01 -0.1888,-0.009 m 0.3768,0.0267 -0.188,-0.018 m 0.375,0.0455 -0.187,-0.0274 m 0.3723,0.0642 -0.1853,-0.0368 m 0.3687,0.0828 -0.1834,-0.046 m 0.3641,0.10102 -0.1807,-0.055 m 0.3585,0.11912 -0.1778,-0.064 m 0.3521,0.13691 -0.1743,-0.0729 m 0.3448,0.15433 -0.1705,-0.0815 m 0.3367,0.17136 -0.1662,-0.0899 m 0.3277,0.18797 -0.1615,-0.0981 m 0.3179,0.20413 -0.1564,-0.10603 m 0.3073,0.21976 -0.1509,-0.11372 m 0.2959,0.23484 -0.145,-0.12112 m 0.2838,0.24934 -0.1388,-0.12822 m 0.271,0.26321 -0.1322,-0.13499 m 0.2575,0.27643 -0.1253,-0.14144 m 0.2434,0.28896 -0.1181,-0.14752 m 0.2286,0.30076 -0.1105,-0.15324 m 0.2134,0.31181 -0.1024,-0.15857 m 0.1975,0.32208 -0.095,-0.16351 m 0.1811,0.33154 -0.086,-0.16803 m 0.1643,0.34018 -0.078,-0.17215 m 0.1471,0.34798 -0.069,-0.17583 m 0.1296,0.35489 -0.061,-0.17906 m 0.1117,0.36091 -0.051,-0.18185 m 0.094,0.36605 -0.042,-0.1842 m 0.075,0.37026 -0.033,-0.18606 m 0.056,0.37355 -0.023,-0.18749 m 0.037,0.37592 -0.014,-0.18843 m 0.019,0.37733 v -0.1889 m 0,11.52748 v -11.33858 m -7e-4,11.41717 7e-4,-0.0786 m -0.011,0.26734 0.011,-0.18875 m -0.027,0.37685 0.018,-0.1881 m -0.046,0.37506 0.028,-0.18696 m -0.064,0.3723 0.036,-0.18534 m -0.083,0.36861 0.046,-0.18327 m -0.1013,0.36402 0.055,-0.18075 m -0.1191,0.35853 0.064,-0.17778 m -0.137,0.35213 0.073,-0.17435 m -0.1544,0.34483 0.081,-0.17048 m -0.1713,0.33669 0.09,-0.16621 m -0.188,0.32772 0.098,-0.16151 m -0.2042,0.3179 0.1056,-0.15639 m -0.2197,0.3073 0.1137,-0.15091 m -0.2349,0.29594 0.1212,-0.14503 m -0.2494,0.28383 0.1282,-0.1388 m -0.2632,0.27102 0.135,-0.13222 m -0.2764,0.25752 0.1414,-0.1253 m -0.2889,0.24338 0.1475,-0.11808 m -0.3008,0.22864 0.1533,-0.11056 m -0.3118,0.21332 0.1585,-0.10272 m -0.322,0.19747 0.1635,-0.0947 m -0.3316,0.18112 0.1681,-0.0864 m -0.3402,0.16432 0.1721,-0.0779 m -0.348,0.14713 0.1759,-0.0692 m -0.355,0.12955 0.1791,-0.0604 m -0.3608,0.11163 0.1817,-0.0513 m -0.3659,0.0934 0.1842,-0.0421 m -0.3704,0.0751 0.1862,-0.0329 m -0.3736,0.0564 0.1874,-0.0236 m -0.3759,0.0378 0.1885,-0.0142 m -0.3774,0.0189 0.1889,-0.004 m -7.7479,0.004 h 7.559 m -7.559,37.79528 v -37.79528 m 7.559,37.79528 h -7.559 m 7.6376,8.1e-4 -0.079,-8.1e-4 m 0.2674,0.01 -0.1888,-0.009 m 0.3769,0.0268 -0.1881,-0.0181 m 0.3751,0.0456 -0.187,-0.0274 m 0.3722,0.0642 -0.1852,-0.0368 m 0.3686,0.0828 -0.1834,-0.046 m 0.3641,0.10101 -0.1807,-0.055 m 0.3585,0.11914 -0.1778,-0.064 m 0.3521,0.13689 -0.1743,-0.0729 m 0.3449,0.15433 -0.1706,-0.0815 m 0.3367,0.17137 -0.1661,-0.0899 m 0.3276,0.18798 -0.1615,-0.0981 m 0.3179,0.20412 -0.1564,-0.10603 m 0.3073,0.21975 -0.1509,-0.11372 m 0.2959,0.23484 -0.145,-0.12112 m 0.2839,0.24934 -0.1389,-0.12822 m 0.271,0.26321 -0.1321,-0.13499 m 0.2575,0.27642 -0.1254,-0.14143 m 0.2435,0.28896 -0.1181,-0.14753 m 0.2286,0.30077 -0.1105,-0.15324 m 0.2133,0.31181 -0.1024,-0.15857 m 0.1975,0.32207 -0.095,-0.1635 m 0.1811,0.33154 -0.086,-0.16804 m 0.1643,0.34019 -0.078,-0.17215 m 0.1471,0.34797 -0.069,-0.17582 m 0.1296,0.35489 -0.061,-0.17907 m 0.1117,0.36093 -0.051,-0.18186 m 0.094,0.36605 -0.042,-0.18419 m 0.075,0.37026 -0.033,-0.18607 m 0.057,0.37356 -0.024,-0.18749 m 0.037,0.37592 -0.014,-0.18843 m 0.019,0.37732 v -0.18889 m 0,11.52747 v -11.33858 m -8e-4,11.41718 8e-4,-0.0786 m -0.011,0.26735 0.011,-0.18876 m -0.027,0.37686 0.018,-0.1881 m -0.046,0.37504 0.028,-0.18694 m -0.064,0.3723 0.036,-0.18536 m -0.083,0.36863 0.046,-0.18327 m -0.1013,0.36402 0.055,-0.18075 m -0.1192,0.35852 0.064,-0.17777 m -0.1369,0.35211 0.072,-0.17434 m -0.1544,0.34484 0.081,-0.1705 m -0.1713,0.3367 0.09,-0.1662 m -0.1879,0.3277 0.098,-0.1615 m -0.2042,0.31791 0.1056,-0.15641 m -0.2197,0.30731 0.1137,-0.1509 m -0.2349,0.29593 0.1212,-0.14503 m -0.2494,0.28384 0.1282,-0.13881 m -0.2631,0.27102 0.1349,-0.13221 m -0.2764,0.25751 0.1415,-0.1253 m -0.289,0.24338 0.1475,-0.11808 m -0.3008,0.22864 0.1533,-0.11056 m -0.3118,0.21333 0.1585,-0.10272 m -0.322,0.19746 0.1635,-0.0947 m -0.3316,0.18112 0.1681,-0.0864 m -0.3402,0.16433 0.1721,-0.0779 m -0.3479,0.14712 0.1758,-0.0692 m -0.3549,0.12955 0.1791,-0.0604 m -0.3609,0.11165 0.1818,-0.0513 m -0.366,0.0934 0.1842,-0.0421 m -0.3703,0.0751 0.1861,-0.0329 m -0.3736,0.0564 0.1875,-0.0236 m -0.3759,0.0378 0.1884,-0.0142 m -0.3773,0.0189 0.1889,-0.004 m -7.748,0.004 h 7.5591 m -7.5591,37.79528 v -37.79528 m 7.5591,37.79528 h -7.5591 m 7.6377,8.1e-4 -0.079,-8.1e-4 m 0.2674,0.01 -0.1888,-0.009 m 0.3769,0.0268 -0.1881,-0.0181 m 0.3751,0.0455 -0.187,-0.0274 m 0.3723,0.0642 -0.1853,-0.0368 m 0.3686,0.0828 -0.1833,-0.046 m 0.364,0.10101 -0.1807,-0.055 m 0.3585,0.11912 -0.1778,-0.064 m 0.3521,0.1369 -0.1743,-0.0728 m 0.3449,0.15432 -0.1706,-0.0815 m 0.3368,0.17137 -0.1662,-0.0899 m 0.3277,0.18798 -0.1615,-0.098 m 0.3178,0.20412 -0.1563,-0.10603 m 0.3073,0.21977 -0.151,-0.11373 m 0.2959,0.23485 -0.1449,-0.12112 m 0.2838,0.24933 -0.1389,-0.12821 m 0.2711,0.26321 -0.1322,-0.135 m 0.2575,0.27643 -0.1253,-0.14143 m 0.2434,0.28895 -0.1181,-0.14752 m 0.2286,0.30076 -0.1105,-0.15324 m 0.2133,0.31181 -0.1024,-0.15857 m 0.1976,0.32208 -0.095,-0.16351 m 0.1812,0.33154 -0.086,-0.16803 m 0.1642,0.34019 -0.078,-0.17216 m 0.147,0.34798 -0.069,-0.17582 m 0.1296,0.35488 -0.061,-0.17906 m 0.1117,0.36091 -0.051,-0.18185 m 0.094,0.36606 -0.042,-0.18421 m 0.075,0.37028 -0.033,-0.18607 m 0.057,0.37354 -0.024,-0.18747 m 0.037,0.3759 -0.014,-0.18843 m 0.019,0.37733 v -0.1889 m 0,11.52748 v -11.33858 m -8e-4,11.41718 8e-4,-0.0786 m -0.011,0.26736 0.011,-0.18876 m -0.027,0.37684 0.018,-0.18808 m -0.046,0.37504 0.028,-0.18696 m -0.064,0.3723 0.036,-0.18534 m -0.083,0.36863 0.046,-0.18329 m -0.1014,0.36403 0.055,-0.18074 m -0.1192,0.35851 0.064,-0.17777 m -0.1369,0.35212 0.072,-0.17435 m -0.1543,0.34483 0.081,-0.17048 m -0.1713,0.33669 0.09,-0.16621 m -0.1879,0.32772 0.098,-0.16151 m -0.2041,0.31791 0.1056,-0.1564 m -0.2198,0.3073 0.1137,-0.1509 m -0.2348,0.29594 0.1211,-0.14504 m -0.2494,0.28383 0.1283,-0.13879 m -0.2632,0.27101 0.1349,-0.13222 m -0.2763,0.25752 0.1414,-0.1253 m -0.289,0.24338 0.1476,-0.11808 m -0.3008,0.22864 0.1532,-0.11056 m -0.3117,0.21332 0.1585,-0.10272 m -0.3221,0.19747 0.1636,-0.0947 m -0.3317,0.18112 0.1681,-0.0864 m -0.3401,0.16433 0.172,-0.078 m -0.3479,0.14712 0.1759,-0.0692 m -0.355,0.12953 0.1791,-0.0604 m -0.3609,0.11165 0.1818,-0.0513 m -0.366,0.0934 0.1842,-0.0421 m -0.3703,0.0751 0.1861,-0.0328 m -0.3735,0.0564 0.1874,-0.0236 m -0.3759,0.0378 0.1885,-0.0142 m -0.3774,0.0189 0.1889,-0.004 m -7.748,0.004 h 7.5591 m -7.5591,37.79527 v -37.79527 m 7.5591,37.79527 h -7.5591 m 7.6377,8.2e-4 -0.079,-8.2e-4 m 0.2674,0.01 -0.1888,-0.009 m 0.3768,0.0267 -0.188,-0.018 m 0.375,0.0455 -0.187,-0.0274 m 0.3723,0.0642 -0.1853,-0.0368 m 0.3687,0.0828 -0.1834,-0.046 m 0.3641,0.10102 -0.1807,-0.055 m 0.3585,0.11912 -0.1778,-0.064 m 0.3521,0.13691 -0.1743,-0.0729 m 0.3448,0.15432 -0.1705,-0.0815 m 0.3367,0.17136 -0.1662,-0.0899 m 0.3277,0.18798 -0.1615,-0.0981 m 0.3179,0.20413 -0.1564,-0.10603 m 0.3073,0.21976 -0.1509,-0.11372 m 0.2959,0.23484 -0.145,-0.12112 m 0.2838,0.24934 -0.1388,-0.12822 m 0.271,0.26321 -0.1322,-0.13499 m 0.2575,0.27643 -0.1253,-0.14144 m 0.2434,0.28896 -0.1181,-0.14752 m 0.2286,0.30076 -0.1105,-0.15324 m 0.2134,0.31181 -0.1024,-0.15857 m 0.1975,0.32208 -0.095,-0.16351 m 0.1811,0.33154 -0.086,-0.16803 m 0.1643,0.34018 -0.078,-0.17215 m 0.1471,0.34798 -0.069,-0.17583 m 0.1296,0.35489 -0.061,-0.17906 m 0.1117,0.36091 -0.051,-0.18185 m 0.094,0.36605 -0.042,-0.1842 m 0.075,0.37027 -0.033,-0.18607 m 0.056,0.37355 -0.023,-0.18748 m 0.037,0.37591 -0.014,-0.18843 m 0.019,0.37733 v -0.1889 m 0,11.52748 v -11.33858 m -7e-4,11.41717 7e-4,-0.0786 m -0.011,0.26735 0.011,-0.18876 m -0.027,0.37685 0.018,-0.18809 m -0.046,0.37505 0.028,-0.18696 m -0.064,0.3723 0.036,-0.18534 m -0.083,0.36862 0.046,-0.18328 m -0.1013,0.36402 0.055,-0.18074 m -0.1191,0.35852 0.064,-0.17778 m -0.137,0.35212 0.073,-0.17434 m -0.1544,0.34484 0.081,-0.1705 m -0.1713,0.3367 0.09,-0.1662 m -0.188,0.32771 0.098,-0.16151 m -0.2042,0.3179 0.1056,-0.15639 m -0.2197,0.30729 0.1137,-0.1509 m -0.2349,0.29594 0.1212,-0.14504 m -0.2494,0.28384 0.1282,-0.1388 m -0.2632,0.27102 0.135,-0.13222 m -0.2764,0.25752 0.1414,-0.1253 m -0.2889,0.24338 0.1475,-0.11808 m -0.3008,0.22864 0.1533,-0.11056 m -0.3118,0.21332 0.1585,-0.10272 m -0.322,0.19747 0.1635,-0.0947 m -0.3316,0.18112 0.1681,-0.0864 m -0.3402,0.16432 0.1721,-0.0779 m -0.348,0.14712 0.1759,-0.0692 m -0.355,0.12955 0.1791,-0.0604 m -0.3608,0.11164 0.1817,-0.0513 m -0.3659,0.0934 0.1842,-0.0421 m -0.3704,0.0751 0.1862,-0.0328 m -0.3736,0.0564 0.1874,-0.0236 m -0.3759,0.0378 0.1885,-0.0142 m -0.3774,0.0189 0.1889,-0.004 m -128.6928,0.004 h 128.5039 m -128.5825,-8.2e-4 0.079,8.2e-4 m -0.2674,-0.01 0.1888,0.009 m -0.3768,-0.0268 0.188,0.018 m -0.375,-0.0455 0.187,0.0274 m -0.3723,-0.0642 0.1853,0.0368 m -0.3685,-0.0828 0.1832,0.046 m -0.364,-0.10101 0.1808,0.055 m -0.3587,-0.11913 0.1779,0.0641 m -0.3521,-0.13691 0.1742,0.0729 m -0.3447,-0.15433 0.1705,0.0815 m -0.3368,-0.17136 0.1663,0.0899 m -0.3278,-0.18797 0.1615,0.0981 m -0.3179,-0.20413 0.1564,0.10603 m -0.3073,-0.21976 0.1509,0.11372 m -0.2959,-0.23484 0.145,0.12112 m -0.2838,-0.24934 0.1388,0.12822 m -0.271,-0.26321 0.1322,0.13499 m -0.2575,-0.27643 0.1253,0.14144 m -0.2434,-0.28896 0.1181,0.14752 m -0.2286,-0.30075 0.1105,0.15323 m -0.2133,-0.31181 0.1024,0.15858 m -0.1976,-0.32208 0.095,0.1635 m -0.1811,-0.33154 0.086,0.16804 m -0.1642,-0.34019 0.078,0.17215 m -0.1471,-0.34798 0.069,0.17583 m -0.1296,-0.35489 0.061,0.17906 m -0.1117,-0.36091 0.051,0.18185 m -0.094,-0.36604 0.043,0.18419 m -0.075,-0.37027 0.033,0.18608 m -0.056,-0.37356 0.023,0.18748 m -0.037,-0.37591 0.014,0.18843 m -0.019,-0.37732 v 0.18889 m 0,-11.52748 v 11.33859 m 7e-4,-11.41718 -7e-4,0.0786 m 0.011,-0.26735 -0.011,0.18875 m 0.027,-0.37685 -0.018,0.1881 m 0.046,-0.37505 -0.028,0.18695 m 0.064,-0.3723 -0.036,0.18535 m 0.083,-0.36862 -0.046,0.18327 m 0.1013,-0.36402 -0.055,0.18075 m 0.1191,-0.35853 -0.064,0.17778 m 0.137,-0.35213 -0.073,0.17435 m 0.1544,-0.34483 -0.081,0.17048 m 0.1713,-0.33669 -0.09,0.16621 m 0.188,-0.32772 -0.098,0.16151 m 0.2042,-0.3179 -0.1056,0.15639 m 0.2197,-0.3073 -0.1137,0.15091 m 0.2349,-0.29594 -0.1212,0.14503 m 0.2494,-0.28383 -0.1282,0.1388 m 0.2631,-0.27101 -0.1349,0.13221 m 0.2764,-0.25752 -0.1415,0.12531 m 0.289,-0.24339 -0.1475,0.11808 m 0.3008,-0.22864 -0.1533,0.11056 m 0.3118,-0.21332 -0.1585,0.10272 m 0.322,-0.19747 -0.1635,0.0947 m 0.3316,-0.18112 -0.1681,0.0864 m 0.3403,-0.16432 -0.1722,0.0779 m 0.348,-0.14713 -0.1758,0.0692 m 0.3549,-0.12955 -0.1791,0.0604 m 0.3609,-0.11163 -0.1818,0.0513 m 0.3659,-0.0934 -0.1841,0.0421 m 0.3703,-0.0751 -0.1862,0.0329 m 0.3736,-0.0564 -0.1874,0.0236 m 0.3759,-0.0378 -0.1885,0.0142 m 0.3774,-0.0189 -0.1889,0.004 m 7.7479,-0.004 h -7.559 m 7.559,-37.79527 v 37.79527 m -7.559,-37.79527 h 7.559 m -7.6377,-8.2e-4 0.079,8.2e-4 m -0.2674,-0.01 0.1888,0.009 m -0.3769,-0.0268 0.1881,0.018 m -0.3751,-0.0455 0.187,0.0274 m -0.3723,-0.0642 0.1853,0.0368 m -0.3685,-0.0828 0.1832,0.046 m -0.364,-0.10102 0.1808,0.055 m -0.3586,-0.11913 0.1778,0.0641 m -0.3521,-0.13689 0.1743,0.0729 m -0.3448,-0.15433 0.1705,0.0815 m -0.3368,-0.17137 0.1663,0.0899 m -0.3278,-0.18798 0.1615,0.0981 m -0.3178,-0.20412 0.1563,0.10603 m -0.3073,-0.21975 0.151,0.11372 m -0.2959,-0.23484 0.1449,0.12112 m -0.2838,-0.24934 0.1389,0.12822 m -0.2711,-0.26321 0.1322,0.13499 m -0.2575,-0.27642 0.1253,0.14143 m -0.2434,-0.28896 0.1181,0.14753 m -0.2286,-0.30077 0.1105,0.15324 m -0.2133,-0.31181 0.1024,0.15857 m -0.1976,-0.32207 0.095,0.1635 m -0.1811,-0.33154 0.086,0.16804 m -0.1643,-0.34019 0.078,0.17215 m -0.1471,-0.34797 0.069,0.17582 m -0.1296,-0.35489 0.061,0.17907 m -0.1117,-0.36093 0.051,0.18186 m -0.094,-0.36605 0.043,0.18419 m -0.075,-0.37026 0.033,0.18607 m -0.056,-0.37356 0.024,0.18749 m -0.037,-0.37592 0.014,0.18843 m -0.019,-0.37732 v 0.18889 m 0,-11.52747 V 453.295 m 7e-4,-11.41717 -7e-4,0.0786 m 0.011,-0.26735 -0.011,0.18876 m 0.027,-0.37686 -0.018,0.1881 m 0.046,-0.37504 -0.028,0.18694 m 0.064,-0.3723 -0.036,0.18536 m 0.083,-0.36863 -0.046,0.18327 m 0.1014,-0.36402 -0.055,0.18075 m 0.1191,-0.35852 -0.064,0.17777 m 0.137,-0.35211 -0.072,0.17434 m 0.1543,-0.34484 -0.081,0.1705 m 0.1713,-0.3367 -0.09,0.1662 m 0.188,-0.3277 -0.098,0.1615 m 0.2041,-0.31791 -0.1056,0.15641 m 0.2198,-0.30731 -0.1138,0.1509 m 0.2349,-0.29593 -0.1211,0.14503 m 0.2493,-0.28383 -0.1282,0.1388 m 0.2632,-0.27102 -0.135,0.13222 m 0.2764,-0.25752 -0.1414,0.1253 m 0.2889,-0.24338 -0.1475,0.11808 m 0.3008,-0.22864 -0.1533,0.11056 m 0.3118,-0.21333 -0.1585,0.10272 m 0.322,-0.19746 -0.1635,0.0947 m 0.3316,-0.18112 -0.1681,0.0864 m 0.3403,-0.16433 -0.1722,0.0779 m 0.348,-0.14712 -0.1758,0.0692 m 0.3549,-0.12955 -0.1791,0.0604 m 0.361,-0.11165 -0.1819,0.0513 m 0.366,-0.0934 -0.1841,0.0421 m 0.3702,-0.0751 -0.1861,0.0328 m 0.3735,-0.0564 -0.1874,0.0236 m 0.3759,-0.0378 -0.1885,0.0142 m 0.3774,-0.0189 -0.1889,0.004 m 7.7479,-0.004 h -7.559 m 7.559,-37.79528 v 37.79528 m -7.559,-37.79528 h 7.559 m -7.6376,-8.1e-4 0.079,8.1e-4 m -0.2674,-0.01 0.1888,0.009 m -0.3769,-0.0268 0.1881,0.018 m -0.375,-0.0455 0.1869,0.0274 m -0.3722,-0.0642 0.1853,0.0368 m -0.3686,-0.0828 0.1833,0.046 m -0.3641,-0.10102 0.1808,0.055 m -0.3586,-0.11912 0.1778,0.064 m -0.3521,-0.1369 0.1743,0.0729 m -0.3447,-0.15433 0.1704,0.0815 m -0.3367,-0.17137 0.1663,0.0899 m -0.3278,-0.18797 0.1615,0.0981 m -0.3179,-0.20412 0.1564,0.10603 m -0.3073,-0.21976 0.1509,0.11372 m -0.2959,-0.23485 0.145,0.12113 m -0.2839,-0.24934 0.1389,0.12821 m -0.271,-0.26321 0.1321,0.135 m -0.2575,-0.27643 0.1254,0.14143 m -0.2434,-0.28895 0.118,0.14752 m -0.2285,-0.30075 0.1105,0.15323 m -0.2134,-0.31181 0.1024,0.15858 m -0.1975,-0.32208 0.095,0.1635 m -0.1811,-0.33154 0.086,0.16804 m -0.1643,-0.3402 0.078,0.17216 m -0.1471,-0.34798 0.069,0.17582 m -0.1296,-0.35488 0.061,0.17906 m -0.1116,-0.36091 0.051,0.18185 m -0.094,-0.36606 0.043,0.18421 m -0.075,-0.37027 0.033,0.18606 m -0.057,-0.37354 0.024,0.18748 m -0.037,-0.37591 0.014,0.18843 m -0.019,-0.37732 v 0.18889 m 0,-11.52748 v 11.33859 m 8e-4,-11.41719 -8e-4,0.0786 m 0.011,-0.26736 -0.011,0.18876 m 0.027,-0.37684 -0.018,0.18808 m 0.046,-0.37504 -0.028,0.18696 m 0.064,-0.3723 -0.036,0.18534 m 0.083,-0.36862 -0.046,0.18328 m 0.1013,-0.36403 -0.055,0.18075 m 0.1192,-0.35852 -0.064,0.17777 m 0.1369,-0.35212 -0.072,0.17435 m 0.1543,-0.34483 -0.081,0.17048 m 0.1713,-0.33669 -0.09,0.16621 m 0.1879,-0.32772 -0.098,0.16151 m 0.2042,-0.31791 -0.1056,0.1564 m 0.2197,-0.3073 -0.1137,0.1509 m 0.2349,-0.29594 -0.1212,0.14504 m 0.2494,-0.28383 -0.1282,0.13879 m 0.2631,-0.27101 -0.1349,0.13222 m 0.2763,-0.25752 -0.1414,0.1253 m 0.289,-0.24338 -0.1476,0.11808 m 0.3008,-0.22864 -0.1532,0.11056 m 0.3118,-0.21332 -0.1586,0.10272 m 0.3221,-0.19747 -0.1635,0.0947 m 0.3316,-0.18112 -0.1681,0.0864 m 0.3402,-0.16433 -0.1721,0.0779 m 0.3479,-0.14712 -0.1758,0.0692 m 0.3549,-0.12954 -0.1791,0.0604 m 0.361,-0.11164 -0.1819,0.0513 m 0.366,-0.0934 -0.1841,0.0421 m 0.3702,-0.0751 -0.1861,0.0329 m 0.3735,-0.0564 -0.1874,0.0236 m 0.3759,-0.0378 -0.1885,0.0142 m 0.3774,-0.0189 -0.1889,0.004 m 7.748,-0.004 h -7.5591 m 7.5591,-37.79528 v 37.79528 m -7.5591,-37.79528 h 7.5591 m -7.6377,-8.2e-4 0.079,8.2e-4 m -0.2674,-0.01 0.1888,0.009 m -0.3768,-0.0268 0.188,0.018 m -0.375,-0.0455 0.187,0.0274 m -0.3723,-0.0642 0.1853,0.0368 m -0.3685,-0.0828 0.1832,0.046 m -0.364,-0.10101 0.1808,0.055 m -0.3587,-0.11912 0.1779,0.0641 m -0.3521,-0.1369 0.1742,0.0728 m -0.3447,-0.15433 0.1705,0.0815 m -0.3368,-0.17136 0.1663,0.0899 m -0.3278,-0.18798 0.1615,0.0981 m -0.3179,-0.20413 0.1564,0.10603 m -0.3073,-0.21975 0.1509,0.11371 m -0.2959,-0.23483 0.145,0.12112 m -0.2838,-0.24935 0.1388,0.12823 m -0.271,-0.26322 0.1322,0.13499 m -0.2575,-0.27643 0.1253,0.14144 m -0.2434,-0.28896 0.1181,0.14752 m -0.2286,-0.30075 0.1105,0.15323 m -0.2133,-0.3118 0.1024,0.15857 m -0.1976,-0.32208 0.095,0.16351 m -0.1811,-0.33154 0.086,0.16803 m -0.1642,-0.34018 0.078,0.17215 m -0.1471,-0.34798 0.069,0.17583 m -0.1296,-0.35489 0.061,0.17906 m -0.1117,-0.36092 0.051,0.18186 m -0.094,-0.36605 0.043,0.18419 m -0.075,-0.37026 0.033,0.18607 m -0.056,-0.37356 0.023,0.18749 m -0.037,-0.37592 0.014,0.18843 m -0.019,-0.37732 v 0.18889 m 0,-11.52747 v 11.33858"
       inkscape:connector-curvature="0" />
  </g>
</svg>
