<?xml version="1.0" encoding="UTF-8" standalone="no"?>
<svg
   xmlns:dc="http://purl.org/dc/elements/1.1/"
   xmlns:cc="http://creativecommons.org/ns#"
   xmlns:rdf="http://www.w3.org/1999/02/22-rdf-syntax-ns#"
   xmlns:svg="http://www.w3.org/2000/svg"
   xmlns="http://www.w3.org/2000/svg"
   xmlns:sodipodi="http://sodipodi.sourceforge.net/DTD/sodipodi-0.dtd"
   xmlns:inkscape="http://www.inkscape.org/namespaces/inkscape"
   width="600mm"
   height="400mm"
   id="svg2"
   version="1.1"
   inkscape:version="0.92.2 5c3e80d, 2017-08-06"
   sodipodi:docname="LUHC-01_Base.svg">
  <metadata
     id="metadata1984">
    <rdf:RDF>
      <cc:Work
         rdf:about="">
        <dc:format>image/svg+xml</dc:format>
        <dc:type
           rdf:resource="http://purl.org/dc/dcmitype/StillImage" />
        <dc:title />
      </cc:Work>
    </rdf:RDF>
  </metadata>
  <sodipodi:namedview
     pagecolor="#ffffff"
     bordercolor="#666666"
     borderopacity="1"
     objecttolerance="10"
     gridtolerance="10"
     guidetolerance="10"
     inkscape:pageopacity="0"
     inkscape:pageshadow="2"
     inkscape:window-width="1600"
     inkscape:window-height="849"
     id="namedview1982"
     showgrid="false"
     inkscape:document-units="mm"
     units="mm"
     inkscape:zoom="1.2061101"
     inkscape:cx="1316.4948"
     inkscape:cy="825.46897"
     inkscape:window-x="0"
     inkscape:window-y="0"
     inkscape:window-maximized="1"
     inkscape:current-layer="layer1"
     showguides="false" />
  <desc
     id="desc4">G:\GPIO_CASE_VER1.1\hacker case base.dxf - scale = 1.000000, origin = (0.000000, 0.000000), auto = False</desc>
  <defs
     id="defs6">
    <marker
       refY="0"
       refX="0"
       style="overflow:visible"
       id="DistanceX"
       orient="auto">
      <path
         style="stroke:#000000;stroke-width:0.53333336"
         d="M 3.2,-3.2 -3.2,3.2 M 0,-5.3333333 V 5.3333333"
         id="path9"
         inkscape:connector-curvature="0" />
    </marker>
    <pattern
       height="8"
       width="8"
       patternUnits="userSpaceOnUse"
       y="0"
       x="0"
       id="Hatch">
      <path
         linecap="square"
         stroke="#000000"
         stroke-width="0.25"
         d="M8 4 l-4,4"
         id="path12" />
      <path
         linecap="square"
         stroke="#000000"
         stroke-width="0.25"
         d="M6 2 l-4,4"
         id="path14" />
      <path
         linecap="square"
         stroke="#000000"
         stroke-width="0.25"
         d="M4 0 l-4,4"
         id="path16" />
    </pattern>
    <symbol
       id="*MODEL_SPACE" />
    <symbol
       id="*PAPER_SPACE" />
  </defs>
  <g
     inkscape:groupmode="layer"
     id="layer1"
     inkscape:label="1"
     style="display:inline">
    <rect
       style="display:inline;fill:#ffffff;stroke:#000000;stroke-width:0.87593853;stroke-linecap:square;stroke-linejoin:miter;stroke-miterlimit:4;stroke-dasharray:none;paint-order:normal"
       id="rect5682"
       width="337.1181"
       height="454.40979"
       x="912.22955"
       y="433.93753"
       rx="12.832692"
       ry="14.70143" />
    <path
       id="path1832-0"
       style="display:inline;fill:none;stroke:#000000;stroke-width:1.06666672"
       d="m 934.18395,649.24203 c 0.52884,-0.91367 0.81133,-1.96793 0.81018,-3.02362 m -3.02362,5.23707 c 0.91483,-0.52684 1.68659,-1.29861 2.21344,-2.21345 m -5.23707,3.02363 c 1.05569,10e-4 2.10996,-0.28133 3.02363,-0.81018 m -6.04725,0 c 0.91367,0.52885 1.96793,0.81133 3.02362,0.81018 m -5.23706,-3.02363 c 0.52684,0.91484 1.29861,1.68661 2.21344,2.21345 m -3.02362,-5.23707 c -10e-4,1.05569 0.28133,2.10995 0.81018,3.02362 m 0,-6.04724 c -0.52885,0.91368 -0.81133,1.96793 -0.81018,3.02362 m 3.02362,-5.23707 c -0.91483,0.52685 -1.6866,1.29861 -2.21344,2.21345 m 5.23706,-3.02363 c -1.05569,-10e-4 -2.10995,0.28134 -3.02362,0.81018 m 6.04725,0 c -0.91367,-0.52884 -1.96794,-0.81133 -3.02363,-0.81018 m 5.23707,3.02363 c -0.52685,-0.91484 -1.29861,-1.6866 -2.21344,-2.21345 m 3.02362,5.23707 c 10e-4,-1.05569 -0.28134,-2.10994 -0.81018,-3.02362"
       inkscape:connector-curvature="0" />
    <path
       id="path1832-9"
       style="display:inline;fill:none;stroke:#000000;stroke-width:1.06666672"
       d="m 1238.8433,649.24203 c 0.5289,-0.91367 0.8114,-1.96793 0.8102,-3.02362 m -3.0236,5.23706 c 0.9148,-0.52684 1.6866,-1.29861 2.2134,-2.21344 m -5.237,3.02362 c 1.0557,10e-4 2.1099,-0.28133 3.0236,-0.81018 m -6.0472,0 c 0.9136,0.52885 1.9679,0.81133 3.0236,0.81018 m -5.2371,-3.02362 c 0.5269,0.91483 1.2986,1.6866 2.2135,2.21344 m -3.0237,-5.23706 c 0,1.05569 0.2814,2.10995 0.8102,3.02362 m 0,-6.04724 c -0.5288,0.91368 -0.8113,1.96793 -0.8102,3.02362 m 3.0237,-5.23707 c -0.9149,0.52685 -1.6866,1.29861 -2.2135,2.21345 m 5.2371,-3.02363 c -1.0557,-10e-4 -2.11,0.28134 -3.0236,0.81018 m 6.0472,0 c -0.9137,-0.52884 -1.9679,-0.81133 -3.0236,-0.81018 m 5.237,3.02363 c -0.5268,-0.91484 -1.2986,-1.6866 -2.2134,-2.21345 m 3.0236,5.23707 c 0,-1.05569 -0.2813,-2.10994 -0.8102,-3.02362"
       inkscape:connector-curvature="0" />
  </g>
  <g
     inkscape:label="0"
     inkscape:groupmode="layer"
     id="g20"
     transform="translate(0,389.29132)"
     style="display:inline">
    <path
       id="path696"
       style="fill:none;stroke:#000000;stroke-width:1.06666672"
       d="m 997.40802,217.97584 151.18108,151.1811 M 996.67436,216.7051 c 0.12756,0.47813 0.38337,0.9212 0.73366,1.27074 m -0.73366,-2.73806 c -0.1286,0.47785 -0.1286,0.98946 0,1.46732 m 0.73366,-2.73805 c -0.35029,0.34953 -0.6061,0.7926 -0.73366,1.27073 m 2.0044,-2.00439 c -0.47813,0.12755 -0.9212,0.38336 -1.27074,0.73366 m 2.73808,-0.73366 c -0.47788,-0.12861 -0.98949,-0.12861 -1.46734,0 m 2.73804,0.73366 c -0.3495,-0.3503 -0.7926,-0.60611 -1.2707,-0.73366 m 152.4519,151.91476 -151.1812,-151.1811 m 151.9148,152.45183 c -0.1275,-0.47813 -0.3833,-0.92121 -0.7336,-1.27073 m 0.7336,2.73806 c 0.1286,-0.47786 0.1286,-0.98947 0,-1.46733 m -0.7336,2.73806 c 0.3503,-0.34954 0.6061,-0.79261 0.7336,-1.27073 m -2.0045,2.00439 c 0.4782,-0.12756 0.9213,-0.38336 1.2709,-0.73366 m -2.7382,0.73366 c 0.4779,0.1286 0.9895,0.1286 1.4673,0 m -2.738,-0.73366 c 0.3496,0.3503 0.7927,0.6061 1.2707,0.73366 M 997.40802,236.87347 1148.5891,388.05458 M 996.67436,235.60274 c 0.12756,0.47813 0.38337,0.92121 0.73366,1.27073 m -0.73366,-2.73806 c -0.1286,0.47786 -0.1286,0.98948 0,1.46733 m 0.73366,-2.73806 c -0.35029,0.34953 -0.6061,0.79261 -0.73366,1.27073 m 2.0044,-2.00439 c -0.47813,0.12755 -0.9212,0.38337 -1.27074,0.73366 m 2.73808,-0.73366 c -0.47788,-0.1286 -0.98949,-0.1286 -1.46734,0 m 2.73804,0.73366 c -0.3495,-0.35029 -0.7926,-0.60611 -1.2707,-0.73366 m 152.4519,151.91476 -151.1812,-151.1811 m 151.9148,152.45184 c -0.1275,-0.47813 -0.3833,-0.9212 -0.7336,-1.27074 m 0.7336,2.73806 c 0.1286,-0.47786 0.1286,-0.98947 0,-1.46732 m -0.7336,2.73806 c 0.3503,-0.34953 0.6061,-0.79261 0.7336,-1.27074 m -2.0045,2.00439 c 0.4782,-0.12755 0.9213,-0.38336 1.2709,-0.73365 m -2.7382,0.73365 c 0.4779,0.1286 0.9895,0.1286 1.4673,0 m -2.738,-0.73365 c 0.3496,0.35029 0.7927,0.6061 1.2707,0.73365 M 997.40802,255.77111 1148.5891,406.95221 M 996.67436,254.50037 c 0.12756,0.47814 0.38337,0.92121 0.73366,1.27074 m -0.73366,-2.73805 c -0.1286,0.47785 -0.1286,0.98947 0,1.46731 m 0.73366,-2.73804 c -0.35029,0.34952 -0.6061,0.79259 -0.73366,1.27073 m 2.0044,-2.0044 c -0.47813,0.12755 -0.9212,0.38336 -1.27074,0.73367 m 2.73808,-0.73367 c -0.47788,-0.1286 -0.98949,-0.1286 -1.46734,0 m 2.73804,0.73367 c -0.3495,-0.35031 -0.7926,-0.60612 -1.2707,-0.73367 M 1152.598,402.94342 1001.4168,251.76233 m 151.9148,152.45182 c -0.1275,-0.47812 -0.3833,-0.9212 -0.7336,-1.27073 m 0.7336,2.73806 c 0.1286,-0.47785 0.1286,-0.98947 0,-1.46733 m -0.7336,2.73806 c 0.3503,-0.34952 0.6061,-0.79259 0.7336,-1.27073 m -2.0045,2.0044 c 0.4782,-0.12755 0.9213,-0.38336 1.2709,-0.73367 m -2.7382,0.73367 c 0.4779,0.12859 0.9895,0.12859 1.4673,0 m -2.738,-0.73367 c 0.3496,0.35031 0.7927,0.60612 1.2707,0.73367 m 2.7382,14.15518 -151.1812,-151.1811 m 151.9148,152.45184 c -0.1275,-0.47814 -0.3833,-0.92121 -0.7336,-1.27074 m 0.7336,2.73805 c 0.1286,-0.47784 0.1286,-0.98947 0,-1.46731 m -0.7336,2.73806 c 0.3503,-0.34954 0.6061,-0.79261 0.7336,-1.27075 m -2.0045,2.0044 c 0.4782,-0.12755 0.9213,-0.38336 1.2709,-0.73365 m -2.7382,0.73365 c 0.4779,0.1286 0.9895,0.1286 1.4673,0 m -2.738,-0.73365 c 0.3496,0.35029 0.7927,0.6061 1.2707,0.73365 M 997.40802,274.66875 1148.5891,425.84986 M 996.67436,273.39802 c 0.12756,0.47813 0.38337,0.9212 0.73366,1.27073 m -0.73366,-2.73806 c -0.1286,0.47785 -0.1286,0.98947 0,1.46733 m 0.73366,-2.73806 c -0.35029,0.34953 -0.6061,0.79261 -0.73366,1.27073 m 2.0044,-2.0044 c -0.47813,0.12756 -0.9212,0.38337 -1.27074,0.73367 m 2.73808,-0.73367 c -0.47788,-0.12859 -0.98949,-0.12859 -1.46734,0 m 2.73804,0.73367 c -0.3495,-0.3503 -0.7926,-0.60611 -1.2707,-0.73367 m 74.1232,156.65722 c -0.4782,-0.12755 -0.9211,-0.38336 -1.2707,-0.73365 m 2.738,0.73365 c -0.4778,0.1286 -0.9894,0.1286 -1.4673,0 m 2.7381,-0.73365 c -0.3496,0.35029 -0.7927,0.6061 -1.2708,0.73365 m 2.0044,-2.0044 c -0.1276,0.47814 -0.3833,0.92121 -0.7336,1.27075 m 0.7336,-2.73806 c 0.1287,0.47784 0.1287,0.98947 0,1.46731 m -0.7336,-2.73805 c 0.3503,0.34953 0.606,0.7926 0.7336,1.27074 m -76.3242,-76.86129 75.5906,75.59055 m -76.8613,-76.32422 c 0.4781,0.12757 0.9212,0.38337 1.2707,0.73367 m -2.73804,-0.73367 c 0.47785,-0.12859 0.98946,-0.12859 1.46734,0 m -2.73808,0.73367 c 0.34954,-0.3503 0.79261,-0.6061 1.27074,-0.73367 m -2.0044,2.00441 c 0.12756,-0.47814 0.38337,-0.92121 0.73366,-1.27074 m -0.73366,2.73806 c -0.1286,-0.47786 -0.1286,-0.98948 0,-1.46732 m 0.73366,2.73806 c -0.35029,-0.34954 -0.6061,-0.79261 -0.73366,-1.27074 m 76.32424,76.86129 -75.59058,-75.59055 m 95.75888,76.3242 c -0.478,-0.12755 -0.9211,-0.38336 -1.2707,-0.73365 m 2.738,0.73365 c -0.4778,0.1286 -0.9894,0.1286 -1.4673,0 m 2.7381,-0.73365 c -0.3495,0.35029 -0.7926,0.6061 -1.2708,0.73365 m 2.0045,-2.0044 c -0.1276,0.47814 -0.3834,0.92121 -0.7337,1.27075 m 0.7337,-2.73806 c 0.1286,0.47784 0.1286,0.98947 0,1.46731 m -0.7337,-2.73805 c 0.3503,0.34953 0.6061,0.7926 0.7337,1.27074 m -95.2219,-95.75893 94.4882,94.48819 m -95.7589,-95.22185 c 0.4781,0.12755 0.9212,0.38336 1.2707,0.73366 m -2.73804,-0.73366 c 0.47785,-0.1286 0.98946,-0.1286 1.46734,0 m -2.73808,0.73366 c 0.34954,-0.3503 0.79261,-0.60611 1.27074,-0.73366 m -2.0044,2.0044 c 0.12756,-0.47814 0.38337,-0.92121 0.73366,-1.27074 m -0.73366,2.73805 c -0.1286,-0.47784 -0.1286,-0.98946 0,-1.46731 m 0.73366,2.73805 c -0.35029,-0.34953 -0.6061,-0.7926 -0.73366,-1.27074 m 95.22184,95.75894 -94.48818,-94.4882 m 114.65648,95.22185 c -0.478,-0.12755 -0.9211,-0.38336 -1.2707,-0.73365 m 2.7381,0.73365 c -0.4778,0.1286 -0.9895,0.1286 -1.4674,0 m 2.7382,-0.73365 c -0.3496,0.35029 -0.7927,0.6061 -1.2708,0.73365 m 2.0044,-2.0044 c -0.1276,0.47814 -0.3833,0.92121 -0.7336,1.27075 m 0.7336,-2.73806 c 0.1287,0.47784 0.1287,0.98947 0,1.46731 m -0.7336,-2.73805 c 0.3503,0.34953 0.606,0.7926 0.7336,1.27074 M 1001.4168,308.45523 1114.8027,421.84106 M 1000.1461,307.72157 c 0.4781,0.12756 0.9212,0.38337 1.2707,0.73366 m -2.73804,-0.73366 c 0.47785,-0.1286 0.98946,-0.1286 1.46734,0 m -2.73808,0.73366 c 0.34954,-0.35029 0.79261,-0.6061 1.27074,-0.73366 m -2.0044,2.00439 c 0.12756,-0.47812 0.38337,-0.92119 0.73366,-1.27073 m -0.73366,2.73806 c -0.1286,-0.47786 -0.1286,-0.98947 0,-1.46733 m 0.73366,2.73807 c -0.35029,-0.34953 -0.6061,-0.79261 -0.73366,-1.27074 M 1110.7938,425.84986 997.40802,312.46403 m 57.96368,114.11948 c -0.4782,-0.12755 -0.9212,-0.38336 -1.2708,-0.73365 m 2.7381,0.73365 c -0.4779,0.1286 -0.9895,0.1286 -1.4673,0 m 2.738,-0.73365 c -0.3495,0.35029 -0.7926,0.6061 -1.2707,0.73365 m 2.0044,-2.0044 c -0.1276,0.47814 -0.3834,0.92121 -0.7337,1.27075 m 0.7337,-2.73806 c 0.1286,0.47784 0.1286,0.98947 0,1.46731 m -0.7337,-2.73805 c 0.3503,0.34953 0.6061,0.7926 0.7337,1.27074 m -57.4266,-57.96365 56.6929,56.69291 m -57.9636,-57.42657 c 0.4781,0.12755 0.9212,0.38336 1.2707,0.73366 m -2.73804,-0.73366 c 0.47785,-0.1286 0.98946,-0.1286 1.46734,0 m -2.73808,0.73366 c 0.34954,-0.3503 0.79261,-0.60611 1.27074,-0.73366 m -2.0044,2.00439 c 0.12756,-0.47813 0.38337,-0.92121 0.73366,-1.27073 m -0.73366,2.73806 c -0.1286,-0.47786 -0.1286,-0.98947 0,-1.46733 m 0.73366,2.73806 c -0.35029,-0.34954 -0.6061,-0.79261 -0.73366,-1.27073 m 57.42654,57.96365 -56.69288,-56.69292 m 39.06598,57.42657 c -0.4781,-0.12755 -0.9212,-0.38336 -1.2707,-0.73365 m 2.7381,0.73365 c -0.4779,0.1286 -0.9895,0.1286 -1.4674,0 m 2.7381,-0.73365 c -0.3495,0.35029 -0.7926,0.6061 -1.2707,0.73365 m 2.0043,-2.0044 c -0.1275,0.47814 -0.3833,0.92121 -0.7336,1.27075 m 0.7336,-2.73806 c 0.1287,0.47784 0.1287,0.98947 0,1.46731 m -0.7336,-2.73805 c 0.3503,0.34953 0.6061,0.7926 0.7336,1.27074 m -38.5289,-39.06602 37.7953,37.79528 m -39.066,-38.52894 c 0.4781,0.12756 0.9212,0.38337 1.2707,0.73366 m -2.73804,-0.73366 c 0.47785,-0.1286 0.98946,-0.1286 1.46734,0 m -2.73808,0.73366 c 0.34954,-0.35029 0.79261,-0.6061 1.27074,-0.73366 m -2.0044,2.0044 c 0.12756,-0.47813 0.38337,-0.9212 0.73366,-1.27074 m -0.73366,2.73806 c -0.1286,-0.47786 -0.1286,-0.98947 0,-1.46732 m 0.73366,2.73806 c -0.35029,-0.34953 -0.6061,-0.79261 -0.73366,-1.27074 m 38.52894,39.06602 -37.79528,-37.79528 M 1133.7003,421.84106 1001.4168,289.5576 m 133.0171,133.5542 c -0.1276,-0.47814 -0.3833,-0.92121 -0.7336,-1.27074 m 0.7336,2.73805 c 0.1287,-0.47784 0.1287,-0.98947 0,-1.46731 m -0.7336,2.73806 c 0.3503,-0.34954 0.606,-0.79261 0.7336,-1.27075 m -2.0044,2.0044 c 0.4781,-0.12755 0.9212,-0.38336 1.2708,-0.73365 m -2.7381,0.73365 c 0.4779,0.1286 0.9895,0.1286 1.4673,0 m -2.738,-0.73365 c 0.3496,0.35029 0.7926,0.6061 1.2707,0.73365 M 997.40802,293.56639 1129.6915,425.84986 M 996.67436,292.29565 c 0.12756,0.47813 0.38337,0.9212 0.73366,1.27074 m -0.73366,-2.73806 c -0.1286,0.47786 -0.1286,0.98947 0,1.46732 m 0.73366,-2.73805 c -0.35029,0.34953 -0.6061,0.7926 -0.73366,1.27073 m 2.0044,-2.00439 c -0.47813,0.12755 -0.9212,0.38336 -1.27074,0.73366 m 2.73808,-0.73366 c -0.47788,-0.1286 -0.98949,-0.1286 -1.46734,0 m 2.73804,0.73366 c -0.3495,-0.3503 -0.7926,-0.60611 -1.2707,-0.73366 m -2.73808,118.12827 18.89768,18.89765 m -19.63134,-20.16838 c 0.12756,0.47814 0.38337,0.92121 0.73366,1.27073 m -0.73366,-2.73806 c -0.1286,0.47786 -0.1286,0.98948 0,1.46733 m 0.73366,-2.73806 c -0.35029,0.34953 -0.6061,0.79261 -0.73366,1.27073 m 2.0044,-2.00439 c -0.47813,0.12755 -0.9212,0.38337 -1.27074,0.73366 m 2.73808,-0.73366 c -0.47788,-0.1286 -0.98949,-0.1286 -1.46734,0 m 2.73804,0.73366 c -0.3495,-0.35029 -0.7926,-0.60611 -1.2707,-0.73366 m 20.1684,19.6313 -18.8977,-18.89764 m 19.6313,20.16838 c -0.1275,-0.47814 -0.3833,-0.92121 -0.7336,-1.27074 m 0.7336,2.73805 c 0.1286,-0.47784 0.1286,-0.98947 0,-1.46731 m -0.7336,2.73806 c 0.3503,-0.34954 0.6061,-0.79261 0.7336,-1.27075 m -2.0044,2.0044 c 0.4782,-0.12755 0.9212,-0.38336 1.2708,-0.73365 m -2.7381,0.73365 c 0.4779,0.1286 0.9895,0.1286 1.4673,0 m -2.738,-0.73365 c 0.3495,0.35029 0.7926,0.6061 1.2707,0.73365 m 132.2834,-75.59055 c -0.478,-0.12755 -0.9211,-0.38336 -1.2707,-0.73365 m 2.738,0.73365 c -0.4778,0.1286 -0.9894,0.1286 -1.4673,0 m 2.7382,-0.73365 c -0.3496,0.35029 -0.7927,0.6061 -1.2709,0.73365 m 2.0045,-2.00439 c -0.1275,0.47813 -0.3833,0.9212 -0.7336,1.27074 m 0.7336,-2.73806 c 0.1286,0.47784 0.1286,0.98946 0,1.46732 m -0.7336,-2.73806 c 0.3503,0.34953 0.6061,0.7926 0.7336,1.27074 M 1001.4168,195.06941 1152.598,346.25051 M 1000.1461,194.33574 c 0.4781,0.12756 0.9212,0.38336 1.2707,0.73367 m -2.73804,-0.73367 c 0.47785,-0.12859 0.98946,-0.12859 1.46734,0 m -2.73808,0.73367 c 0.34954,-0.35031 0.79261,-0.60611 1.27074,-0.73367 m -2.0044,2.0044 c 0.12756,-0.47812 0.38337,-0.92121 0.73366,-1.27073 m -0.73366,2.73806 c -0.1286,-0.47786 -0.1286,-0.98948 0,-1.46733 m 0.73366,2.73806 c -0.35029,-0.34954 -0.6061,-0.7926 -0.73366,-1.27073 M 1148.5891,350.25931 997.40802,199.0782 m 152.45178,133.01713 c -0.478,-0.12756 -0.9211,-0.38336 -1.2707,-0.73367 m 2.738,0.73367 c -0.4778,0.1286 -0.9894,0.1286 -1.4673,0 m 2.7382,-0.73367 c -0.3496,0.35031 -0.7927,0.60611 -1.2709,0.73367 m 2.0045,-2.00441 c -0.1275,0.47814 -0.3833,0.92121 -0.7336,1.27074 m 0.7336,-2.73805 c 0.1286,0.47785 0.1286,0.98947 0,1.46731 m -0.7336,-2.73805 c 0.3503,0.34953 0.6061,0.7926 0.7336,1.27074 M 1001.4168,176.17177 1152.598,327.35287 M 1000.1461,175.43811 c 0.4781,0.12755 0.9212,0.38336 1.2707,0.73366 m -2.73804,-0.73366 c 0.47785,-0.12861 0.98946,-0.12861 1.46734,0 m -2.73808,0.73366 c 0.34954,-0.3503 0.79261,-0.60611 1.27074,-0.73366 m -2.0044,2.0044 c 0.12756,-0.47814 0.38337,-0.92121 0.73366,-1.27074 m -0.73366,2.73805 c -0.1286,-0.47785 -0.1286,-0.98947 0,-1.46731 m 0.73366,2.73806 c -0.35029,-0.34954 -0.6061,-0.79261 -0.73366,-1.27075 M 1148.5891,331.36166 997.40802,180.18057 m 155.92358,110.64776 c -0.1275,-0.47813 -0.3833,-0.9212 -0.7336,-1.27073 m 0.7336,2.73805 c 0.1286,-0.47785 0.1286,-0.98946 0,-1.46732 m -0.7336,2.73806 c 0.3503,-0.34954 0.6061,-0.79261 0.7336,-1.27074 m -2.0045,2.0044 c 0.4782,-0.12756 0.9213,-0.38337 1.2709,-0.73366 m -2.7382,0.73366 c 0.4779,0.1286 0.9895,0.1286 1.4673,0 m -2.738,-0.73366 c 0.3496,0.35029 0.7927,0.6061 1.2707,0.73366 M 997.40802,142.38529 1148.5891,293.56639 M 996.67436,141.11455 c 0.12756,0.47813 0.38337,0.9212 0.73366,1.27074 m -0.73366,-2.73806 c -0.1286,0.47785 -0.1286,0.98946 0,1.46732 m 0.73366,-2.73806 c -0.35029,0.34954 -0.6061,0.79261 -0.73366,1.27074 m 2.0044,-2.0044 c -0.47813,0.12756 -0.9212,0.38337 -1.27074,0.73366 m 2.73808,-0.73366 c -0.47788,-0.1286 -0.98949,-0.1286 -1.46734,0 m 2.73804,0.73366 c -0.3495,-0.35029 -0.7926,-0.6061 -1.2707,-0.73366 M 1152.598,289.5576 1001.4168,138.37649 m 148.443,118.12829 c -0.478,-0.12756 -0.9211,-0.38337 -1.2707,-0.73367 m 2.738,0.73367 c -0.4778,0.1286 -0.9894,0.1286 -1.4673,0 m 2.7382,-0.73367 c -0.3496,0.3503 -0.7927,0.60611 -1.2709,0.73367 m 2.0045,-2.00441 c -0.1275,0.47814 -0.3833,0.92121 -0.7336,1.27074 m 0.7336,-2.73805 c 0.1286,0.47785 0.1286,0.98947 0,1.46731 m -0.7336,-2.73804 c 0.3503,0.34952 0.6061,0.79259 0.7336,1.27073 M 1020.3145,119.47886 1152.598,251.76233 M 1019.0437,118.74519 c 0.4782,0.12756 0.9212,0.38336 1.2708,0.73367 m -2.7381,-0.73367 c 0.4779,-0.12859 0.9895,-0.12859 1.4673,0 m -2.738,0.73367 c 0.3495,-0.35031 0.7926,-0.60611 1.2707,-0.73367 m -2.0044,2.0044 c 0.1276,-0.47813 0.3834,-0.92121 0.7337,-1.27073 m -0.7337,2.73806 c -0.1286,-0.47786 -0.1286,-0.98947 0,-1.46733 m 0.7337,2.73806 c -0.3503,-0.34954 -0.6061,-0.7926 -0.7337,-1.27073 m 133.0171,133.55419 -132.2834,-132.28346 m 133.5541,95.22184 c -0.478,-0.12755 -0.9211,-0.38336 -1.2707,-0.73365 m 2.738,0.73365 c -0.4778,0.1286 -0.9894,0.1286 -1.4673,0 m 2.7382,-0.73365 c -0.3496,0.35029 -0.7927,0.6061 -1.2709,0.73365 m 2.0045,-2.00439 c -0.1275,0.47813 -0.3833,0.9212 -0.7336,1.27074 m 0.7336,-2.73806 c 0.1286,0.47785 0.1286,0.98946 0,1.46732 m -0.7336,-2.73805 c 0.3503,0.34953 0.6061,0.7926 0.7336,1.27073 m -95.2219,-95.75892 94.4883,94.48819 m -95.759,-95.22186 c 0.4781,0.12756 0.9212,0.38336 1.2707,0.73367 m -2.738,-0.73367 c 0.4778,-0.12859 0.9894,-0.12859 1.4673,0 m -2.7381,0.73367 c 0.3496,-0.35031 0.7926,-0.60611 1.2708,-0.73367 m -2.0044,2.0044 c 0.1275,-0.47813 0.3833,-0.92121 0.7336,-1.27073 m -0.7336,2.73806 c -0.1286,-0.47786 -0.1286,-0.98947 0,-1.46733 m 0.7336,2.73806 c -0.3503,-0.34954 -0.6061,-0.7926 -0.7336,-1.27073 m 95.2218,95.75892 -94.4882,-94.48819 m 99.2307,110.64776 c -0.1275,-0.47812 -0.3833,-0.9212 -0.7336,-1.27073 m 0.7336,2.73806 c 0.1286,-0.47785 0.1286,-0.98947 0,-1.46733 m -0.7336,2.73806 c 0.3503,-0.34952 0.6061,-0.7926 0.7336,-1.27073 m -2.0045,2.0044 c 0.4782,-0.12756 0.9213,-0.38336 1.2709,-0.73367 m -2.7382,0.73367 c 0.4779,0.12859 0.9895,0.12859 1.4673,0 m -2.738,-0.73367 c 0.3496,0.35031 0.7927,0.60611 1.2707,0.73367 M 1035.2033,123.48765 1148.5891,236.87347 M 1034.4696,122.21692 c 0.1276,0.47813 0.3834,0.92119 0.7337,1.27073 m -0.7337,-2.73806 c -0.1286,0.47786 -0.1286,0.98947 0,1.46733 m 0.7337,-2.73806 c -0.3503,0.34952 -0.6061,0.7926 -0.7337,1.27073 m 2.0044,-2.0044 c -0.4781,0.12756 -0.9212,0.38336 -1.2707,0.73367 m 2.7381,-0.73367 c -0.4779,-0.12859 -0.9895,-0.12859 -1.4674,0 m 2.7381,0.73367 c -0.3495,-0.35031 -0.7926,-0.60611 -1.2707,-0.73367 M 1152.598,232.86468 1039.2121,119.47886 m 114.1195,76.86128 c -0.1275,-0.47812 -0.3833,-0.92121 -0.7336,-1.27073 m 0.7336,2.73806 c 0.1286,-0.47786 0.1286,-0.98948 0,-1.46733 m -0.7336,2.73806 c 0.3503,-0.34954 0.6061,-0.7926 0.7336,-1.27073 m -2.0045,2.00439 c 0.4782,-0.12755 0.9213,-0.38336 1.2709,-0.73366 m -2.7382,0.73366 c 0.4779,0.1286 0.9895,0.1286 1.4673,0 m -2.738,-0.73366 c 0.3496,0.3503 0.7927,0.60611 1.2707,0.73366 m -76.8612,-76.32421 75.5905,75.59055 m -76.3241,-76.86128 c 0.1274,0.47813 0.3833,0.92119 0.7336,1.27073 m -0.7336,-2.73806 c -0.1287,0.47786 -0.1287,0.98947 0,1.46733 m 0.7336,-2.73806 c -0.3503,0.34952 -0.6062,0.7926 -0.7336,1.27073 m 2.0043,-2.0044 c -0.4782,0.12756 -0.9211,0.38336 -1.2707,0.73367 m 2.738,-0.73367 c -0.4778,-0.12859 -0.9894,-0.12859 -1.4673,0 m 2.7381,0.73367 c -0.3496,-0.35031 -0.7927,-0.60611 -1.2708,-0.73367 m 76.8614,76.32422 -75.5906,-75.59055 m 76.3242,39.066 c -0.1275,-0.47813 -0.3833,-0.9212 -0.7336,-1.27073 m 0.7336,2.73806 c 0.1286,-0.47785 0.1286,-0.98947 0,-1.46733 m -0.7336,2.73806 c 0.3503,-0.34953 0.6061,-0.79259 0.7336,-1.27073 m -2.0045,2.0044 c 0.4782,-0.12757 0.9213,-0.38336 1.2709,-0.73367 m -2.7382,0.73367 c 0.4779,0.12859 0.9895,0.12859 1.4673,0 m -2.738,-0.73367 c 0.3496,0.35031 0.7927,0.6061 1.2707,0.73367 m -39.066,-38.52894 37.7953,37.79527 m -38.5289,-39.066 c 0.1275,0.47813 0.3833,0.92119 0.7336,1.27073 m -0.7336,-2.73806 c -0.1286,0.47786 -0.1286,0.98947 0,1.46733 m 0.7336,-2.73806 c -0.3503,0.34952 -0.6061,0.7926 -0.7336,1.27073 m 2.0043,-2.0044 c -0.478,0.12756 -0.9211,0.38336 -1.2707,0.73367 m 2.7381,-0.73367 c -0.4778,-0.12859 -0.9895,-0.12859 -1.4674,0 m 2.7382,0.73367 c -0.3496,-0.35031 -0.7927,-0.60611 -1.2708,-0.73367 m 39.0661,38.52894 -37.7953,-37.79527 m 35.0571,23.64008 c -0.478,-0.12755 -0.9211,-0.38336 -1.2707,-0.73365 m 2.738,0.73365 c -0.4778,0.1286 -0.9894,0.1286 -1.4673,0 m 2.7382,-0.73365 c -0.3496,0.35029 -0.7927,0.6061 -1.2709,0.73365 m 2.0045,-2.00439 c -0.1275,0.47813 -0.3833,0.9212 -0.7336,1.27074 m 0.7336,-2.73806 c 0.1286,0.47785 0.1286,0.98946 0,1.46732 m -0.7336,-2.73806 c 0.3503,0.34954 0.6061,0.79261 0.7336,1.27074 m -19.6313,-20.16837 18.8977,18.89763 m -20.1685,-19.6313 c 0.4781,0.12756 0.9212,0.38336 1.2708,0.73367 m -2.7381,-0.73367 c 0.4779,-0.12859 0.9895,-0.12859 1.4673,0 m -2.738,0.73367 c 0.3496,-0.35031 0.7926,-0.60611 1.2707,-0.73367 m -2.0043,2.0044 c 0.1274,-0.47813 0.3833,-0.92121 0.7336,-1.27073 m -0.7336,2.73806 c -0.1287,-0.47786 -0.1287,-0.98947 0,-1.46733 m 0.7336,2.73806 c -0.3503,-0.34954 -0.6062,-0.7926 -0.7336,-1.27073 m 19.6312,20.16837 -18.8976,-18.89764 m 20.1683,151.91476 c -0.478,-0.12755 -0.9211,-0.38336 -1.2707,-0.73366 m 2.738,0.73366 c -0.4778,0.1286 -0.9894,0.1286 -1.4673,0 m 2.7382,-0.73366 c -0.3496,0.3503 -0.7927,0.60611 -1.2709,0.73366 m 2.0045,-2.00439 c -0.1275,0.47813 -0.3833,0.9212 -0.7336,1.27073 m 0.7336,-2.73806 c 0.1286,0.47785 0.1286,0.98947 0,1.46733 m -0.7336,-2.73806 c 0.3503,0.34953 0.6061,0.79261 0.7336,1.27073 M 1001.4168,119.47886 1152.598,270.65996 M 1000.1461,118.74519 c 0.4781,0.12756 0.9212,0.38336 1.2707,0.73367 m -2.73804,-0.73367 c 0.47785,-0.12859 0.98946,-0.12859 1.46734,0 m -2.73808,0.73367 c 0.34954,-0.35031 0.79261,-0.60611 1.27074,-0.73367 m -2.0044,2.0044 c 0.12756,-0.47813 0.38337,-0.92121 0.73366,-1.27073 m -0.73366,2.73806 c -0.1286,-0.47786 -0.1286,-0.98947 0,-1.46733 m 0.73366,2.73806 c -0.35029,-0.34954 -0.6061,-0.7926 -0.73366,-1.27073 M 1148.5891,274.66875 997.40802,123.48765 m 152.45178,189.71004 c -0.478,-0.12756 -0.9211,-0.38336 -1.2707,-0.73366 m 2.738,0.73366 c -0.4778,0.12859 -0.9894,0.12859 -1.4673,0 m 2.7382,-0.73366 c -0.3496,0.3503 -0.7927,0.6061 -1.2709,0.73366 m 2.0045,-2.0044 c -0.1275,0.47813 -0.3833,0.92121 -0.7336,1.27074 m 0.7336,-2.73807 c 0.1286,0.47786 0.1286,0.98947 0,1.46733 m -0.7336,-2.73806 c 0.3503,0.34954 0.6061,0.79261 0.7336,1.27073 M 1001.4168,157.27413 1152.598,308.45523 M 1000.1461,156.54047 c 0.4781,0.12755 0.9212,0.38336 1.2707,0.73366 m -2.73804,-0.73366 c 0.47785,-0.1286 0.98946,-0.1286 1.46734,0 m -2.73808,0.73366 c 0.34954,-0.3503 0.79261,-0.60611 1.27074,-0.73366 m -2.0044,2.00439 c 0.12756,-0.47813 0.38337,-0.9212 0.73366,-1.27073 m -0.73366,2.73806 c -0.1286,-0.47785 -0.1286,-0.98947 0,-1.46733 m 0.73366,2.73806 c -0.35029,-0.34953 -0.6061,-0.79259 -0.73366,-1.27073 M 1148.5891,312.46403 997.40802,161.28292 m 152.45178,19.6313 c -0.478,-0.12755 -0.9211,-0.38336 -1.2707,-0.73365 m 2.738,0.73365 c -0.4778,0.1286 -0.9894,0.1286 -1.4673,0 m 2.7382,-0.73365 c -0.3496,0.35029 -0.7927,0.6061 -1.2709,0.73365 m 2.0045,-2.0044 c -0.1275,0.47814 -0.3833,0.92121 -0.7336,1.27075 m 0.7336,-2.73806 c 0.1286,0.47784 0.1286,0.98946 0,1.46731 m -0.7336,-2.73805 c 0.3503,0.34953 0.6061,0.7926 0.7336,1.27074 m -57.4266,-57.96365 56.693,56.69291 m -57.9638,-57.42658 c 0.4782,0.12756 0.9213,0.38336 1.2708,0.73367 m -2.7381,-0.73367 c 0.4779,-0.12859 0.9895,-0.12859 1.4673,0 m -2.738,0.73367 c 0.3496,-0.35031 0.7927,-0.60611 1.2707,-0.73367 m -2.0043,2.0044 c 0.1275,-0.47813 0.3833,-0.92121 0.7336,-1.27073 m -0.7336,2.73806 c -0.1287,-0.47786 -0.1287,-0.98947 0,-1.46733 m 0.7336,2.73806 c -0.3503,-0.34954 -0.6061,-0.7926 -0.7336,-1.27073 m 57.4265,57.96365 -56.6929,-56.69292"
       inkscape:connector-curvature="0" />
    <path
       id="path916"
       style="fill:none;stroke:#000000;stroke-width:1.06666672"
       d="m 1180.3428,252.28347 c 0.4958,-0.85658 0.7607,-1.84494 0.7596,-2.83465 m -2.8347,4.90975 c 0.8576,-0.49392 1.5812,-1.21745 2.0751,-2.0751 m -4.9097,2.83464 c 0.9897,0.001 1.978,-0.26375 2.8346,-0.75954 m -5.6693,0 c 0.8566,0.49579 1.845,0.76062 2.8347,0.75954 m -4.9098,-2.83464 c 0.494,0.85765 1.2175,1.58118 2.0751,2.0751 m -2.8347,-4.90975 c -10e-4,0.98971 0.2638,1.97807 0.7596,2.83465 m 0,-5.66929 c -0.4958,0.85656 -0.7606,1.84493 -0.7596,2.83464 m 2.8347,-4.90975 c -0.8576,0.49391 -1.5811,1.21745 -2.0751,2.07511 m 4.9098,-2.83465 c -0.9897,-0.001 -1.9781,0.26374 -2.8347,0.75954 m 5.6693,0 c -0.8566,-0.4958 -1.8449,-0.76063 -2.8346,-0.75954 m 4.9097,2.83465 c -0.4939,-0.85766 -1.2175,-1.5812 -2.0751,-2.07511 m 2.8347,4.90975 c 0,-0.98971 -0.2638,-1.97808 -0.7596,-2.83464"
       inkscape:connector-curvature="0" />
    <path
       id="path1496"
       style="fill:none;stroke:#000000;stroke-width:1.06666672"
       d="m 1180.3428,101.10236 c 0.4958,-0.85657 0.7607,-1.844936 0.7596,-2.834644 m -2.8347,4.909754 c 0.8576,-0.49392 1.5812,-1.21745 2.0751,-2.07511 m -4.9097,2.83465 c 0.9897,0.001 1.978,-0.26375 2.8346,-0.75954 m -5.6693,0 c 0.8566,0.49579 1.845,0.76062 2.8347,0.75954 m -4.9098,-2.83465 c 0.494,0.85766 1.2175,1.58119 2.0751,2.07511 m -2.8347,-4.909754 c -10e-4,0.989708 0.2638,1.978074 0.7596,2.834644 m 0,-5.669289 c -0.4958,0.856573 -0.7606,1.844939 -0.7596,2.834645 m 2.8347,-4.909749 c -0.8576,0.493916 -1.5811,1.21745 -2.0751,2.075104 m 4.9098,-2.834645 c -0.9897,-0.0011 -1.9781,0.26375 -2.8347,0.759541 m 5.6693,0 c -0.8566,-0.495791 -1.8449,-0.760623 -2.8346,-0.759541 m 4.9097,2.834645 c -0.4939,-0.857654 -1.2175,-1.581188 -2.0751,-2.075104 m 2.8347,4.909749 c 0,-0.989706 -0.2638,-1.978072 -0.7596,-2.834645"
       inkscape:connector-curvature="0" />
    <path
       id="path1568"
       style="fill:none;stroke:#000000;stroke-width:1.06666672"
       d="m 1180.3428,448.8189 c 0.4958,-0.85657 0.7607,-1.84494 0.7596,-2.83464 m -2.8347,4.90975 c 0.8576,-0.49392 1.5812,-1.21746 2.0751,-2.07511 m -4.9097,2.83465 c 0.9897,10e-4 1.978,-0.26376 2.8346,-0.75954 m -5.6693,0 c 0.8566,0.49578 1.845,0.76061 2.8347,0.75954 m -4.9098,-2.83465 c 0.494,0.85765 1.2175,1.58119 2.0751,2.07511 m -2.8347,-4.90975 c -10e-4,0.9897 0.2638,1.97807 0.7596,2.83464 m 0,-5.66929 c -0.4958,0.85657 -0.7606,1.84494 -0.7596,2.83465 m 2.8347,-4.90975 c -0.8576,0.49391 -1.5811,1.21744 -2.0751,2.0751 m 4.9098,-2.83464 c -0.9897,-0.001 -1.9781,0.26374 -2.8347,0.75954 m 5.6693,0 c -0.8566,-0.4958 -1.8449,-0.76063 -2.8346,-0.75954 m 4.9097,2.83464 c -0.4939,-0.85766 -1.2175,-1.58119 -2.0751,-2.0751 m 2.8347,4.90975 c 0,-0.98971 -0.2638,-1.97808 -0.7596,-2.83465"
       inkscape:connector-curvature="0" />
    <path
       id="path1696"
       style="fill:none;stroke:#000000;stroke-width:1.06666672"
       d="m 983.80739,448.8189 c 0.49579,-0.85657 0.76062,-1.84494 0.75954,-2.83464 m -2.83464,4.90975 c 0.85765,-0.49392 1.58118,-1.21746 2.0751,-2.07511 m -4.90975,2.83465 c 0.98971,10e-4 1.97807,-0.26376 2.83465,-0.75954 m -5.6693,0 c 0.85657,0.49578 1.84494,0.76061 2.83465,0.75954 m -4.90975,-2.83465 c 0.49391,0.85765 1.21744,1.58119 2.0751,2.07511 m -2.83465,-4.90975 c -10e-4,0.9897 0.26376,1.97807 0.75955,2.83464 m 0,-5.66929 c -0.49579,0.85657 -0.76063,1.84494 -0.75955,2.83465 m 2.83465,-4.90975 c -0.85766,0.49391 -1.58119,1.21744 -2.0751,2.0751 m 4.90975,-2.83464 c -0.98971,-0.001 -1.97808,0.26374 -2.83465,0.75954 m 5.6693,0 c -0.85658,-0.4958 -1.84494,-0.76063 -2.83465,-0.75954 m 4.90975,2.83464 c -0.49392,-0.85766 -1.21745,-1.58119 -2.0751,-2.0751 m 2.83464,4.90975 c 0.001,-0.98971 -0.26375,-1.97808 -0.75954,-2.83465"
       inkscape:connector-curvature="0" />
    <path
       style="fill:none;stroke:#000000;stroke-width:1.06666672"
       d="m 984.56693,98.267716 c 0.001,-0.989706 -0.26375,-1.978072 -0.75954,-2.834645"
       id="path1706"
       inkscape:connector-curvature="0" />
    <path
       style="fill:none;stroke:#000000;stroke-width:1.06666672"
       d="m 983.80739,95.433071 c -0.49392,-0.857654 -1.21745,-1.581188 -2.0751,-2.075104"
       id="path1708"
       inkscape:connector-curvature="0" />
    <path
       style="fill:none;stroke:#000000;stroke-width:1.06666672"
       d="m 981.73229,93.357967 c -0.85658,-0.495791 -1.84494,-0.760623 -2.83465,-0.759541"
       id="path1710"
       inkscape:connector-curvature="0" />
    <path
       style="fill:none;stroke:#000000;stroke-width:1.06666672"
       d="m 978.89764,92.598426 c -0.98971,-0.0011 -1.97808,0.26375 -2.83465,0.759541"
       id="path1712"
       inkscape:connector-curvature="0" />
    <path
       style="fill:none;stroke:#000000;stroke-width:1.06666672"
       d="m 976.06299,93.357967 c -0.85766,0.493916 -1.58119,1.21745 -2.0751,2.075104"
       id="path1714"
       inkscape:connector-curvature="0" />
    <path
       style="fill:none;stroke:#000000;stroke-width:1.06666672"
       d="m 973.98789,95.433071 c -0.49579,0.856573 -0.76063,1.844939 -0.75955,2.834645"
       id="path1716"
       inkscape:connector-curvature="0" />
    <path
       style="fill:none;stroke:#000000;stroke-width:1.06666672"
       d="m 973.22834,98.267716 c -10e-4,0.989708 0.26376,1.978074 0.75955,2.834644"
       id="path1718"
       inkscape:connector-curvature="0" />
    <path
       style="fill:none;stroke:#000000;stroke-width:1.06666672"
       d="m 973.98789,101.10236 c 0.49391,0.85766 1.21744,1.58119 2.0751,2.07511"
       id="path1720"
       inkscape:connector-curvature="0" />
    <path
       style="fill:none;stroke:#000000;stroke-width:1.06666672"
       d="m 976.06299,103.17747 c 0.85657,0.49579 1.84494,0.76062 2.83465,0.75954"
       id="path1722"
       inkscape:connector-curvature="0" />
    <path
       style="fill:none;stroke:#000000;stroke-width:1.06666672"
       d="m 978.89764,103.93701 c 0.98971,0.001 1.97807,-0.26375 2.83465,-0.75954"
       id="path1724"
       inkscape:connector-curvature="0" />
    <path
       style="fill:none;stroke:#000000;stroke-width:1.06666672"
       d="m 981.73229,103.17747 c 0.85765,-0.49392 1.58118,-1.21745 2.0751,-2.07511"
       id="path1726"
       inkscape:connector-curvature="0" />
    <path
       style="fill:none;stroke:#000000;stroke-width:1.06666672"
       d="m 983.80739,101.10236 c 0.49579,-0.85657 0.76062,-1.844936 0.75954,-2.834644"
       id="path1728"
       inkscape:connector-curvature="0" />
    <g
       id="g5735"
       transform="translate(-3.68553)">
      <path
         inkscape:connector-curvature="0"
         d="m 988.4724,483.77953 v -11.71654 m 18.8977,11.71654 h -18.8977 m 18.8977,-11.71654 v 11.71654 m -18.8977,-11.71654 h 18.8977"
         style="fill:none;stroke:#000000;stroke-width:1.06666672"
         id="path1736" />
      <path
         inkscape:connector-curvature="0"
         d="m 1045.1653,472.06299 h 18.8977 m -18.8977,11.71654 v -11.71654 m 18.8977,11.71654 h -18.8977 m 18.8977,-11.71654 v 11.71654"
         style="fill:none;stroke:#000000;stroke-width:1.06666672"
         id="path1744" />
      <path
         inkscape:connector-curvature="0"
         d="m 1101.8582,472.06299 h 18.8977 m -18.8977,11.71654 v -11.71654 m 18.8977,11.71654 h -18.8977 m 18.8977,-11.71654 v 11.71654"
         style="fill:none;stroke:#000000;stroke-width:1.06666672"
         id="path1752" />
      <path
         inkscape:connector-curvature="0"
         d="m 1158.5511,483.77953 v -11.71654 m 18.8978,11.71654 h -18.8978 m 18.8978,-11.71654 v 11.71654 m -18.8978,-11.71654 h 18.8978"
         style="fill:none;stroke:#000000;stroke-width:1.06666672"
         id="path1760" />
      <path
         inkscape:connector-curvature="0"
         d="m 1215.2441,483.77953 v -11.71654 m 18.8977,11.71654 h -18.8977 m 18.8977,-11.71654 v 11.71654 m -18.8977,-11.71654 h 18.8977"
         style="fill:none;stroke:#000000;stroke-width:1.06666672"
         id="path1784" />
      <path
         inkscape:connector-curvature="0"
         d="m 931.77953,483.77953 v -11.71654 m 18.89763,11.71654 h -18.89763 m 18.89763,-11.71654 v 11.71654 m -18.89763,-11.71654 h 18.89763"
         style="fill:none;stroke:#000000;stroke-width:1.06666672"
         id="path1800" />
    </g>
    <path
       id="path1832"
       style="fill:none;stroke:#000000;stroke-width:1.06666672"
       d="m 934.18395,142.86614 c 0.52884,-0.91367 0.81133,-1.96793 0.81018,-3.02362 m -3.02362,5.23706 c 0.91483,-0.52684 1.68659,-1.29861 2.21344,-2.21344 m -5.23707,3.02362 c 1.05569,0.001 2.10996,-0.28133 3.02363,-0.81018 m -6.04725,0 c 0.91367,0.52885 1.96793,0.81133 3.02362,0.81018 m -5.23706,-3.02362 c 0.52684,0.91483 1.29861,1.6866 2.21344,2.21344 m -3.02362,-5.23706 c -10e-4,1.05569 0.28133,2.10995 0.81018,3.02362 m 0,-6.04724 c -0.52885,0.91368 -0.81133,1.96793 -0.81018,3.02362 m 3.02362,-5.23707 c -0.91483,0.52685 -1.6866,1.29861 -2.21344,2.21345 m 5.23706,-3.02363 c -1.05569,-10e-4 -2.10995,0.28134 -3.02362,0.81018 m 6.04725,0 c -0.91367,-0.52884 -1.96794,-0.81133 -3.02363,-0.81018 m 5.23707,3.02363 c -0.52685,-0.91484 -1.29861,-1.6866 -2.21344,-2.21345 m 3.02362,5.23707 c 10e-4,-1.05569 -0.28134,-2.10994 -0.81018,-3.02362"
       inkscape:connector-curvature="0" />
    <path
       id="path1856"
       style="fill:none;stroke:#000000;stroke-width:1.06666672"
       d="m 958.01211,380.7874 c 0.49579,-0.85657 0.76063,-1.84494 0.75955,-2.83464 m -2.83465,4.90975 c 0.85766,-0.49392 1.58119,-1.21745 2.0751,-2.07511 m -4.90975,2.83465 c 0.98971,10e-4 1.97808,-0.26376 2.83465,-0.75954 m -5.6693,0 c 0.85658,0.49578 1.84494,0.76062 2.83465,0.75954 m -4.90975,-2.83465 c 0.49392,0.85766 1.21745,1.58119 2.0751,2.07511 m -2.83464,-4.90975 c -0.001,0.9897 0.26375,1.97807 0.75954,2.83464 m 0,-5.66929 c -0.49579,0.85658 -0.76062,1.84494 -0.75954,2.83465 m 2.83464,-4.90975 c -0.85765,0.49391 -1.58118,1.21745 -2.0751,2.0751 m 4.90975,-2.83464 c -0.98971,-0.001 -1.97807,0.26374 -2.83465,0.75954 m 5.6693,0 c -0.85657,-0.4958 -1.84494,-0.76063 -2.83465,-0.75954 m 4.90975,2.83464 c -0.49391,-0.85765 -1.21744,-1.58119 -2.0751,-2.0751 m 2.83465,4.90975 c 10e-4,-0.98971 -0.26376,-1.97807 -0.75955,-2.83465"
       inkscape:connector-curvature="0" />
    <path
       id="path1880"
       style="fill:none;stroke:#000000;stroke-width:1.06666672"
       d="m 934.18395,406.71344 c 0.52884,-0.91367 0.81133,-1.96793 0.81018,-3.02362 m -3.02362,5.23707 c 0.91483,-0.52685 1.68659,-1.29861 2.21344,-2.21345 m -5.23707,3.02363 c 1.05569,10e-4 2.10996,-0.28134 3.02363,-0.81018 m -6.04725,0 c 0.91367,0.52884 1.96793,0.81133 3.02362,0.81018 m -5.23706,-3.02363 c 0.52684,0.91484 1.29861,1.6866 2.21344,2.21345 m -3.02362,-5.23707 c -10e-4,1.05569 0.28133,2.10995 0.81018,3.02362 m 0,-6.04724 c -0.52885,0.91367 -0.81133,1.96793 -0.81018,3.02362 m 3.02362,-5.23706 c -0.91483,0.52685 -1.6866,1.29861 -2.21344,2.21344 m 5.23706,-3.02362 c -1.05569,-0.001 -2.10995,0.28133 -3.02362,0.81018 m 6.04725,0 c -0.91367,-0.52885 -1.96794,-0.81133 -3.02363,-0.81018 m 5.23707,3.02362 c -0.52685,-0.91483 -1.29861,-1.68659 -2.21344,-2.21344 m 3.02362,5.23706 c 10e-4,-1.05569 -0.28134,-2.10995 -0.81018,-3.02362"
       inkscape:connector-curvature="0" />
    <path
       id="path1904"
       style="fill:none;stroke:#000000;stroke-width:1.06666672"
       d="m 1238.8434,142.86614 c 0.5288,-0.91367 0.8113,-1.96793 0.8101,-3.02362 m -3.0235,5.23706 c 0.9147,-0.52684 1.6865,-1.29861 2.2134,-2.21344 m -5.2371,3.02362 c 1.0557,0.001 2.11,-0.28133 3.0237,-0.81018 m -6.0473,0 c 0.9136,0.52885 1.9679,0.81133 3.0236,0.81018 m -5.237,-3.02362 c 0.5268,0.91483 1.2985,1.6866 2.2134,2.21344 m -3.0237,-5.23706 c 0,1.05569 0.2814,2.10995 0.8103,3.02362 m 0,-6.04724 c -0.5289,0.91368 -0.8114,1.96793 -0.8103,3.02362 m 3.0237,-5.23707 c -0.9149,0.52685 -1.6866,1.29861 -2.2134,2.21345 m 5.237,-3.02363 c -1.0557,-10e-4 -2.11,0.28134 -3.0236,0.81018 m 6.0473,0 c -0.9137,-0.52884 -1.968,-0.81133 -3.0237,-0.81018 m 5.2371,3.02363 c -0.5269,-0.91484 -1.2987,-1.6866 -2.2134,-2.21345 m 3.0235,5.23707 c 0,-1.05569 -0.2813,-2.10994 -0.8101,-3.02362"
       inkscape:connector-curvature="0" />
    <path
       id="path1952"
       style="fill:none;stroke:#000000;stroke-width:1.06666672"
       d="m 1238.8434,406.71344 c 0.5288,-0.91368 0.8113,-1.96793 0.8101,-3.02362 m -3.0235,5.23707 c 0.9147,-0.52685 1.6865,-1.29862 2.2134,-2.21345 m -5.2371,3.02362 c 1.0557,0.001 2.11,-0.28133 3.0237,-0.81017 m -6.0473,0 c 0.9136,0.52884 1.9679,0.81133 3.0236,0.81017 m -5.237,-3.02362 c 0.5268,0.91483 1.2985,1.6866 2.2134,2.21345 m -3.0237,-5.23707 c 0,1.05569 0.2814,2.10994 0.8103,3.02362 m 0,-6.04725 c -0.5289,0.91368 -0.8114,1.96794 -0.8103,3.02363 m 3.0237,-5.23707 c -0.9149,0.52685 -1.6866,1.29862 -2.2134,2.21344 m 5.237,-3.02361 c -1.0557,-0.001 -2.11,0.28133 -3.0236,0.81017 m 6.0473,0 c -0.9137,-0.52884 -1.968,-0.81132 -3.0237,-0.81017 m 5.2371,3.02361 c -0.5269,-0.91482 -1.2987,-1.68659 -2.2134,-2.21344 m 3.0235,5.23707 c 0,-1.05569 -0.2813,-2.10995 -0.8101,-3.02363"
       inkscape:connector-curvature="0" />
    <g
       id="g5727">
      <path
         inkscape:connector-curvature="0"
         d="M 984.7869,74.7668 V 63.050256 m 18.8977,11.716544 h -18.8977 m 18.8977,-11.716544 V 74.7668 M 984.7869,63.050256 h 18.8977"
         style="fill:none;stroke:#000000;stroke-width:1.06666672"
         id="path1736-6" />
      <path
         inkscape:connector-curvature="0"
         d="m 1041.4798,63.050256 h 18.8977 M 1041.4798,74.7668 V 63.050256 m 18.8977,11.716544 h -18.8977 m 18.8977,-11.716544 V 74.7668"
         style="fill:none;stroke:#000000;stroke-width:1.06666672"
         id="path1744-2" />
      <path
         inkscape:connector-curvature="0"
         d="m 1098.1727,63.050256 h 18.8977 M 1098.1727,74.7668 V 63.050256 m 18.8977,11.716544 h -18.8977 m 18.8977,-11.716544 V 74.7668"
         style="fill:none;stroke:#000000;stroke-width:1.06666672"
         id="path1752-9" />
      <path
         inkscape:connector-curvature="0"
         d="M 1154.8656,74.7668 V 63.050256 m 18.8978,11.716544 h -18.8978 m 18.8978,-11.716544 V 74.7668 m -18.8978,-11.716544 h 18.8978"
         style="fill:none;stroke:#000000;stroke-width:1.06666672"
         id="path1760-1" />
      <path
         inkscape:connector-curvature="0"
         d="M 1211.5586,74.7668 V 63.050256 m 18.8977,11.716544 h -18.8977 m 18.8977,-11.716544 V 74.7668 m -18.8977,-11.716544 h 18.8977"
         style="fill:none;stroke:#000000;stroke-width:1.06666672"
         id="path1784-2" />
      <path
         inkscape:connector-curvature="0"
         d="M 928.094,74.7668 V 63.050256 M 946.9916,74.7668 H 928.094 M 946.9916,63.050256 V 74.7668 M 928.094,63.050256 h 18.8976"
         style="fill:none;stroke:#000000;stroke-width:1.06666672"
         id="path1800-7" />
    </g>
  </g>
</svg>
