<?xml version="1.0" encoding="UTF-8" standalone="no"?>
<svg
   xmlns:dc="http://purl.org/dc/elements/1.1/"
   xmlns:cc="http://creativecommons.org/ns#"
   xmlns:rdf="http://www.w3.org/1999/02/22-rdf-syntax-ns#"
   xmlns:svg="http://www.w3.org/2000/svg"
   xmlns="http://www.w3.org/2000/svg"
   xmlns:sodipodi="http://sodipodi.sourceforge.net/DTD/sodipodi-0.dtd"
   xmlns:inkscape="http://www.inkscape.org/namespaces/inkscape"
   width="62mm"
   height="88mm"
   id="svg2"
   version="1.1"
   inkscape:version="0.92.2 5c3e80d, 2017-08-06"
   sodipodi:docname="LUHC-01_Side_Slot_CLK_SMA.svg">
  <metadata
     id="metadata5622">
    <rdf:RDF>
      <cc:Work
         rdf:about="">
        <dc:format>image/svg+xml</dc:format>
        <dc:type
           rdf:resource="http://purl.org/dc/dcmitype/StillImage" />
        <dc:title></dc:title>
      </cc:Work>
    </rdf:RDF>
  </metadata>
  <sodipodi:namedview
     pagecolor="#ffffff"
     bordercolor="#666666"
     borderopacity="1"
     objecttolerance="10"
     gridtolerance="10"
     guidetolerance="10"
     inkscape:pageopacity="0"
     inkscape:pageshadow="2"
     inkscape:window-width="1600"
     inkscape:window-height="849"
     id="namedview5620"
     showgrid="true"
     inkscape:zoom="2.0445076"
     inkscape:cx="117.16535"
     inkscape:cy="166.29921"
     inkscape:window-x="0"
     inkscape:window-y="0"
     inkscape:window-maximized="1"
     inkscape:current-layer="g20"
     units="mm"
     inkscape:document-units="mm">
    <inkscape:grid
       type="xygrid"
       id="grid38117"
       units="mm" />
  </sodipodi:namedview>
  <desc
     id="desc4">C:\Users\Dave\Documents\GitHub\LimeSDR-USB_Hacker_Case\LUHC-01_Side_Slot_CLK_SMA.dxf - scale = 1.000000, origin = (0.000000, 0.000000), auto = False</desc>
  <defs
     id="defs6">
    <marker
       refY="0"
       refX="0"
       style="overflow:visible"
       id="DistanceX"
       orient="auto">
      <path
         style="stroke:#000000;stroke-width:0.53333336"
         d="M 3.2,-3.2 -3.2,3.2 M 0,-5.3333333 V 5.3333333"
         id="path9"
         inkscape:connector-curvature="0" />
    </marker>
    <pattern
       height="8"
       width="8"
       patternUnits="userSpaceOnUse"
       y="0"
       x="0"
       id="Hatch">
      <path
         linecap="square"
         stroke="#000000"
         stroke-width="0.25"
         d="M8 4 l-4,4"
         id="path12" />
      <path
         linecap="square"
         stroke="#000000"
         stroke-width="0.25"
         d="M6 2 l-4,4"
         id="path14" />
      <path
         linecap="square"
         stroke="#000000"
         stroke-width="0.25"
         d="M4 0 l-4,4"
         id="path16" />
    </pattern>
    <symbol
       id="*MODEL_SPACE" />
    <symbol
       id="*PAPER_SPACE" />
  </defs>
  <g
     inkscape:label="0"
     inkscape:groupmode="layer"
     id="g20"
     transform="translate(0,-789.92122)">
    <path
       id="path1652"
       style="fill:none;stroke:#000000;stroke-width:1.06666672"
       d="m 0.54863336,823.39879 v 11.33859 m 0,0 v 0.1889 m 0,0 0.014,0.18842 m 0,0 0.023,0.18748 m 0,0 0.033,0.18607 m 0,0 0.043,0.1842 m 0,0 0.051,0.18185 m -3e-4,0 0.061,0.17907 m -6e-4,0 0.069,0.17582 m -10e-5,0 0.078,0.17215 m 0,0 0.086,0.16804 m -2e-4,0 0.095,0.16351 m 2e-4,0 0.1024,0.15856 m 4e-4,0 0.1105,0.15324 m 0,0 0.1181,0.14753 m 0,0 0.1253,0.14143 m 0,0 0.1322,0.135 m 0,0 0.1389,0.12821 m 0,0 0.1449,0.12112 m 0,0 0.151,0.11373 m 0,0 0.1563,0.10603 m 0,-5e-5 0.1615,0.0981 m 0,-8e-5 0.1663,0.0899 m 0,-4e-5 0.1705,0.0815 m 0,-10e-6 0.1743,0.0729 m 0,4e-5 0.1778,0.064 m 0,8e-5 0.1808,0.055 m 0,0 0.1832,0.046 m 0,0 0.1853,0.0368 m 0,0 0.187,0.0274 m 0,0 0.188,0.0181 m 0,1.1e-4 0.1888,0.009 m -3e-4,2.6e-4 0.079,8.1e-4 m -4e-4,0 h 7.5590996 m 0,0 v 37.79527 m 0,0 H 4.3224334 m 0,0 -0.1889,0.004 m 0,4.3e-4 -0.1884,0.0142 m 0,0 -0.1875,0.0236 m 0,0 -0.1861,0.0328 m 0,1.1e-4 -0.1841,0.0421 m 0,0 -0.1819,0.0513 m 0,-4e-5 -0.1791,0.0604 m 0,-5e-5 -0.1757,0.0692 m 0,3e-5 -0.1722,0.0779 m 0,5e-5 -0.1681,0.0864 m 0,0 -0.1635,0.0947 m 0,4e-5 -0.1585,0.10272 m 0,4e-5 -0.1533,0.11056 m 0,0 -0.1475,0.11808 m 0,0 -0.1415,0.1253 m 0,0 -0.1349,0.13221 m 0,0 -0.1282,0.13881 m 0,0 -0.1212,0.14502 m 0,0 -0.1137,0.15091 m -4e-4,0 -0.1056,0.1564 m -5e-4,0 -0.098,0.1615 m -2e-4,0 -0.09,0.16621 m -6e-4,0 -0.081,0.17049 m -8e-4,0 -0.072,0.17434 m -4e-4,0 -0.064,0.17778 m 3e-4,0 -0.055,0.18075 m 0,0 -0.046,0.18328 m 0,0 -0.036,0.18534 m 0,0 -0.028,0.18695 m 0,0 -0.018,0.1881 m 0,0 -0.011,0.18876 m 7e-4,-2e-5 -7e-4,0.0786 m 0,-2e-5 v 11.33858 m 0,0 v 0.1889 m 0,0 0.014,0.18842 m 0,0 0.024,0.18749 m 0,0 0.033,0.18607 m 0,0 0.043,0.18419 m 0,0 0.051,0.18186 m -4e-4,0 0.061,0.17906 m -5e-4,0 0.069,0.17583 m -10e-5,0 0.078,0.17215 m 0,0 0.086,0.16803 m -2e-4,0 0.095,0.16351 m 2e-4,0 0.1024,0.15857 m 5e-4,0 0.1105,0.15324 m 0,0 0.1181,0.14752 m 0,0 0.1253,0.14144 m 0,0 0.1321,0.13498 m 0,0 0.1389,0.12823 m 0,0 0.145,0.12112 m 0,0 0.1509,0.11372 m 0,1e-5 0.1564,0.10602 m 0,-3e-5 0.1615,0.0981 m 0,-7e-5 0.1663,0.0899 m 0,-5e-5 0.1704,0.0815 m 0,-2e-5 0.1743,0.0728 m 0,-5e-5 0.1778,0.0641 m 0,-2e-5 0.1808,0.055 m 0,0 0.1833,0.046 m 0,0 0.1853,0.0368 m 0,0 0.187,0.0274 m 0,1.1e-4 0.188,0.018 m 0,2.2e-4 0.1888,0.009 m -3e-4,2.5e-4 0.079,8.2e-4 m -3e-4,0 h 7.5589996 m 0,0 v 37.79527 m 0,0 H 4.3159334 m 0,0 -0.1889,0.004 m 0,4.2e-4 -0.1885,0.0142 m 0,0 -0.1874,0.0236 m 0,0 -0.1861,0.0329 m 0,1e-4 -0.1841,0.0421 m 0,0 -0.1819,0.0513 m 0,-3e-5 -0.1791,0.0604 m 0,-7e-5 -0.1758,0.0692 m 0,3e-5 -0.1721,0.0779 m 0,6e-5 -0.1681,0.0864 m 0,0 -0.1636,0.0947 m 0,3e-5 -0.1585,0.10272 m 0,5e-5 -0.1533,0.11056 m 0,0 -0.1475,0.11808 m 0,0 -0.1414,0.1253 m 0,0 -0.1349,0.13221 m 0,0 -0.1283,0.1388 m 0,0 -0.1211,0.14503 m 0,0 -0.1137,0.1509 m -5e-4,0 -0.1056,0.15641 m -4e-4,0 -0.098,0.1615 m -2e-4,0 -0.09,0.16621 m -7e-4,0 -0.081,0.17048 m -8e-4,0 -0.072,0.17435 m -5e-4,0 -0.064,0.17777 m 4e-4,0 -0.055,0.18075 m 0,0 -0.046,0.18328 m -0.001,0 -0.036,0.18535 m 0,0 -0.028,0.18695 m 0,0 -0.018,0.18809 m 0,0 -0.011,0.18875 m 7e-4,-10e-6 -7e-4,0.0786 m 0,-10e-6 v 11.33858 m 0,0 v 0.18889 m 0.011,0 0.014,0.18843 m 0,0 0.024,0.18748 m 0,0 0.033,0.18607 m -0.001,0 0.043,0.1842 m 0,0 0.051,0.18186 m -3e-4,0 0.061,0.17906 m -5e-4,0 0.069,0.17582 m -10e-5,0 0.078,0.17216 m 0,0 0.086,0.16803 m -2e-4,0 0.095,0.16351 m 2e-4,0 0.1024,0.15857 m 4e-4,0 0.1105,0.15324 m 0,0 0.1181,0.14752 m 0,0 0.1254,0.14142 m 0,0 0.1321,0.135 m 0,0 0.1389,0.12822 m 0,0 0.145,0.12113 m 0,0 0.1509,0.11371 m 0,10e-6 0.1564,0.10603 m 0,-4e-5 0.1615,0.0981 m 0,-7e-5 0.1662,0.0899 m 0,-5e-5 0.1705,0.0815 m 0,-2e-5 0.1743,0.0729 m 0,4e-5 0.1778,0.064 m 0,9e-5 0.1808,0.055 m 0,0 0.1833,0.046 m 0,0 0.1852,0.0368 m 0,0 0.187,0.0274 m 0,1.1e-4 0.1881,0.018 m 0,2.1e-4 0.1888,0.009 m -3e-4,2.6e-4 0.079,8.1e-4 m -3e-4,0 h 7.5589996 m 0,0 v 37.79529 m 0,0 H 4.3184334 m 0,0 -0.1889,0.004 m 0,4.3e-4 -0.1885,0.0142 m 0,0 -0.1874,0.0236 m 0,0 -0.1862,0.0328 m 0,1.1e-4 -0.1841,0.0421 m 0,0 -0.1818,0.0513 m 0,-3e-5 -0.1791,0.0604 m 0,-5e-5 -0.1758,0.0692 m 0,3e-5 -0.1722,0.0779 m 0,7e-5 -0.1681,0.0864 m 0,0 -0.1635,0.0947 m 0,2e-5 -0.1585,0.10272 m 0,4e-5 -0.1533,0.11056 m 0,0 -0.1475,0.11808 m 0,0 -0.1414,0.1253 m 0,0 -0.135,0.13223 m 0,0 -0.1282,0.13879 m 0,0 -0.1212,0.14503 m 0,0 -0.1137,0.15091 m -4e-4,0 -0.1056,0.1564 m -4e-4,0 -0.098,0.16151 m -2e-4,0 -0.09,0.16619 m -6e-4,0 -0.081,0.1705 m -7e-4,0 -0.073,0.17435 m -4e-4,0 -0.064,0.17777 m 3e-4,0 -0.055,0.18074 m 0,0 -0.046,0.18328 m 0,0 -0.036,0.18535 m 0,0 -0.028,0.18695 m 0,0 -0.018,0.18809 m 0,0 -0.011,0.18876 m 8e-4,-2e-5 -8e-4,0.0786 m 0,-2e-5 v 11.3386 m 0,0 v 0.1889 m 0.011,0 0.014,0.1884 m 0,0 0.023,0.1875 m 0,0 0.033,0.1861 m 0,0 0.043,0.1842 m 0,0 0.051,0.1818 m -4e-4,0 0.061,0.1791 m -5e-4,0 0.069,0.1758 m -10e-5,0 0.078,0.1722 m 0,0 0.086,0.168 m -2e-4,0 0.095,0.1635 m 2e-4,0 0.1024,0.1586 m 5e-4,0 0.1105,0.1532 m 0,0 0.1181,0.1475 m 0,0 0.1253,0.1415 m 0,0 0.1321,0.135 m 0,0 0.1389,0.1282 m 0,0 0.145,0.1211 m 0,0 0.1509,0.1137 m 0,0 0.1564,0.106 m 0,0 0.1615,0.098 m 0,-10e-5 0.1663,0.09 m 0,0 0.1704,0.082 m 0,0 0.1743,0.073 m 0,-1e-4 0.1778,0.064 m 0,0 0.1808,0.055 m 0,0 0.1833,0.046 m 0,0 0.1853,0.037 m 0,0 0.187,0.027 m 0,10e-5 0.188,0.018 m 0,2e-4 0.1888,0.01 m -3e-4,3e-4 0.079,8e-4 m -3e-4,0 h 7.5589996 m 0,0 v 37.7953 m 0,0 H 4.3210334 m 0,0 -0.1889,0 m 0,4e-4 -0.1885,0.014 m 0,0 -0.1874,0.024 m 0,0 -0.1861,0.033 m 0,10e-5 -0.1841,0.042 m 0,0 -0.1819,0.051 m 0,0 -0.1791,0.06 m 0,-10e-5 -0.1758,0.069 m 0,0 -0.1721,0.078 m 0,10e-5 -0.1681,0.086 m 0,0 -0.1636,0.095 m 0,0 -0.1585,0.1027 m 0,10e-5 -0.1533,0.1105 m 0,0 -0.1475,0.1181 m 0,0 -0.1414,0.1253 m 0,0 -0.1349,0.1322 m 0,0 -0.1283,0.1388 m 0,0 -0.1211,0.1451 m 0,0 -0.1137,0.1509 m -5e-4,0 -0.1056,0.1564 m -4e-4,0 -0.098,0.1615 m -2e-4,0 -0.09,0.1662 m -7e-4,0 -0.081,0.1705 m -8e-4,0 -0.072,0.1743 m -5e-4,0 -0.064,0.1778 m 4e-4,0 -0.055,0.1807 m 0,0 -0.046,0.1833 m 0,0 -0.036,0.1854 m 0,0 -0.028,0.1869 m 0,0 -0.018,0.1881 m 0,0 -0.011,0.1888 m 8e-4,-10e-5 -8e-4,0.079 m 0,0 v 11.3386 m 0,0 v 0.1889 m 0.011,0 0.014,0.1884 m 0,0 0.023,0.1875 m 0,0 0.033,0.1861 m 0,0 0.043,0.1842 m 0,0 0.051,0.1818 m -3e-4,0 0.061,0.1791 m -6e-4,0 0.069,0.1758 m -10e-5,0 0.078,0.1722 m 0,0 0.086,0.168 m -2e-4,0 0.095,0.1635 m 2e-4,0 0.1024,0.1586 m 4e-4,0 0.1105,0.1532 m 0,0 0.1181,0.1475 m 0,0 0.1253,0.1415 m 0,0 0.1322,0.135 m 0,0 0.1389,0.1282 m 0,0 0.1449,0.1211 m 0,0 0.151,0.1137 m 0,0 0.1563,0.1061 m 0,-10e-5 0.1615,0.098 m 0,0 0.1663,0.09 m 0,-10e-5 0.1705,0.082 m 0,0 0.1743,0.073 m 0,-10e-5 0.1778,0.064 m 0,0 0.1808,0.055 m 0,0 0.1832,0.046 m 0,0 0.1853,0.037 m 0,0 0.187,0.027 m 0,10e-5 0.188,0.018 m 0,2e-4 0.1888,0.01 m -3e-4,3e-4 0.079,8e-4 m -4e-4,0 h 7.5590996 m 0,0 v 37.7953 m 0,0 H 4.3242334 m 0,0 -0.1889,0 m 0,4e-4 -0.1884,0.014 m 0,0 -0.1875,0.024 m 0,0 -0.1861,0.033 m 0,10e-5 -0.1841,0.042 m 0,0 -0.1819,0.051 m 0,-10e-5 -0.1791,0.06 m 0,0 -0.1757,0.069 m 0,0 -0.1722,0.078 m 0,10e-5 -0.1681,0.086 m 0,0 -0.1635,0.095 m 0,0 -0.1585,0.1027 m 0,10e-5 -0.1533,0.1105 m 0,0 -0.1475,0.1181 m 0,0 -0.1415,0.1253 m 0,0 -0.1349,0.1322 m 0,0 -0.1282,0.1388 m 0,0 -0.1212,0.1451 m 0,0 -0.1137,0.1509 m -4e-4,0 -0.1056,0.1564 m -5e-4,0 -0.098,0.1615 m -2e-4,0 -0.09,0.1662 m -6e-4,0 -0.081,0.1705 m -8e-4,0 -0.073,0.1743 m -4e-4,0 -0.064,0.1778 m 3e-4,0 -0.056,0.1807 m 0,0 -0.046,0.1833 m 0,0 -0.036,0.1854 m 0,0 -0.028,0.1869 m 0,0 -0.018,0.1881 m 0,0 -0.011,0.1888 m 7e-4,-10e-5 -7e-4,0.079 m 0,0 v 11.3386 m 0,0 v 0.1889 m 0,0 0.014,0.1884 m 0,0 0.023,0.1875 m 0,0 0.033,0.1861 m 0,0 0.043,0.1842 m 0,0 0.051,0.1818 m -3e-4,0 0.061,0.1791 m -6e-4,0 0.069,0.1758 m -10e-5,0 0.078,0.1722 m 0,0 0.086,0.168 m -2e-4,0 0.095,0.1635 m 2e-4,0 0.1024,0.1586 m 4e-4,0 0.1105,0.1532 m 0,0 0.1181,0.1475 m 0,0 0.1253,0.1415 m 0,0 0.1322,0.135 m 0,0 0.1389,0.1282 m 0,0 0.1449,0.1211 m 0,0 0.151,0.1137 m 0,0 0.1563,0.1061 m 0,0 0.1615,0.098 m 0,10e-5 0.1663,0.09 m 0,-10e-5 0.1705,0.082 m 0,0 0.1743,0.073 m 0,10e-5 0.1778,0.064 m 0,0 0.1808,0.055 m 0,0 0.1832,0.046 m 0,0 0.1853,0.037 m 0,0 0.187,0.027 m 0,0 0.188,0.018 m 0,1e-4 0.1888,0.01 m -3e-4,3e-4 0.079,8e-4 m -4e-4,0 h 7.5590996 m 0,0 H 125.25943 m -0.011,0 h 7.5591 m 0,0 0.1889,-0 m 0,-4e-4 0.1885,-0.014 m 0,10e-5 0.1874,-0.024 m 0,0 0.1861,-0.033 m 0,-10e-5 0.1842,-0.042 m 0,0 0.1818,-0.051 m 0,0 0.1791,-0.06 m 0,10e-5 0.1759,-0.069 m 0,0 0.172,-0.078 m 0,-10e-5 0.1681,-0.086 m 0,0 0.1635,-0.095 m 0,0 0.1585,-0.1027 m 0,-1e-4 0.1533,-0.1105 m 0,0 0.1475,-0.1181 m 0,0 0.1415,-0.1253 m 0,0 0.1349,-0.1322 m 0,0 0.1282,-0.1388 m 0,0 0.1212,-0.1451 m 0,0 0.1137,-0.1509 m 4e-4,0 0.1056,-0.1564 m 5e-4,0 0.098,-0.1615 m 2e-4,0 0.09,-0.1662 m 7e-4,0 0.081,-0.1705 m 8e-4,0 0.072,-0.1743 m 4e-4,0 0.064,-0.1778 m -3e-4,0 0.055,-0.1807 m 0,0 0.046,-0.1833 m 0,0 0.036,-0.1854 m 0,0 0.028,-0.1869 m 0,0 0.018,-0.1881 m 0,0 0.011,-0.1887 m -7e-4,0 7e-4,-0.079 m 0,0 v -11.3386 m 0,0 v -0.1889 m -0.011,0 -0.014,-0.1884 m 0,0 -0.024,-0.1875 m 0,0 -0.033,-0.1861 m 0,0 -0.042,-0.1842 m 0,0 -0.051,-0.1818 m 4e-4,0 -0.061,-0.1791 m 5e-4,0 -0.069,-0.1758 m 1e-4,0 -0.078,-0.1721 m 0,0 -0.086,-0.1681 m 2e-4,0 -0.095,-0.1635 m -2e-4,0 -0.1024,-0.1586 m -5e-4,0 -0.1105,-0.1532 m 0,0 -0.118,-0.1475 m 0,0 -0.1254,-0.1415 m 0,0 -0.1321,-0.135 m 0,0 -0.1389,-0.1282 m 0,0 -0.145,-0.1211 m 0,0 -0.1509,-0.1137 m 0,0 -0.1564,-0.106 m 0,0 -0.1615,-0.098 m 0,10e-5 -0.1662,-0.09 m 0,0 -0.1705,-0.082 m 0,0 -0.1743,-0.073 m 0,0 -0.1778,-0.064 m 0,-10e-5 -0.1807,-0.055 m 0,0 -0.1834,-0.046 m 0,0 -0.1853,-0.037 m 0,0 -0.187,-0.027 m 0,0 -0.188,-0.018 m 0,-10e-5 -0.1888,-0.01 m 3e-4,-3e-4 -0.079,-8e-4 m 3e-4,0 h -7.559 m 0,0 v -37.7952 m 0,0 h 7.559 m 0,0 0.1889,-0 m 0,-5e-4 0.1885,-0.014 m 0,0 0.1874,-0.024 m 0,0 0.1861,-0.033 m 0,-10e-5 0.1842,-0.042 m 0,0 0.1818,-0.051 m 0,10e-5 0.1791,-0.06 m 0,0 0.1759,-0.069 m 0,0 0.172,-0.078 m 0,-1e-4 0.1682,-0.086 m 0,0 0.1635,-0.095 m 0,0 0.1585,-0.1027 m 0,-10e-5 0.1533,-0.1105 m 0,0 0.1475,-0.1181 m 0,0 0.1414,-0.1253 m 0,0 0.135,-0.1322 m 0,0 0.1282,-0.1388 m 0,0 0.1211,-0.1451 m 0,0 0.1137,-0.1509 m 5e-4,0 0.1056,-0.1564 m 4e-4,0 0.098,-0.1615 m 2e-4,0 0.09,-0.1662 m 7e-4,0 0.081,-0.1705 m 7e-4,0 0.072,-0.1743 m 5e-4,0 0.064,-0.1778 m -4e-4,0 0.056,-0.1807 m 0,0 0.046,-0.1833 m 0.001,0 0.036,-0.1854 m 0,0 0.028,-0.1869 m 0,0 0.018,-0.1881 m 0,0 0.011,-0.1888 m -7e-4,10e-5 7e-4,-0.079 m 0,0 v -11.3386 m 0,0 v -0.1889 m 0,0 -0.014,-0.1884 m 0,0 -0.024,-0.1875 m 0,0 -0.033,-0.1861 m 0,0 -0.042,-0.1842 m -10e-4,0 -0.051,-0.1818 m 3e-4,0 -0.061,-0.1791 m 5e-4,0 -0.069,-0.1758 m 1e-4,0 -0.078,-0.1722 m 0,0 -0.086,-0.168 m 2e-4,0 -0.095,-0.1635 m -2e-4,0 -0.1024,-0.1586 m -4e-4,0 -0.1105,-0.1532 m 0,0 -0.1181,-0.1475 m 0,0 -0.1253,-0.1415 m 0,0 -0.1322,-0.135 m 0,0 -0.1389,-0.1282 m 0,0 -0.1449,-0.1211 m 0,0 -0.151,-0.1137 m 0,0 -0.1564,-0.1061 m 0,10e-5 -0.1614,-0.098 m 0,0 -0.1662,-0.09 m 0,10e-5 -0.1706,-0.082 m 0,0 -0.1743,-0.073 m 0,0 -0.1778,-0.064 m 0,-10e-5 -0.1807,-0.055 m 0,0 -0.1834,-0.046 m 0,0 -0.1852,-0.037 m 0,0 -0.187,-0.027 m 0,-10e-5 -0.1881,-0.018 m 0,-10e-5 -0.1888,-0.01 m 3e-4,-3e-4 -0.079,-8e-4 m 3e-4,0 h -7.559 m 0,0 v -37.7953 m 0,0 h 7.559 m 0,0 0.1889,-0 m 0,-4e-4 0.1885,-0.014 m 0,0 0.1874,-0.024 m 0,0 0.1862,-0.033 m 0,-1e-4 0.1842,-0.042 m 0,0 0.1817,-0.051 m 0,0 0.1791,-0.06 m 0,10e-5 0.1759,-0.069 m 0,0 0.1721,-0.078 m 0,10e-5 0.1681,-0.086 m 0,0 0.1635,-0.095 m 0,-10e-5 0.1585,-0.1027 m 0,0 0.1533,-0.1106 m 0,0 0.1475,-0.1181 m 0,0 0.1415,-0.1253 m 0,0 0.1349,-0.1322 m 0,0 0.1282,-0.1388 m 0,0 0.1212,-0.145 m 0,0 0.1137,-0.1509 m 4e-4,0 0.1056,-0.1564 m 4e-4,0 0.098,-0.1615 m 2e-4,0 0.09,-0.1662 m 6e-4,0 0.081,-0.1705 m 7e-4,0 0.073,-0.1744 m 4e-4,0 0.064,-0.1777 m -3e-4,0 0.055,-0.1808 m 0,0 0.046,-0.1833 m 0,0 0.036,-0.1853 m 0,0 0.028,-0.187 m 0,0 0.018,-0.188 m 0,0 0.011,-0.1888 m -7e-4,0 7e-4,-0.079 m 0,0 v -11.33856 m 0,0 v -0.1889 m 0,0 -0.014,-0.18843 m 0,0 -0.023,-0.18747 m 0,0 -0.033,-0.18607 m 0,0 -0.042,-0.18421 m 0,0 -0.051,-0.18185 m 4e-4,0 -0.061,-0.17906 m 5e-4,0 -0.069,-0.17582 m 1e-4,0 -0.078,-0.17216 m 0,0 -0.086,-0.16803 m 2e-4,0 -0.095,-0.16351 m -2e-4,0 -0.1024,-0.15857 m -5e-4,0 -0.1105,-0.15324 m 0,0 -0.118,-0.14752 m 0,0 -0.1254,-0.14143 m 0,0 -0.1321,-0.135 m 0,0 -0.1389,-0.12821 m 0,0 -0.145,-0.12112 m 0,0 -0.1509,-0.11373 m 0,-10e-6 -0.1564,-0.10603 m 0,-6e-5 -0.1615,-0.098 m 0,-3e-5 -0.1662,-0.0899 m 0,4e-5 -0.1705,-0.0815 m 0,2e-5 -0.1743,-0.0729 m 0,-5e-5 -0.1778,-0.064 m 0,-8e-5 -0.1807,-0.055 m 0,0 -0.1834,-0.046 m 0,0 -0.1853,-0.0368 m 0,0 -0.187,-0.0274 m 0,0 -0.188,-0.0181 m 0,-1.1e-4 -0.1888,-0.009 m 3e-4,-2.6e-4 -0.079,-8.1e-4 m 3e-4,0 h -7.559 m 0,0 v -37.79555 m 0,0 h 7.559 m 0,0 0.1889,-0.004 m 0,-4.3e-4 0.1885,-0.0142 m 0,0 0.1874,-0.0236 m 0,0 0.1861,-0.0328 m 0,-1.1e-4 0.1842,-0.0421 m 0,0 0.1818,-0.0513 m 0,4e-5 0.1791,-0.0604 m 0,6e-5 0.1759,-0.0692 m 0,-2e-5 0.172,-0.0779 m 0,-6e-5 0.1682,-0.0864 m 0,0 0.1635,-0.0947 m 0,-2e-5 0.1585,-0.10272 m 0,-5e-5 0.1533,-0.11056 m 0,0 0.1475,-0.11808 m 0,0 0.1414,-0.1253 m 0,0 0.135,-0.13221 m 0,0 0.1282,-0.13881 m 0,0 0.1211,-0.14503 m 0,0 0.1137,-0.1509 m 5e-4,0 0.1056,-0.15641 m 4e-4,0 0.098,-0.1615 m 2e-4,0 0.09,-0.1662 m 7e-4,0 0.081,-0.1705 m 7e-4,0 0.072,-0.17434 m 5e-4,0 0.064,-0.17777 m -4e-4,0 0.055,-0.18075 m 0,0 0.046,-0.18327 m 10e-4,0 0.036,-0.18536 m 0,0 0.028,-0.18694 m 0,0 0.018,-0.1881 m 0,0 0.011,-0.18876 m -7e-4,3e-5 7e-4,-0.0786 m 0,2e-5 v -11.33858 m 0,0 v -0.18889 m 0,0 -0.014,-0.18843 m 0,0 -0.024,-0.18749 m 0,0 -0.033,-0.18607 m 0,0 -0.042,-0.18419 m 0,0 -0.051,-0.18186 m 4e-4,0 -0.061,-0.17907 m 5e-4,0 -0.069,-0.17582 m 1e-4,0 -0.078,-0.17215 m 0,0 -0.086,-0.16804 m 2e-4,0 -0.095,-0.1635 m -2e-4,0 -0.1024,-0.15857 m -5e-4,0 -0.1105,-0.15324 m 0,0 -0.118,-0.14753 m 0,0 -0.1254,-0.14143 m 0,0 -0.1321,-0.13499 m 0,0 -0.1389,-0.12822 m 0,0 -0.145,-0.12112 m 0,0 -0.1509,-0.11372 m 0,0 -0.1564,-0.10603 m 0,4e-5 -0.1615,-0.0981 m 0,7e-5 -0.1662,-0.0899 m 0,5e-5 -0.1705,-0.0815 m 0,2e-5 -0.1743,-0.0728 m 0,-4e-5 -0.1778,-0.064 m 0,-10e-5 -0.1807,-0.055 m 0,0 -0.1834,-0.046 m 0,0 -0.1853,-0.0368 m 0,0 -0.187,-0.0274 m 0,0 -0.188,-0.0181 m 0,-10e-5 -0.1888,-0.009 m 3e-4,-2.5e-4 -0.079,-8.1e-4 m 3e-4,0 h -7.559 m 0,0 v -37.79528 m 0,0 h 7.559 m 0,0 0.1889,-0.004 m 0,-4.2e-4 0.1885,-0.0142 m 0,0 0.1874,-0.0236 m 0,0 0.1861,-0.0329 m 0,-1e-4 0.1842,-0.0421 m 0,0 0.1818,-0.0513 m 0,4e-5 0.1791,-0.0604 m 0,5e-5 0.1759,-0.0692 m 0,-3e-5 0.172,-0.0779 m 0,-5e-5 0.1682,-0.0864 m 0,0 0.1635,-0.0947 m 0,-3e-5 0.1585,-0.10272 m 0,-4e-5 0.1533,-0.11056 m 0,0 0.1475,-0.11808 m 0,0 0.1414,-0.1253 m 0,0 0.135,-0.13222 m 0,0 0.1282,-0.1388 m 0,0 0.1211,-0.14503 m 0,0 0.1137,-0.15091 m 5e-4,0 0.1056,-0.15639 m 4e-4,0 0.098,-0.16151 m 2e-4,0 0.09,-0.16621 m 7e-4,0 0.081,-0.17048 m 7e-4,0 0.072,-0.17435 m 5e-4,0 0.064,-0.17778 m -4e-4,0 0.055,-0.18075 m 0,0 0.046,-0.18327 m 0,0 0.036,-0.18534 m 0,0 0.028,-0.18696 m 0,0 0.018,-0.1881 m 0,0 0.011,-0.18875 m -8e-4,2e-5 8e-4,-0.0786 m 0,2e-5 v -11.33858 m 0,0 v -0.1889 m 0,0 -0.014,-0.18843 m 0,0 -0.024,-0.18749 m 0,0 -0.033,-0.18606 m 0,0 -0.042,-0.1842 m 0,0 -0.051,-0.18185 m 3e-4,0 -0.061,-0.17906 m 6e-4,0 -0.069,-0.17583 m 1e-4,0 -0.078,-0.17215 m 0,0 -0.086,-0.16803 m 2e-4,0 -0.095,-0.16351 m -2e-4,0 -0.1024,-0.15857 m -4e-4,0 -0.1105,-0.15324 m 0,0 -0.1181,-0.14752 m 0,0 -0.1253,-0.14144 m 0,0 -0.1322,-0.13499 m 0,0 -0.1389,-0.12822 m 0,0 -0.1449,-0.12112 m 0,0 -0.1509,-0.11372 m 0,-10e-6 -0.1564,-0.10603 m 0,3e-5 -0.1615,-0.0981 m 0,8e-5 -0.1662,-0.0899 m 0,5e-5 -0.1706,-0.0815 m 0,2e-5 -0.1743,-0.0729 m 0,-5e-5 -0.1778,-0.064 m 0,-8e-5 -0.1807,-0.055 m 0,0 -0.1833,-0.046 m 0,0 -0.1853,-0.0368 m 0,0 -0.187,-0.0274 m 0,-1.1e-4 -0.188,-0.018 m 0,-1.1e-4 -0.1888,-0.009 m 3e-4,-2.5e-4 -0.079,-8.2e-4 m 4e-4,0 h -7.5591 m 0,0 v -37.79528 m 0,0 h 7.5591 m 0,0 0.1889,-0.004 m 0,-4.3e-4 0.1885,-0.0142 m 0,0 0.1874,-0.0236 m 0,0 0.1861,-0.0328 m 0,-1.1e-4 0.1842,-0.0421 m 0,0 0.1818,-0.0513 m 0,3e-5 0.1791,-0.0604 m 0,6e-5 0.1759,-0.0692 m 0,7e-5 0.172,-0.078 m 0,4e-5 0.1681,-0.0864 m 0,0 0.1635,-0.0947 m 0,-3e-5 0.1585,-0.10272 m 0,-4e-5 0.1533,-0.11056 m 0,0 0.1475,-0.11808 m 0,0 0.1415,-0.12531 m 0,0 0.1349,-0.13221 m 0,0 0.1282,-0.13879 m 0,0 0.1212,-0.14504 m 0,0 0.1137,-0.1509 m 4e-4,0 0.1056,-0.1564 m 5e-4,0 0.098,-0.16151 m 2e-4,0 0.09,-0.16621 m 7e-4,0 0.081,-0.17048 m 8e-4,0 0.072,-0.17435 m 4e-4,0 0.064,-0.17777 m -3e-4,0 0.055,-0.18075 m 0,0 0.046,-0.18328 m 0,0 0.036,-0.18535 m 0,0 0.028,-0.18695 m 0,0 0.018,-0.18809 m 0,0 0.011,-0.18875 m -7e-4,2e-5 7e-4,-0.0786 m 0,2e-5 v -11.3386 m -0.027,0 v -0.18889 m 0,0 -0.014,-0.18842 m 0,0 -0.024,-0.18749 m 0,0 -0.033,-0.18606 m 0,0 -0.042,-0.1842 m 0,0 -0.051,-0.18185 m 4e-4,0 -0.061,-0.17907 m 5e-4,0 -0.069,-0.17582 m 1e-4,0 -0.078,-0.17215 m 0,0 -0.086,-0.16805 m 2e-4,0 -0.095,-0.1635 m -2e-4,0 -0.1024,-0.15858 m -5e-4,0 -0.1105,-0.15323 m 0,0 -0.118,-0.14752 m 0,0 -0.1254,-0.14143 m 0,0 -0.1321,-0.135 m 0,0 -0.1389,-0.12821 m 0,0 -0.145,-0.12112 m 0,0 -0.1509,-0.11373 m 0,-10e-6 -0.1564,-0.10603 m 0,-6e-5 -0.1615,-0.098 m 0,-3e-5 -0.1662,-0.0899 m 0,4e-5 -0.1705,-0.0815 m 0,2e-5 -0.1743,-0.0729 m 0,-5e-5 -0.1778,-0.064 m 0,-8e-5 -0.1807,-0.055 m 0,0 -0.1834,-0.046 m 0,0 -0.1853,-0.0368 m 0,0 -0.187,-0.0274 m 0,-10e-5 -0.188,-0.018 m 0,-2.1e-4 -0.1888,-0.009 m 3e-4,-2.5e-4 -0.079,-8.1e-4 m 3e-4,0 h -7.559 m -113.384497,3e-5 H 4.3162334 m 0,0 -0.1889,0.004 m 0,4.3e-4 -0.1885,0.0142 m 0,0 -0.1874,0.0236 m 0,-1.1e-4 -0.1861,0.033 m 0,0 -0.1841,0.0421 m 0,0 -0.1819,0.0513 m 0,-3e-5 -0.1791,0.0604 m 0,-6e-5 -0.1758,0.0692 m 0,2e-5 -0.1722,0.0779 m 0,6e-5 -0.1681,0.0864 m 0,10e-6 -0.1635,0.0947 m 0,3e-5 -0.1585,0.10272 m 0,5e-5 -0.1533,0.11055 m 0,0 -0.1475,0.11808 m 0,0 -0.1414,0.1253 m 0,0 -0.135,0.13222 m 0,0 -0.1282,0.1388 m 0,0 -0.1211,0.14503 m 0,0 -0.1138,0.1509 m -4e-4,0 -0.1056,0.15641 m -4e-4,0 -0.098,0.1615 m -3e-4,0 -0.09,0.1662 m -6e-4,0 -0.081,0.17049 m -7e-4,0 -0.072,0.17435 m -5e-4,0 -0.064,0.17777 m 4e-4,0 -0.055,0.18075 m 0,0 -0.046,0.18328 m -0.001,0 -0.036,0.18535 m 0,0 -0.028,0.18695 m 0,0 -0.018,0.18809 m 0,0 -0.011,0.18875 m 7e-4,-2e-5 -7e-4,0.0786 M 125.25803,819.62107 H 11.872233"
       inkscape:connector-curvature="0" />
    <path
       id="path2848"
       style="fill:none;stroke:#000000;stroke-width:1.06666672"
       d="m 45.902733,845.13611 -0.189,10e-4 m 0,0 -0.1889,0.004 m 0,-1.1e-4 -0.1888,0.007 m 0,-7.5e-4 -0.1888,0.0107 m 0,-4.3e-4 -0.1885,0.013 m 0,0 -0.1882,0.016 m 0,0 -0.1881,0.0189 m 0,0 -0.1877,0.0218 m 0,0 -0.1873,0.0246 m 0,0 -0.187,0.0275 m 0,0 -0.1866,0.0304 m 0,0 -0.186,0.0333 m 0,0 -0.1855,0.0362 m 0,0 -0.1848,0.0389 m 0,0 -0.1844,0.0418 m 0,-1.1e-4 -0.1835,0.0447 m 0,-1.1e-4 -0.183,0.0475 m 0,0 -0.1822,0.0502 m 0,1e-4 -0.1813,0.053 m 0,10e-6 -0.1806,0.0559 m 0,-9e-5 -0.1796,0.0587 m 0,-10e-6 -0.1788,0.0613 m 0,4e-5 -0.1777,0.0641 m 0,-3e-5 -0.1768,0.0669 m 0,-2e-5 -0.1757,0.0695 m 0,4e-5 -0.1746,0.0722 m 0,8e-5 -0.1735,0.0749 m 0,8e-5 -0.1723,0.0776 m 0,6e-5 -0.1711,0.0802 m 0,-1e-5 -0.1699,0.0829 m 0,-2e-5 -0.1685,0.0854 m 0,5e-5 -0.1672,0.088 m 0,8e-5 -0.1659,0.0906 m 0,6e-5 -0.1644,0.0931 m 0,-1e-5 -0.163,0.0957 m 0,0 -0.1615,0.0981 m 0,6e-5 -0.1599,0.10059 m 0,8e-5 -0.1584,0.10304 m 0,4e-5 -0.1568,0.10549 m 0,10e-6 -0.1552,0.10791 m 0,0 -0.1533,0.11027 m 0,0 -0.1518,0.11262 m 0,0 -0.15,0.11494 m 0,0 -0.1483,0.11724 m 0,0 -0.1463,0.1195 m 0,0 -0.1445,0.12175 m 0,0 -0.1427,0.12394 m 0,0 -0.1408,0.12613 m 0,0 -0.1387,0.12827 m 0,0 -0.1368,0.13041 m 0,0 -0.1347,0.13248 m 0,0 -0.1327,0.13455 m 0,0 -0.1307,0.13657 m 0,0 -0.1284,0.13857 m 0,0 -0.1264,0.14052 m 0,0 -0.1241,0.14246 m 0,0 -0.1221,0.14434 m 0,0 -0.1197,0.1462 m 0,0 -0.1174,0.14803 m 0,0 -0.1152,0.14982 m 0,0 -0.1128,0.15157 m 0,0 -0.1106,0.15329 m 0,0 -0.1081,0.15498 m -10e-5,0 -0.1056,0.15661 m 0,0 -0.1035,0.15823 m 5e-4,0 -0.1013,0.15979 m 2e-4,0 -0.098,0.16134 m -2e-4,0 -0.096,0.16282 m -6e-4,0 -0.093,0.16428 m -7e-4,0 -0.091,0.16571 m 0,0 -0.088,0.16707 m -1e-4,0 -0.085,0.16842 m -4e-4,0 -0.083,0.16971 m -4e-4,0 -0.08,0.17097 m -4e-4,0 -0.078,0.17219 m 6e-4,0 -0.076,0.17338 m 6e-4,0 -0.073,0.17449 m 6e-4,0 -0.07,0.17561 m 6e-4,0 -0.067,0.17665 m -3e-4,0 -0.064,0.17766 m -2e-4,0 -0.062,0.17864 m 0,0 -0.059,0.17956 m 2e-4,0 -0.057,0.18045 m 4e-4,0 -0.053,0.18129 m 0,0 -0.05,0.18208 m 0,0 -0.048,0.18285 m 0,0 -0.045,0.18355 m 0,0 -0.042,0.18423 m 0,0 -0.04,0.18486 m 0,0 -0.036,0.18543 m 0,0 -0.033,0.18597 m 0,0 -0.031,0.18646 m 0,0 -0.028,0.18693 m 0,0 -0.024,0.18731 m 0,0 -0.022,0.18768 m 0,0 -0.019,0.188 m 0,0 -0.016,0.18828 m 0,0 -0.014,0.1885 m 0,0 -0.011,0.18869 m 0,0 -0.011,0.18882 m -10e-4,0 v 0.18891 m -0.011,0 v 0.18897 m -6e-4,0 v 0.18898 m 0,0 v 0.18892 m 0,0 0.011,0.18886 m 0,0 0.011,0.18871 m 0,0 0.013,0.18853 m 0,0 0.016,0.18834 m 0,0 0.018,0.18805 m 0,0 0.021,0.18775 m 0,0 0.024,0.18741 m 0,0 0.027,0.18699 m 0,0 0.03,0.18656 m 0,0 0.033,0.18608 m 0,0 0.036,0.18555 m 0,0 0.038,0.18497 m 0,0 0.042,0.18436 m 0,0 0.045,0.1837 m 0,0 0.047,0.18299 m 0,0 0.05,0.18225 m 0,0 0.053,0.18145 m -4e-4,0 0.055,0.18062 m -2e-4,0 0.059,0.17975 m 0,0 0.061,0.17882 m 1e-4,0 0.064,0.17787 m 2e-4,0 0.066,0.17686 m 4e-4,0 0.069,0.17582 m 5e-4,0 0.071,0.17473 m 5e-4,0 0.075,0.1736 m 6e-4,0 0.077,0.17244 m 5e-4,0 0.08,0.17122 m 4e-4,0 0.082,0.16997 m 4e-4,0 0.085,0.16869 m 2e-4,0 0.088,0.16736 m 0,0 0.091,0.16597 m -3e-4,0 0.093,0.16458 m -5e-4,0 0.096,0.16312 m -8e-4,0 0.098,0.16164 m -10e-5,0 0.1002,0.16011 m 6e-4,0 0.1024,0.15855 m 0,0 0.1056,0.15695 m -5e-4,0 0.1078,0.15531 m 0,0 0.11,0.15364 m 0,0 0.1124,0.15192 m 0,0 0.1146,0.15018 m 0,0 0.1171,0.14839 m 0,0 0.1192,0.14659 m 0,0 0.1215,0.14472 m 0,0 0.1237,0.14284 m 0,0 0.126,0.14092 m 0,0 0.128,0.13896 m 0,0 0.1303,0.13698 m 0,0 0.1322,0.13497 m 0,0 0.1343,0.1329 m 0,0 0.1364,0.13083 m 0,0 0.1384,0.12872 m 0,0 0.1404,0.12657 m 0,0 0.1421,0.12439 m 0,0 0.1443,0.12219 m 0,0 0.146,0.11997 m 0,0 0.1478,0.11769 m 0,0 0.1496,0.11542 m 0,0 0.1514,0.11308 m 0,0 0.1531,0.11077 m 0,0 0.1549,0.10838 m 0,-4e-5 0.1564,0.10602 m 0,-4e-5 0.158,0.10357 m 0,2e-5 0.1597,0.10112 m 0,0 0.1612,0.0987 m 0,-5e-5 0.1627,0.0962 m 0,-4e-5 0.1641,0.0936 m 0,3e-5 0.1656,0.0911 m 0,5e-5 0.1669,0.0885 m 0,4e-5 0.1682,0.086 m 0,-2e-5 0.1696,0.0834 m 0,-2e-5 0.1709,0.0807 m 0,-5e-5 0.172,0.0782 m 0,-1.1e-4 0.1733,0.0755 m 0,-10e-5 0.1744,0.0729 m 0,-3e-5 0.1754,0.0701 m 0,0 0.1767,0.0674 m 0,10e-6 0.1775,0.0646 m 0,-1e-5 0.1785,0.062 m 0,-6e-5 0.1796,0.0592 m 0,-3e-5 0.1802,0.0564 m 0,-5e-5 0.1812,0.0537 m 0,-1.1e-4 0.1821,0.0509 m 0,0 0.1827,0.048 m 0,0 0.1835,0.0452 m 0,0 0.1842,0.0423 m 0,0 0.1848,0.0396 m 0,0 0.1854,0.0367 m 0,0 0.1859,0.0338 m 0,1.1e-4 0.1864,0.0309 m 0,0 0.1869,0.0282 m 0,-10e-5 0.1872,0.0253 m 0,0 0.1877,0.0223 m 0,1.1e-4 0.188,0.0194 m 0,1.1e-4 0.1883,0.0165 m 0,0 0.1884,0.0137 m 0,0 0.1886,0.0108 m 0,4.2e-4 0.1888,0.007 m 0,0 0.1889,0.005 m 0,0 0.189,0.002 m 0,-2e-4 0.1891,-8.7e-4 m 0,8.7e-4 0.1889,-0.004 m 0,0 0.1888,-0.006 m 0,-2.1e-4 0.1888,-0.01 m 0,0 0.1886,-0.0125 m 0,0 0.1882,-0.0154 m 0,-1.1e-4 0.1882,-0.0182 m 0,-1.1e-4 0.1877,-0.0211 m 0,-10e-5 0.1874,-0.024 m 0,0 0.1871,-0.027 m 0,0 0.1866,-0.0298 m 0,-1.1e-4 0.1861,-0.0326 m 0,-10e-5 0.1856,-0.0355 m 0,0 0.1851,-0.0384 m 0,10e-5 0.1844,-0.0413 m 0,0 0.1838,-0.044 m 0,0 0.183,-0.0469 m 0,0 0.1823,-0.0497 m 0,0 0.1816,-0.0525 m 0,-3e-5 0.1807,-0.0553 m 0,-5e-5 0.1798,-0.058 m 0,-4e-5 0.179,-0.0608 m 0,0 0.1779,-0.0636 m 0,-3e-5 0.177,-0.0662 m 0,-5e-5 0.176,-0.069 m 0,-2e-5 0.1748,-0.0717 m 0,-6e-5 0.1737,-0.0743 m 0,-7e-5 0.1725,-0.077 m 0,-5e-5 0.1713,-0.0797 m 0,10e-6 0.1702,-0.0824 m 0,10e-6 0.1688,-0.0849 m 0,-7e-5 0.1675,-0.0875 m 0,2e-5 0.1661,-0.0901 m 0,1e-5 0.1648,-0.0926 m 0,-5e-5 0.1632,-0.0951 m 0,-5e-5 0.1618,-0.0976 m 0,-10e-6 0.1603,-0.10016 m 0,7e-5 0.1587,-0.10262 m 0,-10e-6 0.157,-0.10496 m 0,-4e-5 0.1556,-0.10741 m 0,0 0.1538,-0.10981 m 0,0 0.1521,-0.11213 m 0,0 0.1504,-0.11448 m 0,0 0.1486,-0.11677 m 0,0 0.1466,-0.11905 m 0,0 0.145,-0.12128 m 0,0 0.143,-0.12351 m 0,0 0.1412,-0.12568 m 0,0 0.1392,-0.12784 m 0,0 0.1371,-0.12998 m 0,0 0.1352,-0.13206 m 0,0 0.1331,-0.13413 m 0,0 0.131,-0.13616 m 0,0 0.1289,-0.13816 m 0,0 0.1269,-0.14013 m 0,0 0.1246,-0.14206 m 0,0 0.1224,-0.14396 m 0,0 0.1202,-0.14584 m 0,0 0.1179,-0.14766 m 0,0 0.1156,-0.14945 m 0,0 0.1134,-0.15122 m 0,0 0.1109,-0.15295 m 0,0 0.1087,-0.15462 m -4e-4,0 0.1067,-0.15629 m -10e-5,0 0.1034,-0.15791 m 4e-4,0 0.1013,-0.15948 m -2e-4,0 0.099,-0.16102 m 2e-4,0 0.096,-0.16252 m 4e-4,0 0.094,-0.16399 m -3e-4,0 0.092,-0.16541 m -1e-4,0 0.089,-0.1668 m 10e-5,0 0.086,-0.16815 m 3e-4,0 0.083,-0.16945 m 5e-4,0 0.081,-0.17072 m 6e-4,0 0.078,-0.17195 m 6e-4,0 0.076,-0.17313 m -5e-4,0 0.074,-0.17428 m -6e-4,0 0.07,-0.17538 m 5e-4,0 0.067,-0.17644 m 3e-4,0 0.065,-0.17746 m 2e-4,0 0.062,-0.17844 m 10e-5,0 0.06,-0.17937 m -1e-4,0 0.056,-0.18028 m -3e-4,0 0.054,-0.18112 m 0,0 0.051,-0.18193 m 0,0 0.048,-0.18269 m 0,0 0.046,-0.18341 m 0,0 0.043,-0.1841 m 0,0 0.04,-0.18472 m 0,0 0.037,-0.18533 m 0,0 0.034,-0.18586 m 0,0 0.031,-0.18637 m 0,0 0.029,-0.18683 m 0,0 0.026,-0.18725 m 0,0 0.022,-0.18761 m 0,0 0.019,-0.18794 m 0,0 0.017,-0.18822 m 0,0 0.014,-0.18845 m 0,0 0.011,-0.18866 m 0,0 0.011,-0.1888 m 0,0 v -0.1889 m 0.011,0 v -0.18896 m 6e-4,0 -6e-4,-0.18897 m 6e-4,0 v -0.18894 m 0,0 -0.011,-0.18888 m 0.011,0 -0.011,-0.18873 m 0,0 -0.012,-0.18859 m -10e-4,0 -0.015,-0.18837 m 0,0 -0.018,-0.18812 m 0,0 -0.021,-0.18782 m 0,0 -0.023,-0.18748 m 0,0 -0.027,-0.18708 m 0,0 -0.03,-0.18665 m 0,0 -0.032,-0.18618 m 0,0 -0.035,-0.18565 m 0,0 -0.038,-0.1851 m 0,0 -0.04,-0.18449 m 0,0 -0.044,-0.18383 m 0,0 -0.047,-0.18314 m 0,0 -0.049,-0.18241 m 0,0 -0.052,-0.18161 m 5e-4,0 -0.055,-0.1808 m 3e-4,0 -0.058,-0.17992 m 10e-5,0 -0.061,-0.17902 m -10e-5,0 -0.063,-0.17807 m -2e-4,0 -0.066,-0.17707 m -3e-4,0 -0.068,-0.17603 m -4e-4,0 -0.072,-0.17496 m 6e-4,0 -0.075,-0.17383 m 6e-4,0 -0.077,-0.17267 m 7e-4,0 -0.08,-0.17148 m 6e-4,0 -0.082,-0.17023 m -3e-4,0 -0.084,-0.16895 m -2e-4,0 -0.088,-0.16763 m 0,0 -0.09,-0.16627 m 2e-4,0 -0.093,-0.16485 m 5e-4,0 -0.095,-0.16342 m -3e-4,0 -0.097,-0.16195 m 2e-4,0 -0.1003,-0.16042 m 5e-4,0 -0.1024,-0.15888 m -1e-4,0 -0.1045,-0.15727 m -2e-4,0 -0.1072,-0.15565 m 0,0 -0.1096,-0.15398 m 0,0 -0.1119,-0.15228 m 0,0 -0.1142,-0.15053 m 0,0 -0.1166,-0.14877 m 0,0 -0.1188,-0.14695 m 0,0 -0.1211,-0.1451 m 0,0 -0.1232,-0.14323 m 0,0 -0.1255,-0.14131 m 0,0 -0.1276,-0.13938 m 0,0 -0.1298,-0.13737 m 0,0 -0.1319,-0.13537 m 0,0 -0.1338,-0.13334 m 0,0 -0.136,-0.13125 m 0,0 -0.138,-0.12915 m 0,0 -0.1399,-0.12701 m 0,0 -0.1419,-0.12483 m 0,0 -0.1438,-0.12265 m 0,0 -0.1456,-0.12041 m 0,0 -0.1475,-0.11817 m 0,0 -0.1492,-0.11588 m 0,0 -0.151,-0.11357 m 0,0 -0.1529,-0.11123 m 0,0 -0.1544,-0.10886 m 0,-4e-5 -0.1561,-0.10645 m 0,10e-6 -0.1578,-0.10411 m 0,7e-5 -0.1593,-0.10165 m 0,6e-5 -0.1609,-0.0992 m 0,0 -0.1623,-0.0966 m 0,-2e-5 -0.1639,-0.0942 m 0,10e-6 -0.1653,-0.0916 m 0,-3e-5 -0.1666,-0.0891 m 0,-10e-6 -0.168,-0.0865 m 0,3e-5 -0.1693,-0.0839 m 0,1e-5 -0.1707,-0.0813 m 0,3e-5 -0.1718,-0.0787 m 0,9e-5 -0.173,-0.0761 m 0,9e-5 -0.1741,-0.0734 m 0,0 -0.1753,-0.0706 m 0,-5e-5 -0.1764,-0.0679 m 0,-6e-5 -0.1772,-0.0652 m 0,-3e-5 -0.1784,-0.0625 m 0,10e-6 -0.1793,-0.0597 m 0,-2e-5 -0.1802,-0.057 m 0,-2e-5 -0.1811,-0.0542 m 0,0 -0.1817,-0.0514 m 0,0 -0.1827,-0.0486 m 0,0 -0.1833,-0.0458 m 0,0 -0.1841,-0.043 m 0,0 -0.1847,-0.0401 m 0,-1e-4 -0.1852,-0.0372 m 0,0 -0.1859,-0.0344 m 0,0 -0.1862,-0.0316 m 0,0 -0.1868,-0.0287 m 0,0 -0.1873,-0.0258 m 0,0 -0.1875,-0.0229 m 0,0 -0.1879,-0.02 m 0,0 -0.1882,-0.0172 m 0,1e-4 -0.1885,-0.0143 m 0,0 -0.1886,-0.0113 m 0,0 -0.1888,-0.009 m 0,-1.1e-4 -0.1889,-0.005 m 0,-10e-4 -0.1889,-0.002 m -1e-4,-8.2e-4 -0.077,-2.5e-4 m -1e-4,6.61413 -0.189,0.003 m 0,-2.2e-4 -0.1887,0.01 m 0,-10e-5 -0.1883,0.0157 m 0,1e-4 -0.1877,0.022 m 0,0 -0.1869,0.0283 m 0,0 -0.1858,0.0345 m 0,0 -0.1845,0.0406 m 0,0 -0.1831,0.0467 m 0,10e-5 -0.1814,0.0528 m 0,-10e-6 -0.1796,0.0589 m 0,2e-5 -0.1775,0.0648 m 0,10e-6 -0.1753,0.0707 m 0,-5e-5 -0.1728,0.0765 m 0,-6e-5 -0.1701,0.0822 m 0,-10e-6 -0.1674,0.0878 m 0,4e-5 -0.1642,0.0933 m 0,10e-6 -0.1611,0.0988 m 0,-2e-5 -0.1578,0.1041 m 0,-2e-5 -0.1541,0.10928 m 0,0 -0.1504,0.11437 m 0,0 -0.1466,0.11931 m 0,0 -0.1425,0.12413 m 0,0 -0.1382,0.12881 m 0,0 -0.134,0.13334 m 0,0 -0.1293,0.13773 m 0,0 -0.1248,0.14197 m 0,0 -0.1199,0.14604 m 0,0 -0.1149,0.14996 m 0,0 -0.1099,0.15372 m -2e-4,0 -0.1046,0.15728 m -4e-4,0 -0.099,0.16069 m -4e-4,0 -0.094,0.16392 m -2e-4,0 -0.089,0.16695 m 3e-4,0 -0.083,0.16982 m -10e-5,0 -0.077,0.17249 m -3e-4,0 -0.072,0.17495 m -3e-4,0 -0.065,0.17725 m -3e-4,0 -0.06,0.17932 m -1e-4,0 -0.053,0.18121 m 0,0 -0.048,0.1829 m 0,0 -0.042,0.18439 m 0,0 -0.035,0.18565 m 0,0 -0.029,0.18672 m 0,0 -0.022,0.1876 m 0,0 -0.016,0.18824 m 0,0 -0.011,0.18869 m 0,0 v 0.18893 m 0,0 v 0.18895 m 0,0 0.011,0.18877 m 0,0 0.015,0.18837 m 0,0 0.021,0.18778 m 0,0 0.028,0.18695 m 0,0 0.034,0.18594 m 0,0 0.04,0.18473 m 0,0 0.046,0.18329 m 0,0 0.052,0.18164 m 3e-4,0 0.058,0.17982 m 7e-4,0 0.064,0.17777 m -4e-4,0 0.07,0.17555 m -4e-4,0 0.076,0.17311 m 5e-4,0 0.081,0.17049 m 10e-5,0 0.088,0.16768 m -5e-4,0 0.093,0.16469 m -2e-4,0 0.098,0.16151 m 0,0 0.1035,0.15815 m 0,0 0.1085,0.15461 m 0,0 0.1139,0.1509 m 0,0 0.1187,0.14703 m 0,0 0.1235,0.143 m 0,0 0.1282,0.13879 m 0,0 0.1328,0.13444 m 0,0 0.1372,0.12996 m 0,0 0.1414,0.12529 m 0,0 0.1456,0.12052 m 0,0 0.1495,0.11559 m 0,0 0.1532,0.11056 m 0,0 0.1568,0.10539 m 0,4e-5 0.1604,0.10006 m 0,2e-5 0.1635,0.0947 m 0,0 0.1666,0.0892 m 0,-1e-5 0.1695,0.0836 m 0,10e-6 0.1722,0.0779 m 0,5e-5 0.1746,0.0721 m 0,3e-5 0.1769,0.0662 m 0,-2e-5 0.1791,0.0604 m 0,-10e-6 0.181,0.0543 m 0,1.1e-4 0.1828,0.0482 m 0,1.1e-4 0.1842,0.0421 m 0,1.1e-4 0.1855,0.036 m 0,10e-5 0.1865,0.0298 m 0,0 0.1875,0.0236 m 0,0 0.1882,0.0173 m 0,0 0.1887,0.011 m 0,4.3e-4 0.1889,0.004 m 0,0 0.1889,-10e-4 m 0,-10e-4 0.1888,-0.007 m 0,-4.3e-4 0.1885,-0.0142 m 0,1.1e-4 0.1878,-0.0205 m 0,0 0.1871,-0.0267 m 0,-1e-4 0.186,-0.0329 m 0,0 0.1849,-0.0391 m 0,0 0.1836,-0.0452 m 0,0 0.1818,-0.0513 m 0,1e-5 0.18,-0.0574 m 0,6e-5 0.1781,-0.0634 m 0,3e-5 0.1758,-0.0692 m 0,4e-5 0.1734,-0.0751 m 0,0 0.1708,-0.0807 m 0,-8e-5 0.1681,-0.0864 m 0,-7e-5 0.165,-0.0919 m 0,-8e-5 0.162,-0.0974 m 0,0 0.1586,-0.10283 m 0,5e-5 0.155,-0.108 m 0,0 0.1514,-0.11312 m 0,0 0.1475,-0.11811 m 0,0 0.1435,-0.12294 m 0,0 0.1393,-0.12766 m 0,0 0.1351,-0.13223 m 0,0 0.1304,-0.13666 m 0,0 0.1259,-0.14093 m 0,0 0.1212,-0.14506 m 0,0 0.1161,-0.149 m 0,0 0.1113,-0.1528 m 4e-4,0 0.1056,-0.15642 m 8e-4,0 0.1003,-0.15986 m -1e-4,0 0.096,-0.16313 m -3e-4,0 0.09,-0.16622 m 3e-4,0 0.084,-0.16912 m -3e-4,0 0.079,-0.17184 m -10e-5,0 0.072,-0.17437 m 1e-4,0 0.067,-0.17669 m 10e-5,0 0.061,-0.17883 m -10e-5,0 0.056,-0.18077 m 0,0 0.049,-0.18249 m 0,0 0.043,-0.18404 m 0,0 0.036,-0.18535 m 0,0 0.031,-0.18649 m 0,0 0.025,-0.1874 m 0,0 0.018,-0.1881 m 0,0 0.012,-0.18859 m 0,0 0.011,-0.1889 m -0.011,0 -7e-4,-0.18896 m 7e-4,0 -0.011,-0.18884 m 0,0 -0.014,-0.18848 m 0,0 -0.019,-0.18795 m 0,0 -0.026,-0.18719 m 0,0 -0.032,-0.18621 m 0,0 -0.038,-0.18503 m 0,0 -0.045,-0.18366 m 0,0 -0.05,-0.18207 m -5e-4,0 -0.057,-0.18029 m 2e-4,0 -0.063,-0.1783 m 1e-4,0 -0.068,-0.17612 m 10e-5,0 -0.075,-0.17374 m 3e-4,0 -0.08,-0.17115 m -4e-4,0 -0.085,-0.1684 m 0,0 -0.092,-0.16545 m 8e-4,0 -0.097,-0.1623 m 5e-4,0 -0.1024,-0.159 m 2e-4,0 -0.1073,-0.1555 m 0,0 -0.1125,-0.15184 m 0,0 -0.1174,-0.14801 m 0,0 -0.1224,-0.14401 m 0,0 -0.1271,-0.13985 m 0,0 -0.1317,-0.13554 m 0,0 -0.1361,-0.13107 m 0,0 -0.1405,-0.12647 m 0,0 -0.1445,-0.12172 m 0,0 -0.1485,-0.11682 m 0,0 -0.1523,-0.11182 m 0,0 -0.156,-0.10667 m 0,2e-5 -0.1594,-0.10144 m 0,-2e-5 -0.1628,-0.096 m 0,-6e-5 -0.1658,-0.0906 m 0,0 -0.1688,-0.085 m 0,5e-5 -0.1715,-0.0794 m 0,8e-5 -0.1741,-0.0736 m 0,5e-5 -0.1764,-0.0677 m 0,-2e-5 -0.1786,-0.0618 m 0,-8e-5 -0.1806,-0.0558 m 0,0 -0.1823,-0.0498 m 0,0 -0.1837,-0.0436 m 0,0 -0.1853,-0.0376 m 0,1.1e-4 -0.1864,-0.0314 m 0,0 -0.1872,-0.0251 m 0,0 -0.188,-0.0189 m 0,1.1e-4 -0.1886,-0.0126 m 0,1.1e-4 -0.1888,-0.006 m 2e-4,-3e-4 -0.094,-7.7e-4"
       inkscape:connector-curvature="0" />
    <path
       id="path4044"
       style="fill:none;stroke:#000000;stroke-width:1.06666672"
       d="m 91.251733,845.13611 -0.1889,10e-4 m 0,0 -0.1889,0.004 m 0,-1.1e-4 -0.1889,0.007 m 0,-7.5e-4 -0.1887,0.0107 m 0,-4.3e-4 -0.1884,0.013 m 0,0 -0.1883,0.016 m 0,0 -0.1881,0.0189 m 0,0 -0.1877,0.0218 m 0,0 -0.1874,0.0246 m 0,0 -0.1869,0.0275 m 0,0 -0.1866,0.0304 m 0,0 -0.186,0.0333 m 0,0 -0.1855,0.0362 m 0,0 -0.1848,0.0389 m 0,0 -0.1843,0.0418 m 0,-1.1e-4 -0.1837,0.0447 m 0,-1.1e-4 -0.1829,0.0475 m 0,0 -0.1821,0.0502 m 0,1e-4 -0.1815,0.053 m 0,10e-6 -0.1805,0.0559 m 0,-9e-5 -0.1796,0.0587 m 0,-10e-6 -0.1788,0.0613 m 0,4e-5 -0.1778,0.0641 m 0,-3e-5 -0.1767,0.0669 m 0,-2e-5 -0.1757,0.0695 m 0,4e-5 -0.1746,0.0722 m 0,8e-5 -0.1735,0.0749 m 0,8e-5 -0.1723,0.0776 m 0,6e-5 -0.1711,0.0802 m 0,-1e-5 -0.1698,0.0829 m 0,-2e-5 -0.1686,0.0854 m 0,5e-5 -0.1672,0.088 m 0,8e-5 -0.1659,0.0906 m 0,6e-5 -0.1644,0.0931 m 0,-1e-5 -0.1629,0.0957 m 0,0 -0.1615,0.0981 m 0,6e-5 -0.16,0.10059 m 0,8e-5 -0.1584,0.10304 m 0,4e-5 -0.1567,0.10549 m 0,10e-6 -0.1552,0.10791 m 0,0 -0.1535,0.11027 m 0,0 -0.1517,0.11262 m 0,0 -0.15,0.11494 m 0,0 -0.1482,0.11724 m 0,0 -0.1464,0.1195 m 0,0 -0.1445,0.12175 m 0,0 -0.1427,0.12394 m 0,0 -0.1407,0.12613 m 0,0 -0.1388,0.12827 m 0,0 -0.1368,0.13041 m 0,0 -0.1347,0.13248 m 0,0 -0.1327,0.13455 m 0,0 -0.1306,0.13657 m 0,0 -0.1286,0.13857 m 0,0 -0.1263,0.14052 m 0,0 -0.1241,0.14246 m 0,0 -0.1221,0.14434 m 0,0 -0.1196,0.1462 m 0,0 -0.1175,0.14803 m 0,0 -0.1152,0.14982 m 0,0 -0.1128,0.15157 m 0,0 -0.1105,0.15329 m 0,0 -0.1082,0.15498 m -2e-4,0 -0.1056,0.15661 m 0,0 -0.1035,0.15823 m 7e-4,0 -0.1014,0.15979 m 10e-5,0 -0.098,0.16134 m -2e-4,0 -0.096,0.16282 m 6e-4,0 -0.094,0.16428 m 3e-4,0 -0.091,0.16571 m 0,0 -0.089,0.16707 m -1e-4,0 -0.085,0.16842 m -3e-4,0 -0.083,0.16971 m -4e-4,0 -0.08,0.17097 m -4e-4,0 -0.078,0.17219 m 5e-4,0 -0.076,0.17338 m 5e-4,0 -0.072,0.17449 m -5e-4,0 -0.069,0.17561 m -4e-4,0 -0.067,0.17665 m -3e-4,0 -0.064,0.17766 m -2e-4,0 -0.062,0.17864 m 0,0 -0.059,0.17956 m 3e-4,0 -0.057,0.18045 m 5e-4,0 -0.053,0.18129 m 0,0 -0.05,0.18208 m 0,0 -0.048,0.18285 m 0,0 -0.045,0.18355 m 0,0 -0.043,0.18423 m 0,0 -0.04,0.18486 m 0,0 -0.036,0.18543 m 0,0 -0.033,0.18597 m 0,0 -0.031,0.18646 m 0,0 -0.028,0.18693 m 0,0 -0.024,0.18731 m 0,0 -0.022,0.18768 m 0,0 -0.019,0.188 m 0,0 -0.016,0.18828 m 0,0 -0.014,0.1885 m 0,0 -0.011,0.18869 m 0,0 -0.011,0.18882 m 0,0 v 0.18891 m -0.011,0 v 0.18897 m -7e-4,0 v 0.18898 m 0,0 v 0.18892 m 0,0 0.011,0.18886 m 0,0 0.011,0.18871 m 0,0 0.013,0.18853 m 0,0 0.016,0.18834 m 0,0 0.018,0.18805 m 0,0 0.021,0.18775 m 0,0 0.024,0.18741 m 0,0 0.028,0.18699 m 0,0 0.03,0.18656 m 0,0 0.033,0.18608 m 0,0 0.036,0.18555 m 0,0 0.038,0.18497 m 0,0 0.042,0.18436 m 0,0 0.044,0.1837 m 0,0 0.047,0.18299 m 0,0 0.05,0.18225 m 0,0 0.053,0.18145 m -4e-4,0 0.055,0.18062 m -3e-4,0 0.059,0.17975 m 0,0 0.061,0.17882 m 1e-4,0 0.064,0.17787 m 2e-4,0 0.066,0.17686 m 4e-4,0 0.069,0.17582 m 4e-4,0 0.072,0.17473 m 4e-4,0 0.075,0.1736 m 5e-4,0 0.077,0.17244 m 6e-4,0 0.08,0.17122 m 4e-4,0 0.082,0.16997 m 4e-4,0 0.085,0.16869 m 1e-4,0 0.088,0.16736 m -1e-4,0 0.091,0.16597 m -2e-4,0 0.093,0.16458 m -4e-4,0 0.096,0.16312 m -9e-4,0 0.098,0.16164 m -3e-4,0 0.1003,0.16011 m 5e-4,0 0.1024,0.15855 m 2e-4,0 0.1056,0.15695 m -4e-4,0 0.1078,0.15531 m 0,0 0.1099,0.15364 m 0,0 0.1125,0.15192 m 0,0 0.1146,0.15018 m 0,0 0.117,0.14839 m 0,0 0.1193,0.14659 m 0,0 0.1215,0.14472 m 0,0 0.1237,0.14284 m 0,0 0.126,0.14092 m 0,0 0.128,0.13896 m 0,0 0.1302,0.13698 m 0,0 0.1323,0.13497 m 0,0 0.1343,0.1329 m 0,0 0.1364,0.13083 m 0,0 0.1384,0.12872 m 0,0 0.1402,0.12657 m 0,0 0.1423,0.12439 m 0,0 0.1441,0.12219 m 0,0 0.1461,0.11997 m 0,0 0.1478,0.11769 m 0,0 0.1497,0.11542 m 0,0 0.1514,0.11308 m 0,0 0.1531,0.11077 m 0,0 0.1548,0.10838 m 0,-4e-5 0.1564,0.10602 m 0,-4e-5 0.1581,0.10357 m 0,2e-5 0.1597,0.10112 m 0,0 0.1612,0.0987 m 0,-5e-5 0.1626,0.0962 m 0,-4e-5 0.1641,0.0936 m 0,3e-5 0.1657,0.0911 m 0,5e-5 0.1669,0.0885 m 0,4e-5 0.1682,0.086 m 0,-2e-5 0.1696,0.0834 m 0,-2e-5 0.1709,0.0807 m 0,-5e-5 0.172,0.0782 m 0,-1.1e-4 0.1733,0.0755 m 0,-10e-5 0.1744,0.0729 m 0,-3e-5 0.1754,0.0701 m 0,0 0.1766,0.0674 m 0,10e-6 0.1776,0.0646 m 0,-1e-5 0.1785,0.062 m 0,-6e-5 0.1794,0.0592 m 0,-3e-5 0.1804,0.0564 m 0,-5e-5 0.1812,0.0537 m 0,-1.1e-4 0.182,0.0509 m 0,0 0.1828,0.048 m 0,0 0.1835,0.0452 m 0,0 0.1842,0.0423 m 0,0 0.1848,0.0396 m 0,0 0.1853,0.0367 m 0,0 0.186,0.0338 m 0,1.1e-4 0.1864,0.0309 m 0,0 0.1868,0.0282 m 0,-10e-5 0.1873,0.0253 m 0,0 0.1876,0.0223 m 0,1.1e-4 0.1881,0.0194 m 0,1.1e-4 0.1881,0.0165 m 0,0 0.1885,0.0137 m 0,0 0.1887,0.0108 m 0,4.2e-4 0.1888,0.007 m 0,0 0.1889,0.005 m 0,0 0.189,0.002 m 0,-2e-4 0.189,-8.7e-4 m 0,8.7e-4 0.189,-0.004 m 0,0 0.1888,-0.006 m 0,-2.1e-4 0.1888,-0.01 m 0,0 0.1884,-0.0125 m 0,0 0.1884,-0.0154 m 0,-1.1e-4 0.1882,-0.0182 m 0,-1.1e-4 0.1877,-0.0211 m 0,-10e-5 0.1874,-0.024 m 0,0 0.1871,-0.027 m 0,0 0.1866,-0.0298 m 0,-1.1e-4 0.1861,-0.0326 m 0,-10e-5 0.1856,-0.0355 m 0,0 0.1851,-0.0384 m 0,10e-5 0.1844,-0.0413 m 0,0 0.1838,-0.044 m 0,0 0.183,-0.0469 m 0,0 0.1823,-0.0497 m 0,0 0.1816,-0.0525 m 0,-3e-5 0.1807,-0.0553 m 0,-5e-5 0.1798,-0.058 m 0,-4e-5 0.179,-0.0608 m 0,0 0.1779,-0.0636 m 0,-3e-5 0.177,-0.0662 m 0,-5e-5 0.1759,-0.069 m 0,-2e-5 0.1749,-0.0717 m 0,-6e-5 0.1736,-0.0743 m 0,-7e-5 0.1726,-0.077 m 0,-5e-5 0.1713,-0.0797 m 0,10e-6 0.1702,-0.0824 m 0,10e-6 0.1688,-0.0849 m 0,-7e-5 0.1675,-0.0875 m 0,2e-5 0.1661,-0.0901 m 0,1e-5 0.1648,-0.0926 m 0,-5e-5 0.1632,-0.0951 m 0,-5e-5 0.1618,-0.0976 m 0,-10e-6 0.1603,-0.10016 m 0,7e-5 0.1586,-0.10262 m 0,-10e-6 0.1571,-0.10496 m 0,-4e-5 0.1556,-0.10741 m 0,0 0.1538,-0.10981 m 0,0 0.1521,-0.11213 m 0,0 0.1503,-0.11448 m 0,0 0.1486,-0.11677 m 0,0 0.1467,-0.11905 m 0,0 0.145,-0.12128 m 0,0 0.143,-0.12351 m 0,0 0.1411,-0.12568 m 0,0 0.1392,-0.12784 m 0,0 0.1372,-0.12998 m 0,0 0.1352,-0.13206 m 0,0 0.133097,-0.13413 m 0,0 0.131,-0.13616 m 0,0 0.1289,-0.13816 m 0,0 0.1269,-0.14013 m 0,0 0.1245,-0.14206 m 0,0 0.1225,-0.14396 m 0,0 0.1201,-0.14584 m 0,0 0.118,-0.14766 m 0,0 0.1156,-0.14945 m 0,0 0.1134,-0.15122 m 0,0 0.1109,-0.15295 m 0,0 0.1087,-0.15462 m -4e-4,0 0.1067,-0.15629 m -10e-5,0 0.1034,-0.15791 m 3e-4,0 0.1014,-0.15948 m -2e-4,0 0.099,-0.16102 m 2e-4,0 0.096,-0.16252 m 4e-4,0 0.094,-0.16399 m -4e-4,0 0.092,-0.16541 m -1e-4,0 0.089,-0.1668 m 1e-4,0 0.086,-0.16815 m 3e-4,0 0.083,-0.16945 m 5e-4,0 0.081,-0.17072 m -5e-4,0 0.079,-0.17195 m -5e-4,0 0.076,-0.17313 m -5e-4,0 0.074,-0.17428 m -5e-4,0 0.07,-0.17538 m 4e-4,0 0.067,-0.17644 m 3e-4,0 0.065,-0.17746 m 2e-4,0 0.062,-0.17844 m 10e-5,0 0.06,-0.17937 m -10e-5,0 0.056,-0.18028 m -4e-4,0 0.054,-0.18112 m 0,0 0.051,-0.18193 m 0,0 0.048,-0.18269 m 0,0 0.046,-0.18341 m 0,0 0.043,-0.1841 m 0,0 0.04,-0.18472 m 0,0 0.037,-0.18533 m 0,0 0.034,-0.18586 m 0,0 0.031,-0.18637 m 0,0 0.029,-0.18683 m 0,0 0.026,-0.18725 m 0,0 0.022,-0.18761 m 0,0 0.02,-0.18794 m 0,0 0.017,-0.18822 m 0,0 0.014,-0.18845 m 0,0 0.011,-0.18866 m 0,0 0.011,-0.1888 m 0,0 v -0.1889 m 0.011,0 v -0.18896 m 7e-4,0 -7e-4,-0.18897 m 7e-4,0 v -0.18894 m 0,0 -0.011,-0.18888 m 0,0 -0.011,-0.18873 m 0,0 -0.012,-0.18859 m 0,0 -0.015,-0.18837 m 0,0 -0.018,-0.18812 m 0,0 -0.021,-0.18782 m 0,0 -0.024,-0.18748 m 0,0 -0.027,-0.18708 m 0,0 -0.03,-0.18665 m 0,0 -0.032,-0.18618 m 0,0 -0.035,-0.18565 m 0,0 -0.038,-0.1851 m 0,0 -0.041,-0.18449 m -0.001,0 -0.044,-0.18383 m 0,0 -0.047,-0.18314 m 0,0 -0.049,-0.18241 m 0,0 -0.052,-0.18161 m 5e-4,0 -0.055,-0.1808 m 4e-4,0 -0.058,-0.17992 m 1e-4,0 -0.061,-0.17902 m -1e-4,0 -0.063,-0.17807 m -2e-4,0 -0.066,-0.17707 m -3e-4,0 -0.068,-0.17603 m -4e-4,0 -0.072,-0.17496 m -5e-4,0 -0.074,-0.17383 m -6e-4,0 -0.077,-0.17267 m -4e-4,0 -0.079,-0.17148 m -4e-4,0 -0.082,-0.17023 m -3e-4,0 -0.084,-0.16895 m -2e-4,0 -0.088,-0.16763 m 0,0 -0.09,-0.16627 m 3e-4,0 -0.093,-0.16485 m 4e-4,0 -0.095,-0.16342 m -4e-4,0 -0.097,-0.16195 m 1e-4,0 -0.1003,-0.16042 m 5e-4,0 -0.1024,-0.15888 m -2e-4,0 -0.1045,-0.15727 m -3e-4,0 -0.1071,-0.15565 m 0,0 -0.1096,-0.15398 m 0,0 -0.112,-0.15228 m 0,0 -0.1141,-0.15053 m 0,0 -0.1166,-0.14877 m 0,0 -0.1188,-0.14695 m 0,0 -0.1211,-0.1451 m 0,0 -0.1233,-0.14323 m 0,0 -0.1254,-0.14131 m 0,0 -0.1276,-0.13938 m 0,0 -0.1298,-0.13737 m 0,0 -0.131897,-0.13537 m 0,0 -0.1338,-0.13334 m 0,0 -0.136,-0.13125 m 0,0 -0.1379,-0.12915 m 0,0 -0.14,-0.12701 m 0,0 -0.1419,-0.12483 m 0,0 -0.1437,-0.12265 m 0,0 -0.1456,-0.12041 m 0,0 -0.1476,-0.11817 m 0,0 -0.1493,-0.11588 m 0,0 -0.151,-0.11357 m 0,0 -0.1528,-0.11123 m 0,0 -0.1544,-0.10886 m 0,-4e-5 -0.1561,-0.10645 m 0,10e-6 -0.1577,-0.10411 m 0,7e-5 -0.1594,-0.10165 m 0,6e-5 -0.1609,-0.0992 m 0,0 -0.1623,-0.0966 m 0,-2e-5 -0.1638,-0.0942 m 0,10e-6 -0.1654,-0.0916 m 0,-3e-5 -0.1666,-0.0891 m 0,-10e-6 -0.168,-0.0865 m 0,3e-5 -0.1694,-0.0839 m 0,1e-5 -0.1705,-0.0813 m 0,3e-5 -0.1719,-0.0787 m 0,9e-5 -0.173,-0.0761 m 0,9e-5 -0.1742,-0.0734 m 0,0 -0.1752,-0.0706 m 0,-5e-5 -0.1764,-0.0679 m 0,-6e-5 -0.1773,-0.0652 m 0,-3e-5 -0.1784,-0.0625 m 0,10e-6 -0.1792,-0.0597 m 0,-2e-5 -0.1803,-0.057 m 0,-2e-5 -0.181,-0.0542 m 0,0 -0.1818,-0.0514 m 0,0 -0.1826,-0.0486 m 0,0 -0.1833,-0.0458 m 0,0 -0.1841,-0.043 m 0,0 -0.1846,-0.0401 m 0,-1e-4 -0.1853,-0.0372 m 0,0 -0.1858,-0.0344 m 0,0 -0.1864,-0.0316 m 0,0 -0.1868,-0.0287 m 0,0 -0.1872,-0.0258 m 0,0 -0.1875,-0.0229 m 0,0 -0.1879,-0.02 m 0,0 -0.1882,-0.0172 m 0,1e-4 -0.1885,-0.0143 m 0,0 -0.1886,-0.0113 m 0,0 -0.1888,-0.009 m 0,-1.1e-4 -0.1889,-0.005 m 0,-10e-4 -0.1889,-0.002 m -2e-4,-8.2e-4 -0.077,-2.5e-4 m -2e-4,6.61413 -0.1889,0.003 m 0,-2.2e-4 -0.1887,0.01 m 0,-10e-5 -0.1884,0.0157 m 0,1e-4 -0.1876,0.022 m 0,0 -0.1869,0.0283 m 0,0 -0.1858,0.0345 m 0,0 -0.1845,0.0406 m 0,0 -0.1831,0.0467 m 0,10e-5 -0.1814,0.0528 m 0,-10e-6 -0.1796,0.0589 m 0,2e-5 -0.1775,0.0648 m 0,10e-6 -0.1753,0.0707 m 0,-5e-5 -0.1728,0.0765 m 0,-6e-5 -0.1701,0.0822 m 0,-10e-6 -0.1674,0.0878 m 0,4e-5 -0.1642,0.0933 m 0,10e-6 -0.1611,0.0988 m 0,-2e-5 -0.1578,0.1041 m 0,-2e-5 -0.1541,0.10928 m 0,0 -0.1505,0.11437 m 0,0 -0.1465,0.11931 m 0,0 -0.1425,0.12413 m 0,0 -0.1382,0.12881 m 0,0 -0.134,0.13334 m 0,0 -0.1294,0.13773 m 0,0 -0.1247,0.14197 m 0,0 -0.1198,0.14604 m 0,0 -0.115,0.14996 m 0,0 -0.1099,0.15372 m -2e-4,0 -0.1045,0.15728 m -6e-4,0 -0.099,0.16069 m -4e-4,0 -0.094,0.16392 m -1e-4,0 -0.089,0.16695 m 3e-4,0 -0.083,0.16982 m -10e-5,0 -0.077,0.17249 m -3e-4,0 -0.072,0.17495 m -3e-4,0 -0.065,0.17725 m -3e-4,0 -0.06,0.17932 m -1e-4,0 -0.053,0.18121 m 0,0 -0.048,0.1829 m 0,0 -0.042,0.18439 m 0,0 -0.035,0.18565 m 0,0 -0.029,0.18672 m 0,0 -0.022,0.1876 m 0,0 -0.017,0.18824 m 0,0 -0.011,0.18869 m 0,0 v 0.18893 m 0,0 v 0.18895 m 0,0 0.011,0.18877 m 0,0 0.015,0.18837 m 0,0 0.021,0.18778 m 0,0 0.028,0.18695 m 0,0 0.034,0.18594 m 0,0 0.039,0.18473 m 0,0 0.046,0.18329 m 0,0 0.052,0.18164 m 3e-4,0 0.058,0.17982 m 7e-4,0 0.064,0.17777 m 6e-4,0 0.069,0.17555 m 7e-4,0 0.076,0.17311 m 5e-4,0 0.081,0.17049 m 0,0 0.087,0.16768 m -6e-4,0 0.093,0.16469 m -1e-4,0 0.098,0.16151 m 0,0 0.1034,0.15815 m 0,0 0.1086,0.15461 m 0,0 0.1138,0.1509 m 0,0 0.1186,0.14703 m 0,0 0.1237,0.143 m 0,0 0.1282,0.13879 m 0,0 0.1328,0.13444 m 0,0 0.1372,0.12996 m 0,0 0.1414,0.12529 m 0,0 0.1455,0.12052 m 0,0 0.1495,0.11559 m 0,0 0.1533,0.11056 m 0,0 0.1568,0.10539 m 0,4e-5 0.1603,0.10006 m 0,2e-5 0.1636,0.0947 m 0,0 0.1666,0.0892 m 0,-1e-5 0.1694,0.0836 m 0,10e-6 0.1721,0.0779 m 0,5e-5 0.1747,0.0721 m 0,3e-5 0.177,0.0662 m 0,-2e-5 0.1791,0.0604 m 0,-10e-6 0.181,0.0543 m 0,1.1e-4 0.1826,0.0482 m 0,1.1e-4 0.1842,0.0421 m 0,1.1e-4 0.1856,0.036 m 0,10e-5 0.1866,0.0298 m 0,0 0.1875,0.0236 m 0,0 0.1882,0.0173 m 0,0 0.1886,0.011 m 0,4.3e-4 0.1889,0.004 m 0,0 0.189,-10e-4 m 0,-10e-4 0.1888,-0.007 m 0,-4.3e-4 0.1885,-0.0142 m 0,1.1e-4 0.1878,-0.0205 m 0,0 0.1871,-0.0267 m 0,-1e-4 0.186,-0.0329 m 0,0 0.1849,-0.0391 m 0,0 0.1834,-0.0452 m 0,0 0.1819,-0.0513 m 0,1e-5 0.1801,-0.0574 m 0,6e-5 0.178,-0.0634 m 0,3e-5 0.1759,-0.0692 m 0,4e-5 0.1734,-0.0751 m 0,0 0.1708,-0.0807 m 0,-8e-5 0.1681,-0.0864 m 0,-7e-5 0.165,-0.0919 m 0,-8e-5 0.1619,-0.0974 m 0,0 0.1586,-0.10283 m 0,5e-5 0.155,-0.108 m 0,0 0.1514,-0.11312 m 0,0 0.1475,-0.11811 m 0,0 0.1436,-0.12294 m 0,0 0.1393,-0.12766 m 0,0 0.135,-0.13223 m 0,0 0.1305,-0.13666 m 0,0 0.1259,-0.14093 m 0,0 0.1211,-0.14506 m 0,0 0.1162,-0.149 m 0,0 0.1112,-0.1528 m 5e-4,0 0.1056,-0.15642 m 8e-4,0 0.1003,-0.15986 m 8e-4,0 0.095,-0.16313 m 7e-4,0 0.09,-0.16622 m 3e-4,0 0.084,-0.16912 m -3e-4,0 0.079,-0.17184 m 0,0 0.073,-0.17437 m 1e-4,0 0.067,-0.17669 m 1e-4,0 0.061,-0.17883 m -10e-5,0 0.055,-0.18077 m 0,0 0.049,-0.18249 m 0,0 0.043,-0.18404 m 0.001,0 0.036,-0.18535 m 0,0 0.031,-0.18649 m 0,0 0.025,-0.1874 m 0,0 0.018,-0.1881 m 0,0 0.012,-0.18859 m -0.011,0 0.011,-0.1889 m -0.011,0 -9e-4,-0.18896 m 9e-4,0 -0.011,-0.18884 m 0,0 -0.014,-0.18848 m 0,0 -0.019,-0.18795 m -10e-4,0 -0.026,-0.18719 m 0,0 -0.032,-0.18621 m 0,0 -0.038,-0.18503 m 0,0 -0.045,-0.18366 m 0,0 -0.05,-0.18207 m -5e-4,0 -0.057,-0.18029 m 2e-4,0 -0.063,-0.1783 m 1e-4,0 -0.068,-0.17612 m 10e-5,0 -0.075,-0.17374 m 3e-4,0 -0.08,-0.17115 m -4e-4,0 -0.085,-0.1684 m 0,0 -0.092,-0.16545 m 8e-4,0 -0.097,-0.1623 m 6e-4,0 -0.1024,-0.159 m 2e-4,0 -0.1073,-0.1555 m 0,0 -0.1126,-0.15184 m 0,0 -0.1174,-0.14801 m 0,0 -0.1224,-0.14401 m 0,0 -0.1271,-0.13985 m 0,0 -0.1316,-0.13554 m 0,0 -0.1361,-0.13107 m 0,0 -0.1405,-0.12647 m 0,0 -0.1445,-0.12172 m 0,0 -0.1485,-0.11682 m 0,0 -0.1525,-0.11182 m 0,0 -0.1559,-0.10667 m 0,2e-5 -0.1595,-0.10144 m 0,-2e-5 -0.1626,-0.096 m 0,-6e-5 -0.1659,-0.0906 m 0,0 -0.1687,-0.085 m 0,5e-5 -0.1716,-0.0794 m 0,8e-5 -0.174,-0.0736 m 0,5e-5 -0.1765,-0.0677 m 0,-2e-5 -0.1785,-0.0618 m 0,-8e-5 -0.1806,-0.0558 m 0,0 -0.1823,-0.0498 m 0,0 -0.1838,-0.0436 m 0,0 -0.1853,-0.0376 m 0,1.1e-4 -0.1863,-0.0314 m 0,0 -0.1873,-0.0251 m 0,0 -0.188,-0.0189 m 0,1.1e-4 -0.1886,-0.0126 m 0,1.1e-4 -0.1889,-0.006 m 2e-4,-3e-4 -0.094,-7.7e-4"
       inkscape:connector-curvature="0" />
    <path
       style="fill:none;stroke:#000000;stroke-width:1.06666672"
       d="m 64.761633,883.86791 -0.8617,0.007"
       id="path4060"
       inkscape:connector-curvature="0" />
    <path
       id="path5162"
       style="fill:none;stroke:#fe0000;stroke-width:0.75590551;stroke-miterlimit:4;stroke-dasharray:none;stroke-opacity:1"
       d="m 67.588033,861.01594 -0.078,10e-4 m 10e-5,0 -0.1888,0.007 m 0,2.1e-4 -0.1884,0.0144 m 0,0 -0.1878,0.0214 m 0,0 -0.1868,0.0286 m 0,0 -0.1855,0.0359 m 0,0 -0.1839,0.0434 m 0,0 -0.1819,0.051 m 0,-4e-5 -0.1797,0.0588 m 0,-7e-5 -0.1768,0.0666 m 0,-6e-5 -0.1737,0.0745 m 0,-4e-5 -0.1701,0.0823 m 0,5e-5 -0.166,0.0902 m 0,8e-5 -0.1614,0.0981 m 0,5e-5 -0.1565,0.10602 m 0,0 -0.1508,0.11375 m 0,0 -0.1448,0.12132 m 0,0 -0.1385,0.12866 m 0,0 -0.1314,0.13576 m 0,0 -0.1241,0.14254 m 0,0 -0.1161,0.14897 m 0,0 -0.1082,0.15499 m -4e-4,0 -0.099,0.16055 m -6e-4,0 -0.091,0.16566 m -10e-5,0 -0.082,0.17024 m -3e-4,0 -0.072,0.17432 m -1e-4,0 -0.064,0.17787 m 0,0 -0.054,0.18087 m 0,0 -0.046,0.18339 m 0,0 -0.036,0.18539 m 0,0 -0.028,0.18692 m 0,0 -0.019,0.18799 m 0,0 -0.011,0.18868 m 0,0 v 0.18893 m 0,-4e-5 v 0.0752 m 0,-4e-5 0.011,0.18876 m 0,0 0.017,0.18818 m 0,0 0.026,0.18721 m 0,0 0.034,0.18579 m 0,0 0.044,0.18391 m 0,0 0.052,0.18155 m -3e-4,0 0.062,0.17868 m -2e-4,0 0.07,0.17528 m -2e-4,0 0.08,0.17137 m -5e-4,0 0.089,0.16694 m 2e-4,0 0.097,0.162 m 4e-4,0 0.1056,0.15659 m 1e-4,0 0.114,0.1507 m 0,0 0.1218,0.14441 m 0,0 0.1294,0.13775 m 0,0 0.1364,0.13076 m 0,0 0.143,0.12346 m 0,0 0.1492,0.11597 m 0,0 0.1549,0.10826 m 0,-5e-5 0.16,0.10048 m 0,-1e-5 0.1648,0.0925 m 0,-1e-5 0.1689,0.0846 m 0,-8e-5 0.1728,0.0766 m 0,-2e-5 0.1761,0.0686 m 0,10e-6 0.1789,0.0607 m 0,-5e-5 0.1814,0.0529 m 0,0 0.1835,0.0451 m 0,0 0.1853,0.0376 m 0,0 0.1866,0.0301 m 0,0 0.1875,0.0227 m 0,1.1e-4 0.1883,0.0156 m 0,1.1e-4 0.1887,0.009 m 0,0 0.1891,0.002 m -2e-4,-3.1e-4 0.069,-10e-4 m -1e-4,-5e-5 0.1888,-0.007 m 0,2.1e-4 0.1883,-0.0143 m 0,1.1e-4 0.1879,-0.0213 m 0,0 0.1868,-0.0285 m 0,-10e-5 0.1855,-0.0358 m 0,-1.1e-4 0.1838,-0.0434 m 0,0 0.182,-0.0511 m 0,0 0.1795,-0.0588 m 0,-2e-5 0.1769,-0.0667 m 0,1e-5 0.1736,-0.0746 m 0,-4e-5 0.1701,-0.0824 m 0,-2e-5 0.1658,-0.0905 m 0,4e-5 0.1614,-0.0983 m 0,-1e-5 0.1563,-0.10614 m 0,-2e-5 0.1508,-0.11386 m 0,0 0.1448,-0.12141 m 0,0 0.1383,-0.12874 m 0,0 0.1314,-0.13579 m 0,0 0.1241,-0.14255 m 0,0 0.1161,-0.14896 m 0,0 0.1082,-0.15495 m 5e-4,0 0.099,-0.1605 m 9e-4,0 0.091,-0.16559 m 3e-4,0 0.082,-0.17017 m -4e-4,0 0.074,-0.17424 m -6e-4,0 0.064,-0.17781 m 4e-4,0 0.054,-0.18082 m 0,0 0.046,-0.18334 m 0,0 0.036,-0.18534 m 0,0 0.028,-0.1869 m 0,0 0.019,-0.18798 m 0,0 0.011,-0.18866 m 0,0 v -0.18894 m 0,4e-5 v -0.0719 m 0,4e-5 -0.011,-0.18876 m 0,0 -0.017,-0.18821 m 0,0 -0.026,-0.18726 m 0,0 -0.034,-0.18588 m 0,0 -0.043,-0.18403 m 0,0 -0.052,-0.18171 m 4e-4,0 -0.061,-0.17887 m 2e-4,0 -0.07,-0.17552 m 3e-4,0 -0.079,-0.17164 m -5e-4,0 -0.088,-0.16722 m -2e-4,0 -0.097,-0.16231 m 7e-4,0 -0.1056,-0.1569 m 3e-4,0 -0.1136,-0.15102 m 0,0 -0.1215,-0.14471 m 0,0 -0.1291,-0.13804 m 0,0 -0.1361,-0.13101 m 0,0 -0.1428,-0.12369 m 0,0 -0.1491,-0.11615 m 0,0 -0.1547,-0.10841 m 0,5e-5 -0.16,-0.10059 m 0,7e-5 -0.1648,-0.0926 m 0,3e-5 -0.169,-0.0846 m 0,5e-5 -0.1728,-0.0766 m 0,7e-5 -0.176,-0.0686 m 0,-2e-5 -0.179,-0.0606 m 0,-4e-5 -0.1814,-0.0528 m 0,0 -0.1836,-0.045 m 0,0 -0.1851,-0.0374 m 0,0 -0.1866,-0.03 m 0,0 -0.1876,-0.0227 m 0,1.1e-4 -0.1883,-0.0156 m 0,0 -0.1888,-0.009 m 0,0 -0.189,-0.002 m -3.7914,10.2587 4.781,-0.0386 m 6e-4,6e-5 0.056,-6e-5 m 5e-4,-10e-4 0.189,0.006 m 0,-5.3e-4 0.1882,0.0159 m 0,0 0.1871,0.0268 m 0,0 0.1849,0.0388 m 0,-1.1e-4 0.1817,0.0518 m 0,-1e-5 0.1771,0.0658 m 0,-1e-5 0.1708,0.0807 m 0,2e-5 0.1625,0.0961 m 0,5e-5 0.1523,0.11178 m 0,0 0.1399,0.12693 m 0,0 0.1256,0.14107 m 0,0 0.11,0.15356 m -3e-4,0 0.094,0.16409 m 0,0 0.077,0.17247 m 5e-4,0 0.061,0.17881 m 10e-5,0 0.046,0.18329 m 0,0 0.032,0.18627 m 0,0 0.019,0.18801 m 0,0 0.011,0.18882 m 0,3e-5 v 0.0547 m 0,3e-5 -0.011,0.18881 m 0,0 -0.019,0.18795 m 0,0 -0.033,0.18609 m 0,0 -0.047,0.18293 m -1e-4,0 -0.063,0.17816 m -2e-4,0 -0.079,0.17149 m -3e-4,0 -0.096,0.16269 m 0,0 -0.1124,0.15179 m 0,0 -0.1279,0.13892 m 0,0 -0.142,0.12462 m 0,0 -0.154,0.1094 m 0,5e-5 -0.1638,0.0939 m 0,4e-5 -0.1718,0.0787 m 0,-5e-5 -0.1777,0.0642 m 0,-7e-5 -0.1821,0.0506 m 0,0 -0.185,0.0379 m 0,0 -0.1872,0.0264 m 0,0 -0.1883,0.0157 m 0,-3.2e-4 -0.1888,0.006 m 0,-3.2e-4 -4.781,0.0386 m 0,-4e-5 0.011,0.96375 m 0,-6e-5 4.7923,-0.0386 m 0,-5e-5 0.011,-6e-5 m 0,6e-5 0.1889,-0.005 m 0,2.2e-4 0.1885,-0.0123 m 0,0 0.188,-0.0198 m 0,0 0.1869,-0.028 m 0,-10e-5 0.1854,-0.0367 m 0,0 0.1832,-0.0461 m 0,0 0.1805,-0.0559 m 0,-8e-5 0.1768,-0.0663 m 0,-2e-5 0.1724,-0.0773 m 0,6e-5 0.167,-0.0886 m 0,0 0.1602,-0.10006 m 0,-4e-5 0.1525,-0.11155 m 0,0 0.1436,-0.1228 m 0,0 0.1336,-0.13348 m 0,0 0.123,-0.14344 m 0,0 0.1116,-0.15245 m -3e-4,0 0.1002,-0.16036 m 2e-4,0 0.088,-0.16716 m 2e-4,0 0.077,-0.1728 m -3e-4,0 0.065,-0.17738 m -2e-4,0 0.054,-0.18101 m 0,0 0.044,-0.18377 m 0,0 0.034,-0.18582 m 0,0 0.026,-0.18726 m -0.001,0 0.017,-0.18821 m 0,0 0.011,-0.18874 m 0,0 v -0.18896 m 0,0 v -0.18583 m 0,0 -0.012,-0.18857 m 0,0 -0.02,-0.18791 m 0,0 -0.029,-0.18682 m 0,0 -0.037,-0.18524 m 0,0 -0.047,-0.18303 m 0,0 -0.058,-0.1801 m 7e-4,0 -0.068,-0.17631 m 1e-4,0 -0.079,-0.17157 m -2e-4,0 -0.091,-0.16578 m 2e-4,0 -0.1024,-0.15887 m 2e-4,0 -0.1138,-0.15085 m 0,0 -0.1249,-0.14175 m 0,0 -0.1354,-0.13174 m 0,0 -0.1452,-0.12097 m 0,0 -0.1538,-0.10971 m 0,-4e-5 -0.1614,-0.0981 m 0,-4e-5 -0.1679,-0.0866 m 0,-3e-5 -0.1733,-0.0752 m 0,-4e-5 -0.1777,-0.0642 m 0,2e-5 -0.1812,-0.0537 m 0,0 -0.1838,-0.0436 m 0,0 -0.1859,-0.0341 m 0,0 -0.1872,-0.0253 m 0,1.1e-4 -0.1883,-0.017 m 0,4.2e-4 -0.1887,-0.01 m 0,6.4e-4 -0.189,-0.002 m 0,2.1e-4 -4.8036,0.0387 m 0,3e-5 0.011,0.96375 m 1.0671,-30.40836 0.4622,-0.81636 m -2e-4,5e-5 -0.08,-0.0541 m -2e-4,4e-5 -0.1503,-0.11444 m 0,0 -0.1414,-0.12532 m 0,0 -0.1319,-0.13528 m 0,0 -0.1218,-0.14444 m 0,0 -0.1111,-0.15277 m 2e-4,0 -0.1003,-0.16032 m 5e-4,0 -0.089,-0.16707 m 1e-4,0 -0.076,-0.17298 m -4e-4,0 -0.063,-0.17806 m -1e-4,0 -0.05,-0.18221 m 0,0 -0.036,-0.18539 m 0,0 -0.022,-0.18759 m 0,0 -0.011,-0.18874 m 0.011,0 v -0.18399 m 0,0 0.016,-0.18828 m 0,0 0.028,-0.18686 m 0,0 0.041,-0.18462 m 0,0 0.052,-0.18153 m -4e-4,0 0.065,-0.1776 m -0.001,0 0.077,-0.17283 m 0,0 0.088,-0.16722 m 3e-4,0 0.099,-0.16087 m -1e-4,0 0.1098,-0.15383 m 0,0 0.1198,-0.14613 m 0,0 0.1291,-0.13788 m 0,0 0.1378,-0.12916 m 0,0 0.146,-0.12004 m 0,0 0.1531,-0.11061 m 0,5e-5 0.1598,-0.10101 m 0,0 0.1655,-0.0911 m 0,-4e-5 0.1706,-0.0813 m 0,1e-5 0.175,-0.0714 m 0,4e-5 0.1786,-0.0615 m 0,4e-5 0.1818,-0.0517 m 0,0 0.1841,-0.0421 m 0,0 0.1861,-0.0326 m 0,0 0.1875,-0.0235 m 0,0 0.1884,-0.0145 m 0,-4.3e-4 0.1889,-0.005 m 0,0 0.1783,0.002 m 0,3.2e-4 0.1886,0.0111 m 0,1e-4 0.1879,0.0202 m 0,0 0.1867,0.0296 m 0,0 0.1848,0.039 m 0,0 0.1825,0.0487 m 0,-2e-5 0.1797,0.0586 m 0,2e-5 0.1761,0.0685 m 0,4e-5 0.1719,0.0784 m 0,9e-5 0.167,0.0883 m 0,6e-5 0.1614,0.0982 m 0,0 0.1551,0.10794 m 0,0 0.148,0.11745 m 0,0 0.1402,0.12665 m 0,0 0.1317,0.13548 m 0,0 0.1225,0.14385 m 0,0 0.1127,0.15169 m -2e-4,0 0.1024,0.15892 m 3e-4,0 0.091,0.16546 m 4e-4,0 0.08,0.17129 m -6e-4,0 0.068,0.17629 m 1e-4,0 0.056,0.18048 m 0,0 0.044,0.1838 m 0,0 0.032,0.18631 m 0,0 0.019,0.18794 m 0,0 0.011,0.1888 m 0,2e-5 v 0.0989 m 0,10e-6 -0.013,0.18852 m 0,0 -0.027,0.18709 m 0,0 -0.04,0.18467 m 0,0 -0.053,0.18126 m -3e-4,0 -0.066,0.17688 m -4e-4,0 -0.079,0.17156 m 2e-4,0 -0.092,0.16535 m 5e-4,0 -0.1035,0.15827 m 2e-4,0 -0.1144,0.15032 m 0,0 -0.1251,0.14153 m 0,0 -0.1354,0.13186 m 0,0 -0.1447,0.12133 m 0,0 -0.1537,0.10989 m 0,0 0.4753,0.82014 m 0,3e-5 0.083,-0.0623 m 0,3e-5 0.1477,-0.11783 m 0,0 0.1426,-0.12396 m 0,0 0.1369,-0.13026 m 0,0 0.1304,-0.13668 m 0,0 0.1234,-0.14309 m 0,0 0.1157,-0.14944 m 0,0 0.1073,-0.15557 m 1e-4,0 0.098,-0.16141 m 3e-4,0 0.089,-0.16681 m 1e-4,0 0.079,-0.17169 m 4e-4,0 0.068,-0.17598 m 5e-4,0 0.059,-0.17963 m 4e-4,0 0.048,-0.18263 m 0,0 0.038,-0.18498 m 0,0 0.029,-0.18674 m 0,0 0.019,-0.18794 m 0,0 0.011,-0.18864 m 0,0 v -0.18895 m -8e-4,0 v -0.13864 m 0,0 -0.012,-0.1886 m 0,0 -0.02,-0.18789 m 0,0 -0.029,-0.1868 m 0,0 -0.037,-0.18527 m 0,0 -0.046,-0.18333 m 0,0 -0.054,-0.18097 m 0,0 -0.063,-0.17814 m -2e-4,0 -0.072,-0.17487 m -3e-4,0 -0.08,-0.17113 m 0,0 -0.089,-0.16697 m 5e-4,0 -0.097,-0.16235 m 2e-4,0 -0.1045,-0.15728 m -1e-4,0 -0.1126,-0.15179 m 0,0 -0.1201,-0.14592 m 0,0 -0.1272,-0.13966 m 0,0 -0.1342,-0.13304 m 0,0 -0.1407,-0.12611 m 0,0 -0.1469,-0.11887 m 0,0 -0.1526,-0.1114 m 0,-3e-5 -0.158,-0.10368 m 0,-9e-5 -0.1628,-0.0958 m 0,-10e-6 -0.1673,-0.0879 m 0,7e-5 -0.1713,-0.0798 m 0,6e-5 -0.1749,-0.0717 m 0,10e-6 -0.1779,-0.0635 m 0,-7e-5 -0.1807,-0.0554 m 0,0 -0.1829,-0.0474 m 0,0 -0.1849,-0.0394 m 0,0 -0.1862,-0.0316 m 0,0 -0.1875,-0.0239 m 0,0 -0.1883,-0.0164 m 0,5.3e-4 -0.1887,-0.01 m 0,7.5e-4 -0.189,-0.002 m 0,0 -0.1444,0.003 m 0,-3.2e-4 -0.1887,0.0107 m 0,-2.1e-4 -0.1882,0.0176 m 0,0 -0.1873,0.0251 m 0,0 -0.1861,0.0326 m 0,0 -0.1845,0.0404 m 0,0 -0.1828,0.0482 m 0,10e-5 -0.1803,0.0562 m 0,6e-5 -0.1777,0.0642 m 0,5e-5 -0.1747,0.0723 m 0,-5e-5 -0.1709,0.0804 m 0,-7e-5 -0.1671,0.0884 m 0,-2e-5 -0.1625,0.0963 m 0,4e-5 -0.1577,0.10411 m 0,3e-5 -0.1523,0.11178 m 0,0 -0.1467,0.11921 m 0,0 -0.1404,0.12641 m 0,0 -0.1339,0.1333 m 0,0 -0.1271,0.13991 m 0,0 -0.1198,0.14615 m 0,0 -0.1122,0.15201 m 10e-5,0 -0.1045,0.15748 m -2e-4,0 -0.096,0.16253 m 1e-4,0 -0.088,0.16715 m 6e-4,0 -0.08,0.17132 m 5e-4,0 -0.071,0.17504 m 7e-4,0 -0.063,0.1783 m 8e-4,0 -0.054,0.18112 m 0,0 -0.045,0.18348 m 0,0 -0.036,0.18539 m 0,0 -0.028,0.18689 m 0,0 -0.019,0.18797 m 0,0 -0.011,0.18865 m 0,0 v 0.18894 m -8e-4,0 v 0.0982 m 0,0 0.011,0.18871 m 0,0 0.018,0.18803 m 0,0 0.028,0.18691 m 0,0 0.037,0.18525 m 0,0 0.047,0.18303 m 0,0 0.056,0.18019 m 0,0 0.067,0.17669 m -1e-4,0 0.077,0.17259 m 5e-4,0 0.086,0.16785 m 7e-4,0 0.096,0.16254 m 3e-4,0 0.1056,0.15673 m 0,0 0.1141,0.15053 m 0,0 0.1225,0.14398 m 0,0 0.1298,0.13721 m 0,0 0.1369,0.1303 m 0,0 0.1431,0.12334 m 0,0 0.1489,0.1164 m 0,0 0.1539,0.10953 m 2.7295,21.14779 -0.1889,0.005 m 0,-1.1e-4 -0.1885,0.0131 m 0,0 -0.1878,0.0211 m 0,0 -0.1866,0.0296 m 0,0 -0.185,0.0382 m 0,10e-5 -0.183,0.0471 m 0,0 -0.1803,0.0565 m 0,-4e-5 -0.1771,0.066 m 0,-10e-6 -0.173,0.0758 m 0,3e-5 -0.1683,0.0858 m 0,7e-5 -0.1628,0.0959 m 0,7e-5 -0.1564,0.10603 m 0,5e-5 -0.149,0.11619 m 0,0 -0.1407,0.12613 m 0,0 -0.1314,0.13572 m 0,0 -0.1213,0.14486 m 0,0 -0.1104,0.15338 m -4e-4,0 -0.098,0.16114 m -5e-4,0 -0.086,0.16801 m -3e-4,0 -0.074,0.17392 m -5e-4,0 -0.061,0.1788 m -6e-4,0 -0.048,0.18266 m -10e-4,0 -0.035,0.18554 m 0,0 -0.023,0.18748 m 0,0 -0.012,0.18858 m 0,0 v 0.12909 m 0,0 0.011,0.18882 m 0,0 0.018,0.18802 m 0,0 0.031,0.18645 m 0,0 0.043,0.18397 m 0,0 0.055,0.18056 m 4e-4,0 0.068,0.17613 m 0,0 0.081,0.17068 m -5e-4,0 0.094,0.16425 m -8e-4,0 0.1056,0.1569 m -4e-4,0 0.1165,0.14873 m 0,0 0.127,0.13986 m 0,0 0.1367,0.13047 m 0,0 0.1454,0.12064 m 0,0 0.1532,0.11059 m 0,10e-6 0.1601,0.10037 m 0,-4e-5 0.166,0.0902 m 0,-1.1e-4 0.1712,0.0801 m 0,-5e-5 0.1754,0.0701 m 0,4e-5 0.1791,0.0603 m 0,4e-5 0.182,0.0508 m 0,0 0.1843,0.0415 m 0,10e-5 0.1861,0.0325 m 0,10e-5 0.1875,0.0239 m 0,0 0.1883,0.0156 m 0,0 0.1888,0.007 m 0,3.8e-4 0.1263,6.8e-4 m 0,3.9e-4 0.1889,-0.005 m 0,-1e-4 0.1885,-0.0133 m 0,0 0.1877,-0.0216 m 0,0 0.1866,-0.0301 m 0,0 0.185,-0.0389 m 0,0 0.1827,-0.048 m 0,0 0.18,-0.0573 m 0,-4e-5 0.1768,-0.0669 m 0,5e-5 0.1727,-0.0767 m 0,7e-5 0.1679,-0.0866 m 0,5e-5 0.1624,-0.0966 m 0,2e-5 0.156,-0.10669 m 0,0 0.1486,-0.11667 m 0,0 0.1403,-0.12648 m 0,0 0.1312,-0.13595 m 0,0 0.1211,-0.145 m 0,0 0.1103,-0.15341 m 5e-4,0 0.098,-0.16111 m 6e-4,0 0.086,-0.16796 m 5e-4,0 0.074,-0.17385 m 9e-4,0 0.061,-0.17874 m 8e-4,0 0.048,-0.18263 m 0,0 0.036,-0.18553 m 0,0 0.024,-0.1875 m 0,0 0.012,-0.18859 m 0,0 v -0.12058 m 0,0 -0.011,-0.18882 m 0,0 -0.018,-0.18803 m 0,0 -0.031,-0.18646 m 0,0 -0.043,-0.18401 m 0,0 -0.055,-0.18058 m -1e-4,0 -0.068,-0.17617 m 2e-4,0 -0.081,-0.17075 m 8e-4,0 -0.094,-0.16428 m 10e-4,0 -0.1056,-0.15694 m 4e-4,0 -0.1165,-0.14876 m 0,0 -0.127,-0.13988 m 0,0 -0.1367,-0.13048 m 0,0 -0.1454,-0.12064 m 0,0 -0.1531,-0.11057 m 0,-10e-6 -0.1601,-0.10037 m 0,-5e-5 -0.1661,-0.0901 m 0,-8e-5 -0.1711,-0.08 m 0,-4e-5 -0.1755,-0.0701 m 0,-2e-5 -0.1791,-0.0603 m 0,-4e-5 -0.182,-0.0508 m 0,0 -0.1844,-0.0415 m 0,-1.1e-4 -0.1861,-0.0325 m 0,0 -0.1874,-0.0239 m 0,0 -0.1883,-0.0155 m 0,0 -0.1889,-0.007 m 0,-4.4e-4 -0.1233,-6.3e-4 m 1.1629,-13.27595 -0.8781,0.78569 m 0,0 3.5044,2.90852 m -9e-4,0 0.011,1.19806 m -9e-4,0 -4.0874,-3.47453 m 0,0 -3.6551,3.25731 m 9e-4,0 -0.011,-1.20941 m 9e-4,0 3.9786,-3.45647 m -1e-4,0 -4.0062,0.0323 m 0,0 -0.011,-0.96374 m 0,-5e-5 7.7403,-0.0624 m 0,-4e-5 0.011,0.96375 m 0,4e-5 -2.5963,0.0209 m 2.5786,-2.22377 -0.8579,0.006 m -3e-4,5.2e-4 -0.029,-3.60177 m -3e-4,-5e-5 -6.8823,0.0556 m 0,-5e-5 -0.011,-0.96375 m 0,-5e-5 7.7401,-0.0624 m -4e-4,-5e-5 0.037,4.56552 m 0.5957,13.92699 -0.053,-6.61774 m -1e-4,1.7e-4 0.6387,-0.005 m 2e-4,1.7e-4 0.053,6.61774 m 1e-4,-1.7e-4 -0.6387,0.005 m -8.036,23.43372 -0.047,-5.8732 m -4e-4,5.2e-4 0.8617,-0.007 m 6e-4,5.2e-4 0.019,2.44905 m 5e-4,-3e-5 6.8785,-0.0555 m 0,-2e-5 0.011,0.96374 m 0,3e-5 -6.8785,0.0555 m -5e-4,3e-5 0.02,2.46039"
       inkscape:connector-curvature="0" />
    <path
       id="path5170"
       style="fill:none;stroke:#000000;stroke-width:1.06666672"
       d="m 106.29313,894.78463 v 208.24427 m 0,0 H 67.732333 m 0,0 V 894.78463 m 0,0 h 38.560797"
       inkscape:connector-curvature="0" />
    <path
       id="path5618"
       style="fill:none;stroke:#ff0000;stroke-width:0.75590551;stroke-miterlimit:4;stroke-dasharray:none;stroke-opacity:1"
       d="m 115.37463,844.24928 -0.4753,-0.82013 m 0,0 0.1536,-0.10989 m 0,0 0.1449,-0.12133 m 0,0 0.1353,-0.13186 m 0,0 0.1252,-0.14153 m 0,0 0.1144,-0.15032 m -3e-4,0 0.1035,-0.15828 m -7e-4,0 0.092,-0.16534 m -1e-4,0 0.079,-0.17156 m 5e-4,0 0.066,-0.17688 m 4e-4,0 0.053,-0.18126 m 0,0 0.04,-0.18467 m 0,0 0.027,-0.1871 m -10e-4,0 0.013,-0.18851 m 0,-3e-5 0.001,-0.0989 m -0.001,-2e-5 -0.011,-0.1888 m 0,0 -0.019,-0.18794 m 0,0 -0.032,-0.1863 m 0,0 -0.044,-0.18382 m 0,0 -0.056,-0.18046 m -1e-4,0 -0.068,-0.1763 m 6e-4,0 -0.08,-0.17128 m -4e-4,0 -0.091,-0.16547 m -4e-4,0 -0.1024,-0.15892 m 3e-4,0 -0.1127,-0.15169 m 0,0 -0.1225,-0.14385 m 0,0 -0.1317,-0.13547 m 0,0 -0.1402,-0.12666 m 0,0 -0.1481,-0.11744 m 0,0 -0.155,-0.10794 m 0,0 -0.1614,-0.0982 m 0,4e-5 -0.167,-0.0884 m 0,0 -0.1719,-0.0784 m 0,-4e-5 -0.1762,-0.0685 m 0,0 -0.1796,-0.0586 m 0,1e-5 -0.1825,-0.0488 m 0,0 -0.1849,-0.039 m 0,0 -0.1866,-0.0295 m 0,0 -0.188,-0.0202 m 0,-1.1e-4 -0.1885,-0.0111 m 0,-3.2e-4 -0.1783,-0.002 m 0,0 -0.1889,0.005 m 0,4.2e-4 -0.1884,0.0145 m 0,0 -0.1875,0.0235 m 0,0 -0.1861,0.0326 m 0,0 -0.1842,0.0421 m 0,0 -0.1817,0.0517 m 0,7e-5 -0.1786,0.0614 m 0,6e-5 -0.1751,0.0714 m 0,-10e-6 -0.1705,0.0813 m 0,-6e-5 -0.1655,0.0912 m 0,-10e-5 -0.1598,0.10101 m 0,-5e-5 -0.1531,0.11061 m 0,0 -0.146,0.12005 m 0,0 -0.1379,0.12915 m 0,0 -0.1292,0.13789 m 0,0 -0.1196,0.14613 m 0,0 -0.1098,0.15381 m 10e-5,0 -0.099,0.16088 m -3e-4,0 -0.088,0.16723 m 0,0 -0.077,0.17282 m 10e-4,0 -0.065,0.17759 m 4e-4,0 -0.052,0.18154 m 0,0 -0.041,0.18462 m 0,0 -0.028,0.18687 m 0,0 -0.016,0.18826 m 0,0 v 0.184 m -0.011,0 0.011,0.18874 m 0,0 0.022,0.18759 m 0,0 0.036,0.1854 m 0,0 0.05,0.18221 m 1e-4,0 0.063,0.17805 m 5e-4,0 0.076,0.17299 m -1e-4,0 0.089,0.16707 m -5e-4,0 0.1003,0.16031 m -2e-4,0 0.1111,0.15278 m 0,0 0.1218,0.14442 m 0,0 0.1319,0.1353 m 0,0 0.1414,0.12531 m 0,0 0.1503,0.11445 m 1e-4,-5e-5 0.08,0.0541 m 1e-4,-4e-5 -0.4621,0.81635 m 0,0 -0.1539,-0.10953 m 0,0 -0.1489,-0.1164 m 0,0 -0.1432,-0.12334 m 0,0 -0.1368,-0.1303 m 0,0 -0.1299,-0.13722 m 0,0 -0.1224,-0.14397 m 0,0 -0.1142,-0.15052 m 10e-5,0 -0.1056,-0.15674 m -2e-4,0 -0.096,-0.16255 m -8e-4,0 -0.086,-0.16785 m -5e-4,0 -0.077,-0.17258 m 2e-4,0 -0.067,-0.1767 m -1e-4,0 -0.057,-0.18018 m 0,0 -0.047,-0.18303 m 0,0 -0.037,-0.18525 m 0,0 -0.028,-0.18691 m 0,0 -0.018,-0.18804 m 0,0 -0.011,-0.1887 m 0,0 v -0.0982 m 7e-4,0 v -0.18895 m 0,0 0.011,-0.18864 m 0,0 0.019,-0.18797 m 0,0 0.028,-0.18689 m 0,0 0.036,-0.1854 m 0,0 0.045,-0.18348 m 0,0 0.054,-0.18111 m -9e-4,0 0.063,-0.1783 m -6e-4,0 0.072,-0.17504 m -6e-4,0 0.08,-0.17132 m -6e-4,0 0.089,-0.16715 m -1e-4,0 0.096,-0.16254 m 2e-4,0 0.1046,-0.15748 m -10e-5,0 0.1122,-0.15201 m 0,0 0.1198,-0.14614 m 0,0 0.127,-0.13991 m 0,0 0.1339,-0.13331 m 0,0 0.1404,-0.1264 m 0,0 0.1467,-0.11921 m 0,0 0.1523,-0.11179 m 0,-3e-5 0.1577,-0.1041 m 0,-5e-5 0.1625,-0.0963 m 0,2e-5 0.1671,-0.0884 m 0,7e-5 0.171,-0.0804 m 0,4e-5 0.1746,-0.0723 m 0,-4e-5 0.1776,-0.0642 m 0,-5e-5 0.1805,-0.0562 m 0,-1.1e-4 0.1826,-0.0482 m 0,0 0.1846,-0.0404 m 0,0 0.1861,-0.0326 m 0,0 0.1874,-0.0251 m 0,0 0.1881,-0.0176 m 0,2.2e-4 0.1886,-0.0107 m 0,3.2e-4 0.1445,-0.003 m 0,0 0.189,0.002 m 0,3.2e-4 0.1887,0.009 m 0,5.3e-4 0.1883,0.0164 m 0,0 0.1874,0.0239 m 0,0 0.1864,0.0316 m 0,0 0.1848,0.0394 m 0,0 0.183,0.0474 m 0,0 0.1805,0.0554 m 0,6e-5 0.1781,0.0635 m 0,-10e-6 0.1748,0.0717 m 0,-6e-5 0.1713,0.0798 m 0,-6e-5 0.1673,0.0879 m 0,-8e-5 0.1628,0.0959 m 0,-10e-6 0.158,0.10368 m 0,3e-5 0.1526,0.11139 m 0,0 0.1469,0.11888 m 0,0 0.1407,0.12611 m 0,0 0.1342,0.13304 m 0,0 0.1273,0.13965 m 0,0 0.1201,0.14592 m 0,0 0.1125,0.15181 m 1e-4,0 0.1045,0.15728 m -2e-4,0 0.097,0.16233 m -4e-4,0 0.089,0.16697 m 0,0 0.08,0.17113 m 2e-4,0 0.072,0.17487 m 2e-4,0 0.063,0.17815 m 10e-5,0 0.054,0.18096 m 0,0 0.046,0.18334 m 0,0 0.037,0.18528 m 0,0 0.029,0.18679 m 0,0 0.02,0.18788 m 0,0 0.012,0.18861 m 0,0 v 0.13864 m 9e-4,0 v 0.18895 m 0,0 -0.011,0.18865 m -0.001,0 -0.019,0.18793 m 0,0 -0.029,0.18673 m 0,0 -0.038,0.185 m 0,0 -0.048,0.18262 m -4e-4,0 -0.059,0.17964 m -5e-4,0 -0.068,0.17598 m -5e-4,0 -0.079,0.17169 m -2e-4,0 -0.088,0.1668 m -3e-4,0 -0.098,0.16141 m -1e-4,0 -0.1072,0.15557 m 0,0 -0.1156,0.14943 m 0,0 -0.1234,0.14311 m 0,0 -0.1305,0.13667 m 0,0 -0.1368,0.13026 m 0,0 -0.1427,0.12396 m 0,0 -0.1477,0.11782 m 0,-3e-5 -0.083,0.0623 m -6.2314,24.17199 -0.011,-0.98642 m 0,-4e-5 7.7402,-0.0624 m 0,-5e-5 0.011,0.96375 m 0,0 -6.2398,0.0504 m -2e-4,0 6.2763,4.46604 m 0,0 0.011,0.92973 m 0,5e-5 -7.7403,0.0624 m 0,6e-5 -0.011,-0.96376 m 0,2e-5 6.1188,-0.0494 m -2e-4,2e-5 -6.1548,-4.41034 m -0.019,-2.68337 -0.011,-0.96374 m 0,-5e-5 7.7403,-0.0624 m 0,-6e-5 0.011,0.96376 m 0,4e-5 -7.7402,0.0624 m -0.072,-8.9118 -0.011,-1.20941 m 0.001,0 3.9785,-3.45645 m -1e-4,0 -4.0062,0.0323 m 0,0 -0.011,-0.96375 m 0,-5e-5 7.7401,-0.0624 m 0,-6e-5 0.011,0.96375 m 0,4e-5 -2.5964,0.0209 m 0,4e-5 -0.8782,0.7857 m 0,0 3.5046,2.90851 m -0.001,0 0.011,1.19807 m -0.001,0 -4.0873,-3.47454 m 0,0 -3.6552,3.25731 m -0.092,-11.40251 7.7401,-0.0624 m -4e-4,-4e-5 0.037,4.56552 m -5e-4,5.2e-4 -0.8579,0.006 m -3e-4,5.2e-4 -0.029,-3.60177 m -3e-4,-4e-5 -6.8823,0.0556 m 0,-4e-5 -0.011,-0.96376 m 9.0148,18.42473 -0.6387,0.005 m -10e-5,-1.8e-4 -0.053,-6.61774 m -10e-5,1.8e-4 0.6387,-0.005 m 10e-5,1.8e-4 0.053,6.61774"
       inkscape:connector-curvature="0" />
  </g>
</svg>
