<?xml version="1.0" encoding="UTF-8" standalone="no"?>
<svg
   xmlns:dc="http://purl.org/dc/elements/1.1/"
   xmlns:cc="http://creativecommons.org/ns#"
   xmlns:rdf="http://www.w3.org/1999/02/22-rdf-syntax-ns#"
   xmlns:svg="http://www.w3.org/2000/svg"
   xmlns="http://www.w3.org/2000/svg"
   xmlns:sodipodi="http://sodipodi.sourceforge.net/DTD/sodipodi-0.dtd"
   xmlns:inkscape="http://www.inkscape.org/namespaces/inkscape"
   width="62mm"
   height="88mm"
   id="svg2"
   version="1.1"
   inkscape:version="0.92.2 5c3e80d, 2017-08-06"
   sodipodi:docname="LUHC-01_Side_Support.svg">
  <metadata
     id="metadata5622">
    <rdf:RDF>
      <cc:Work
         rdf:about="">
        <dc:format>image/svg+xml</dc:format>
        <dc:type
           rdf:resource="http://purl.org/dc/dcmitype/StillImage" />
        <dc:title />
      </cc:Work>
    </rdf:RDF>
  </metadata>
  <sodipodi:namedview
     pagecolor="#ffffff"
     bordercolor="#666666"
     borderopacity="1"
     objecttolerance="10"
     gridtolerance="10"
     guidetolerance="10"
     inkscape:pageopacity="0"
     inkscape:pageshadow="2"
     inkscape:window-width="1600"
     inkscape:window-height="849"
     id="namedview5620"
     showgrid="true"
     inkscape:zoom="2.0445076"
     inkscape:cx="38.662341"
     inkscape:cy="157.21034"
     inkscape:window-x="0"
     inkscape:window-y="0"
     inkscape:window-maximized="1"
     inkscape:current-layer="layer5"
     units="mm"
     inkscape:document-units="mm">
    <inkscape:grid
       type="xygrid"
       id="grid38117"
       units="mm" />
  </sodipodi:namedview>
  <desc
     id="desc4">C:\Users\Dave\Documents\GitHub\LimeSDR-USB_Hacker_Case\LUHC-01_Side_Slot_CLK_SMA.dxf - scale = 1.000000, origin = (0.000000, 0.000000), auto = False</desc>
  <defs
     id="defs6">
    <marker
       refY="0"
       refX="0"
       style="overflow:visible"
       id="DistanceX"
       orient="auto">
      <path
         style="stroke:#000000;stroke-width:0.53333336"
         d="M 3.2,-3.2 -3.2,3.2 M 0,-5.3333333 V 5.3333333"
         id="path9"
         inkscape:connector-curvature="0" />
    </marker>
    <pattern
       height="8"
       width="8"
       patternUnits="userSpaceOnUse"
       y="0"
       x="0"
       id="Hatch">
      <path
         linecap="square"
         stroke="#000000"
         stroke-width="0.25"
         d="M8 4 l-4,4"
         id="path12" />
      <path
         linecap="square"
         stroke="#000000"
         stroke-width="0.25"
         d="M6 2 l-4,4"
         id="path14" />
      <path
         linecap="square"
         stroke="#000000"
         stroke-width="0.25"
         d="M4 0 l-4,4"
         id="path16" />
    </pattern>
    <symbol
       id="*MODEL_SPACE" />
    <symbol
       id="*PAPER_SPACE" />
  </defs>
  <g
     inkscape:label="Border"
     inkscape:groupmode="layer"
     id="g20"
     transform="translate(0,-789.92122)"
     style="display:inline">
    <path
       id="path1652"
       style="fill:none;stroke:#000000;stroke-width:1.06582677;stroke-miterlimit:4;stroke-dasharray:none"
       d="m 0.54863336,823.39879 v 11.33859 m 0,0 v 0.1889 m 0,0 0.014,0.18842 m 0,0 0.023,0.18748 m 0,0 0.033,0.18607 m 0,0 0.043,0.1842 m 0,0 0.051,0.18185 m -3e-4,0 0.061,0.17907 m -6e-4,0 0.069,0.17582 m -10e-5,0 0.078,0.17215 m 0,0 0.086,0.16804 m -2e-4,0 0.095,0.16351 m 2e-4,0 0.1024,0.15856 m 4e-4,0 0.1105,0.15324 m 0,0 0.1181,0.14753 m 0,0 0.1253,0.14143 m 0,0 0.1322,0.135 m 0,0 0.1389,0.12821 m 0,0 0.1449,0.12112 m 0,0 0.151,0.11373 m 0,0 0.1563,0.10603 m 0,-5e-5 0.1615,0.0981 m 0,-8e-5 0.1663,0.0899 m 0,-4e-5 0.1705,0.0815 m 0,-10e-6 0.1743,0.0729 m 0,4e-5 0.1778,0.064 m 0,8e-5 0.1808,0.055 m 0,0 0.1832,0.046 m 0,0 0.1853,0.0368 m 0,0 0.187,0.0274 m 0,0 0.188,0.0181 m 0,1.1e-4 0.1888,0.009 m -3e-4,2.6e-4 0.079,8.1e-4 m -4e-4,0 h 7.5590996 m 0,0 v 37.79527 m 0,0 H 4.3224334 m 0,0 -0.1889,0.004 m 0,4.3e-4 -0.1884,0.0142 m 0,0 -0.1875,0.0236 m 0,0 -0.1861,0.0328 m 0,1.1e-4 -0.1841,0.0421 m 0,0 -0.1819,0.0513 m 0,-4e-5 -0.1791,0.0604 m 0,-5e-5 -0.1757,0.0692 m 0,3e-5 -0.1722,0.0779 m 0,5e-5 -0.1681,0.0864 m 0,0 -0.1635,0.0947 m 0,4e-5 -0.1585,0.10272 m 0,4e-5 -0.1533,0.11056 m 0,0 -0.1475,0.11808 m 0,0 -0.1415,0.1253 m 0,0 -0.1349,0.13221 m 0,0 -0.1282,0.13881 m 0,0 -0.1212,0.14502 m 0,0 -0.1137,0.15091 m -4e-4,0 -0.1056,0.1564 m -5e-4,0 -0.098,0.1615 m -2e-4,0 -0.09,0.16621 m -6e-4,0 -0.081,0.17049 m -8e-4,0 -0.072,0.17434 m -4e-4,0 -0.064,0.17778 m 3e-4,0 -0.055,0.18075 m 0,0 -0.046,0.18328 m 0,0 -0.036,0.18534 m 0,0 -0.028,0.18695 m 0,0 -0.018,0.1881 m 0,0 -0.011,0.18876 m 7e-4,-2e-5 -7e-4,0.0786 m 0,-2e-5 v 11.33858 m 0,0 v 0.1889 m 0,0 0.014,0.18842 m 0,0 0.024,0.18749 m 0,0 0.033,0.18607 m 0,0 0.043,0.18419 m 0,0 0.051,0.18186 m -4e-4,0 0.061,0.17906 m -5e-4,0 0.069,0.17583 m -10e-5,0 0.078,0.17215 m 0,0 0.086,0.16803 m -2e-4,0 0.095,0.16351 m 2e-4,0 0.1024,0.15857 m 5e-4,0 0.1105,0.15324 m 0,0 0.1181,0.14752 m 0,0 0.1253,0.14144 m 0,0 0.1321,0.13498 m 0,0 0.1389,0.12823 m 0,0 0.145,0.12112 m 0,0 0.1509,0.11372 m 0,1e-5 0.1564,0.10602 m 0,-3e-5 0.1615,0.0981 m 0,-7e-5 0.1663,0.0899 m 0,-5e-5 0.1704,0.0815 m 0,-2e-5 0.1743,0.0728 m 0,-5e-5 0.1778,0.0641 m 0,-2e-5 0.1808,0.055 m 0,0 0.1833,0.046 m 0,0 0.1853,0.0368 m 0,0 0.187,0.0274 m 0,1.1e-4 0.188,0.018 m 0,2.2e-4 0.1888,0.009 m -3e-4,2.5e-4 0.079,8.2e-4 m -3e-4,0 h 7.5589996 m 0,0 v 37.79527 m 0,0 H 4.3159334 m 0,0 -0.1889,0.004 m 0,4.2e-4 -0.1885,0.0142 m 0,0 -0.1874,0.0236 m 0,0 -0.1861,0.0329 m 0,1e-4 -0.1841,0.0421 m 0,0 -0.1819,0.0513 m 0,-3e-5 -0.1791,0.0604 m 0,-7e-5 -0.1758,0.0692 m 0,3e-5 -0.1721,0.0779 m 0,6e-5 -0.1681,0.0864 m 0,0 -0.1636,0.0947 m 0,3e-5 -0.1585,0.10272 m 0,5e-5 -0.1533,0.11056 m 0,0 -0.1475,0.11808 m 0,0 -0.1414,0.1253 m 0,0 -0.1349,0.13221 m 0,0 -0.1283,0.1388 m 0,0 -0.1211,0.14503 m 0,0 -0.1137,0.1509 m -5e-4,0 -0.1056,0.15641 m -4e-4,0 -0.098,0.1615 m -2e-4,0 -0.09,0.16621 m -7e-4,0 -0.081,0.17048 m -8e-4,0 -0.072,0.17435 m -5e-4,0 -0.064,0.17777 m 4e-4,0 -0.055,0.18075 m 0,0 -0.046,0.18328 m -0.001,0 -0.036,0.18535 m 0,0 -0.028,0.18695 m 0,0 -0.018,0.18809 m 0,0 -0.011,0.18875 m 7e-4,-10e-6 -7e-4,0.0786 m 0,-10e-6 v 11.33858 m 0,0 v 0.18889 m 0.011,0 0.014,0.18843 m 0,0 0.024,0.18748 m 0,0 0.033,0.18607 m -0.001,0 0.043,0.1842 m 0,0 0.051,0.18186 m -3e-4,0 0.061,0.17906 m -5e-4,0 0.069,0.17582 m -10e-5,0 0.078,0.17216 m 0,0 0.086,0.16803 m -2e-4,0 0.095,0.16351 m 2e-4,0 0.1024,0.15857 m 4e-4,0 0.1105,0.15324 m 0,0 0.1181,0.14752 m 0,0 0.1254,0.14142 m 0,0 0.1321,0.135 m 0,0 0.1389,0.12822 m 0,0 0.145,0.12113 m 0,0 0.1509,0.11371 m 0,10e-6 0.1564,0.10603 m 0,-4e-5 0.1615,0.0981 m 0,-7e-5 0.1662,0.0899 m 0,-5e-5 0.1705,0.0815 m 0,-2e-5 0.1743,0.0729 m 0,4e-5 0.1778,0.064 m 0,9e-5 0.1808,0.055 m 0,0 0.1833,0.046 m 0,0 0.1852,0.0368 m 0,0 0.187,0.0274 m 0,1.1e-4 0.1881,0.018 m 0,2.1e-4 0.1888,0.009 m -3e-4,2.6e-4 0.079,8.1e-4 m -3e-4,0 h 7.5589996 m 0,0 v 37.79529 m 0,0 H 4.3184334 m 0,0 -0.1889,0.004 m 0,4.3e-4 -0.1885,0.0142 m 0,0 -0.1874,0.0236 m 0,0 -0.1862,0.0328 m 0,1.1e-4 -0.1841,0.0421 m 0,0 -0.1818,0.0513 m 0,-3e-5 -0.1791,0.0604 m 0,-5e-5 -0.1758,0.0692 m 0,3e-5 -0.1722,0.0779 m 0,7e-5 -0.1681,0.0864 m 0,0 -0.1635,0.0947 m 0,2e-5 -0.1585,0.10272 m 0,4e-5 -0.1533,0.11056 m 0,0 -0.1475,0.11808 m 0,0 -0.1414,0.1253 m 0,0 -0.135,0.13223 m 0,0 -0.1282,0.13879 m 0,0 -0.1212,0.14503 m 0,0 -0.1137,0.15091 m -4e-4,0 -0.1056,0.1564 m -4e-4,0 -0.098,0.16151 m -2e-4,0 -0.09,0.16619 m -6e-4,0 -0.081,0.1705 m -7e-4,0 -0.073,0.17435 m -4e-4,0 -0.064,0.17777 m 3e-4,0 -0.055,0.18074 m 0,0 -0.046,0.18328 m 0,0 -0.036,0.18535 m 0,0 -0.028,0.18695 m 0,0 -0.018,0.18809 m 0,0 -0.011,0.18876 m 8e-4,-2e-5 -8e-4,0.0786 m 0,-2e-5 v 11.3386 m 0,0 v 0.1889 m 0.011,0 0.014,0.1884 m 0,0 0.023,0.1875 m 0,0 0.033,0.1861 m 0,0 0.043,0.1842 m 0,0 0.051,0.1818 m -4e-4,0 0.061,0.1791 m -5e-4,0 0.069,0.1758 m -10e-5,0 0.078,0.1722 m 0,0 0.086,0.168 m -2e-4,0 0.095,0.1635 m 2e-4,0 0.1024,0.1586 m 5e-4,0 0.1105,0.1532 m 0,0 0.1181,0.1475 m 0,0 0.1253,0.1415 m 0,0 0.1321,0.135 m 0,0 0.1389,0.1282 m 0,0 0.145,0.1211 m 0,0 0.1509,0.1137 m 0,0 0.1564,0.106 m 0,0 0.1615,0.098 m 0,-1e-4 0.1663,0.09 m 0,0 0.1704,0.082 m 0,0 0.1743,0.073 m 0,-10e-5 0.1778,0.064 m 0,0 0.1808,0.055 m 0,0 0.1833,0.046 m 0,0 0.1853,0.037 m 0,0 0.187,0.027 m 0,10e-5 0.188,0.018 m 0,2e-4 0.1888,0.01 m -3e-4,3e-4 0.079,8e-4 m -3e-4,0 h 7.5589996 m 0,0 v 37.7953 m 0,0 H 4.3210334 m 0,0 h -0.1889 m 0,4e-4 -0.1885,0.014 m 0,0 -0.1874,0.024 m 0,0 -0.1861,0.033 m 0,10e-5 -0.1841,0.042 m 0,0 -0.1819,0.051 m 0,0 -0.1791,0.06 m 0,-10e-5 -0.1758,0.069 m 0,0 -0.1721,0.078 m 0,10e-5 -0.1681,0.086 m 0,0 -0.1636,0.095 m 0,0 -0.1585,0.1027 m 0,10e-5 -0.1533,0.1105 m 0,0 -0.1475,0.1181 m 0,0 -0.1414,0.1253 m 0,0 -0.1349,0.1322 m 0,0 -0.1283,0.1388 m 0,0 -0.1211,0.1451 m 0,0 -0.1137,0.1509 m -5e-4,0 -0.1056,0.1564 m -4e-4,0 -0.098,0.1615 m -2e-4,0 -0.09,0.1662 m -7e-4,0 -0.081,0.1705 m -8e-4,0 -0.072,0.1743 m -5e-4,0 -0.064,0.1778 m 4e-4,0 -0.055,0.1807 m 0,0 -0.046,0.1833 m 0,0 -0.036,0.1854 m 0,0 -0.028,0.1869 m 0,0 -0.018,0.1881 m 0,0 -0.011,0.1888 m 8e-4,-10e-5 -8e-4,0.079 m 0,0 v 11.3386 m 0,0 v 0.1889 m 0.011,0 0.014,0.1884 m 0,0 0.023,0.1875 m 0,0 0.033,0.1861 m 0,0 0.043,0.1842 m 0,0 0.051,0.1818 m -3e-4,0 0.061,0.1791 m -6e-4,0 0.069,0.1758 m -10e-5,0 0.078,0.1722 m 0,0 0.086,0.168 m -2e-4,0 0.095,0.1635 m 2e-4,0 0.1024,0.1586 m 4e-4,0 0.1105,0.1532 m 0,0 0.1181,0.1475 m 0,0 0.1253,0.1415 m 0,0 0.1322,0.135 m 0,0 0.1389,0.1282 m 0,0 0.1449,0.1211 m 0,0 0.151,0.1137 m 0,0 0.1563,0.1061 m 0,-10e-5 0.1615,0.098 m 0,0 0.1663,0.09 m 0,-10e-5 0.1705,0.082 m 0,0 0.1743,0.073 m 0,-10e-5 0.1778,0.064 m 0,0 0.1808,0.055 m 0,0 0.1832,0.046 m 0,0 0.1853,0.037 m 0,0 0.187,0.027 m 0,10e-5 0.188,0.018 m 0,2e-4 0.1888,0.01 m -3e-4,3e-4 0.079,8e-4 m -4e-4,0 h 7.5590996 m 0,0 v 37.7953 m 0,0 H 4.3242334 m 0,0 h -0.1889 m 0,4e-4 -0.1884,0.014 m 0,0 -0.1875,0.024 m 0,0 -0.1861,0.033 m 0,10e-5 -0.1841,0.042 m 0,0 -0.1819,0.051 m 0,-10e-5 -0.1791,0.06 m 0,0 -0.1757,0.069 m 0,0 -0.1722,0.078 m 0,10e-5 -0.1681,0.086 m 0,0 -0.1635,0.095 m 0,0 -0.1585,0.1027 m 0,10e-5 -0.1533,0.1105 m 0,0 -0.1475,0.1181 m 0,0 -0.1415,0.1253 m 0,0 -0.1349,0.1322 m 0,0 -0.1282,0.1388 m 0,0 -0.1212,0.1451 m 0,0 -0.1137,0.1509 m -4e-4,0 -0.1056,0.1564 m -5e-4,0 -0.098,0.1615 m -2e-4,0 -0.09,0.1662 m -6e-4,0 -0.081,0.1705 m -8e-4,0 -0.073,0.1743 m -4e-4,0 -0.064,0.1778 m 3e-4,0 -0.056,0.1807 m 0,0 -0.046,0.1833 m 0,0 -0.036,0.1854 m 0,0 -0.028,0.1869 m 0,0 -0.018,0.1881 m 0,0 -0.011,0.1888 m 7e-4,-10e-5 -7e-4,0.079 m 0,0 v 11.3386 m 0,0 v 0.1889 m 0,0 0.014,0.1884 m 0,0 0.023,0.1875 m 0,0 0.033,0.1861 m 0,0 0.043,0.1842 m 0,0 0.051,0.1818 m -3e-4,0 0.061,0.1791 m -6e-4,0 0.069,0.1758 m -10e-5,0 0.078,0.1722 m 0,0 0.086,0.168 m -2e-4,0 0.095,0.1635 m 2e-4,0 0.1024,0.1586 m 4e-4,0 0.1105,0.1532 m 0,0 0.1181,0.1475 m 0,0 0.1253,0.1415 m 0,0 0.1322,0.135 m 0,0 0.1389,0.1282 m 0,0 0.1449,0.1211 m 0,0 0.151,0.1137 m 0,0 0.1563,0.1061 m 0,0 0.1615,0.098 m 0,10e-5 0.1663,0.09 m 0,-10e-5 0.1705,0.082 m 0,0 0.1743,0.073 m 0,10e-5 0.1778,0.064 m 0,0 0.1808,0.055 m 0,0 0.1832,0.046 m 0,0 0.1853,0.037 m 0,0 0.187,0.027 m 0,0 0.188,0.018 m 0,10e-5 0.1888,0.01 m -3e-4,3e-4 0.079,8e-4 m -4e-4,0 h 7.5590996 m 0,0 H 125.25943 m -0.011,0 h 7.5591 m 0,0 h 0.1889 m 0,-4e-4 0.1885,-0.014 m 0,10e-5 0.1874,-0.024 m 0,0 0.1861,-0.033 m 0,-10e-5 0.1842,-0.042 m 0,0 0.1818,-0.051 m 0,0 0.1791,-0.06 m 0,10e-5 0.1759,-0.069 m 0,0 0.172,-0.078 m 0,-10e-5 0.1681,-0.086 m 0,0 0.1635,-0.095 m 0,0 0.1585,-0.1027 m 0,-10e-5 0.1533,-0.1105 m 0,0 0.1475,-0.1181 m 0,0 0.1415,-0.1253 m 0,0 0.1349,-0.1322 m 0,0 0.1282,-0.1388 m 0,0 0.1212,-0.1451 m 0,0 0.1137,-0.1509 m 4e-4,0 0.1056,-0.1564 m 5e-4,0 0.098,-0.1615 m 2e-4,0 0.09,-0.1662 m 7e-4,0 0.081,-0.1705 m 8e-4,0 0.072,-0.1743 m 4e-4,0 0.064,-0.1778 m -3e-4,0 0.055,-0.1807 m 0,0 0.046,-0.1833 m 0,0 0.036,-0.1854 m 0,0 0.028,-0.1869 m 0,0 0.018,-0.1881 m 0,0 0.011,-0.1887 m -7e-4,0 7e-4,-0.079 m 0,0 v -11.3386 m 0,0 v -0.1889 m -0.011,0 -0.014,-0.1884 m 0,0 -0.024,-0.1875 m 0,0 -0.033,-0.1861 m 0,0 -0.042,-0.1842 m 0,0 -0.051,-0.1818 m 4e-4,0 -0.061,-0.1791 m 5e-4,0 -0.069,-0.1758 m 1e-4,0 -0.078,-0.1721 m 0,0 -0.086,-0.1681 m 2e-4,0 -0.095,-0.1635 m -2e-4,0 -0.1024,-0.1586 m -5e-4,0 -0.1105,-0.1532 m 0,0 -0.118,-0.1475 m 0,0 -0.1254,-0.1415 m 0,0 -0.1321,-0.135 m 0,0 -0.1389,-0.1282 m 0,0 -0.145,-0.1211 m 0,0 -0.1509,-0.1137 m 0,0 -0.1564,-0.106 m 0,0 -0.1615,-0.098 m 0,10e-5 -0.1662,-0.09 m 0,0 -0.1705,-0.082 m 0,0 -0.1743,-0.073 m 0,0 -0.1778,-0.064 m 0,-10e-5 -0.1807,-0.055 m 0,0 -0.1834,-0.046 m 0,0 -0.1853,-0.037 m 0,0 -0.187,-0.027 m 0,0 -0.188,-0.018 m 0,-10e-5 -0.1888,-0.01 m 3e-4,-3e-4 -0.079,-8e-4 m 3e-4,0 h -7.559 m 0,0 v -37.7952 m 0,0 h 7.559 m 0,0 h 0.1889 m 0,-5e-4 0.1885,-0.014 m 0,0 0.1874,-0.024 m 0,0 0.1861,-0.033 m 0,-10e-5 0.1842,-0.042 m 0,0 0.1818,-0.051 m 0,10e-5 0.1791,-0.06 m 0,0 0.1759,-0.069 m 0,0 0.172,-0.078 m 0,-10e-5 0.1682,-0.086 m 0,0 0.1635,-0.095 m 0,0 0.1585,-0.1027 m 0,-10e-5 0.1533,-0.1105 m 0,0 0.1475,-0.1181 m 0,0 0.1414,-0.1253 m 0,0 0.135,-0.1322 m 0,0 0.1282,-0.1388 m 0,0 0.1211,-0.1451 m 0,0 0.1137,-0.1509 m 5e-4,0 0.1056,-0.1564 m 4e-4,0 0.098,-0.1615 m 2e-4,0 0.09,-0.1662 m 7e-4,0 0.081,-0.1705 m 7e-4,0 0.072,-0.1743 m 5e-4,0 0.064,-0.1778 m -4e-4,0 0.056,-0.1807 m 0,0 0.046,-0.1833 m 0.001,0 0.036,-0.1854 m 0,0 0.028,-0.1869 m 0,0 0.018,-0.1881 m 0,0 0.011,-0.1888 m -7e-4,10e-5 7e-4,-0.079 m 0,0 v -11.3386 m 0,0 v -0.1889 m 0,0 -0.014,-0.1884 m 0,0 -0.024,-0.1875 m 0,0 -0.033,-0.1861 m 0,0 -0.042,-0.1842 m -10e-4,0 -0.051,-0.1818 m 3e-4,0 -0.061,-0.1791 m 5e-4,0 -0.069,-0.1758 m 1e-4,0 -0.078,-0.1722 m 0,0 -0.086,-0.168 m 2e-4,0 -0.095,-0.1635 m -2e-4,0 -0.1024,-0.1586 m -4e-4,0 -0.1105,-0.1532 m 0,0 -0.1181,-0.1475 m 0,0 -0.1253,-0.1415 m 0,0 -0.1322,-0.135 m 0,0 -0.1389,-0.1282 m 0,0 -0.1449,-0.1211 m 0,0 -0.151,-0.1137 m 0,0 -0.1564,-0.1061 m 0,10e-5 -0.1614,-0.098 m 0,0 -0.1662,-0.09 m 0,10e-5 -0.1706,-0.082 m 0,0 -0.1743,-0.073 m 0,0 -0.1778,-0.064 m 0,-10e-5 -0.1807,-0.055 m 0,0 -0.1834,-0.046 m 0,0 -0.1852,-0.037 m 0,0 -0.187,-0.027 m 0,-10e-5 -0.1881,-0.018 m 0,-10e-5 -0.1888,-0.01 m 3e-4,-3e-4 -0.079,-8e-4 m 3e-4,0 h -7.559 m 0,0 v -37.7953 m 0,0 h 7.559 m 0,0 h 0.1889 m 0,-4e-4 0.1885,-0.014 m 0,0 0.1874,-0.024 m 0,0 0.1862,-0.033 m 0,-10e-5 0.1842,-0.042 m 0,0 0.1817,-0.051 m 0,0 0.1791,-0.06 m 0,1e-4 0.1759,-0.069 m 0,0 0.1721,-0.078 m 0,10e-5 0.1681,-0.086 m 0,0 0.1635,-0.095 m 0,-1e-4 0.1585,-0.1027 m 0,0 0.1533,-0.1106 m 0,0 0.1475,-0.1181 m 0,0 0.1415,-0.1253 m 0,0 0.1349,-0.1322 m 0,0 0.1282,-0.1388 m 0,0 0.1212,-0.145 m 0,0 0.1137,-0.1509 m 4e-4,0 0.1056,-0.1564 m 4e-4,0 0.098,-0.1615 m 2e-4,0 0.09,-0.1662 m 6e-4,0 0.081,-0.1705 m 7e-4,0 0.073,-0.1744 m 4e-4,0 0.064,-0.1777 m -3e-4,0 0.055,-0.1808 m 0,0 0.046,-0.1833 m 0,0 0.036,-0.1853 m 0,0 0.028,-0.187 m 0,0 0.018,-0.188 m 0,0 0.011,-0.1888 m -7e-4,0 7e-4,-0.079 m 0,0 v -11.33856 m 0,0 v -0.1889 m 0,0 -0.014,-0.18843 m 0,0 -0.023,-0.18747 m 0,0 -0.033,-0.18607 m 0,0 -0.042,-0.18421 m 0,0 -0.051,-0.18185 m 4e-4,0 -0.061,-0.17906 m 5e-4,0 -0.069,-0.17582 m 1e-4,0 -0.078,-0.17216 m 0,0 -0.086,-0.16803 m 2e-4,0 -0.095,-0.16351 m -2e-4,0 -0.1024,-0.15857 m -5e-4,0 -0.1105,-0.15324 m 0,0 -0.118,-0.14752 m 0,0 -0.1254,-0.14143 m 0,0 -0.1321,-0.135 m 0,0 -0.1389,-0.12821 m 0,0 -0.145,-0.12112 m 0,0 -0.1509,-0.11373 m 0,-1e-5 -0.1564,-0.10603 m 0,-6e-5 -0.1615,-0.098 m 0,-3e-5 -0.1662,-0.0899 m 0,4e-5 -0.1705,-0.0815 m 0,2e-5 -0.1743,-0.0729 m 0,-5e-5 -0.1778,-0.064 m 0,-8e-5 -0.1807,-0.055 m 0,0 -0.1834,-0.046 m 0,0 -0.1853,-0.0368 m 0,0 -0.187,-0.0274 m 0,0 -0.188,-0.0181 m 0,-1.1e-4 -0.1888,-0.009 m 3e-4,-2.6e-4 -0.079,-8.1e-4 m 3e-4,0 h -7.559 m 0,0 v -37.79555 m 0,0 h 7.559 m 0,0 0.1889,-0.004 m 0,-4.3e-4 0.1885,-0.0142 m 0,0 0.1874,-0.0236 m 0,0 0.1861,-0.0328 m 0,-1.1e-4 0.1842,-0.0421 m 0,0 0.1818,-0.0513 m 0,4e-5 0.1791,-0.0604 m 0,6e-5 0.1759,-0.0692 m 0,-2e-5 0.172,-0.0779 m 0,-6e-5 0.1682,-0.0864 m 0,0 0.1635,-0.0947 m 0,-2e-5 0.1585,-0.10272 m 0,-5e-5 0.1533,-0.11056 m 0,0 0.1475,-0.11808 m 0,0 0.1414,-0.1253 m 0,0 0.135,-0.13221 m 0,0 0.1282,-0.13881 m 0,0 0.1211,-0.14503 m 0,0 0.1137,-0.1509 m 5e-4,0 0.1056,-0.15641 m 4e-4,0 0.098,-0.1615 m 2e-4,0 0.09,-0.1662 m 7e-4,0 0.081,-0.1705 m 7e-4,0 0.072,-0.17434 m 5e-4,0 0.064,-0.17777 m -4e-4,0 0.055,-0.18075 m 0,0 0.046,-0.18327 m 10e-4,0 0.036,-0.18536 m 0,0 0.028,-0.18694 m 0,0 0.018,-0.1881 m 0,0 0.011,-0.18876 m -7e-4,3e-5 7e-4,-0.0786 m 0,2e-5 v -11.33858 m 0,0 v -0.18889 m 0,0 -0.014,-0.18843 m 0,0 -0.024,-0.18749 m 0,0 -0.033,-0.18607 m 0,0 -0.042,-0.18419 m 0,0 -0.051,-0.18186 m 4e-4,0 -0.061,-0.17907 m 5e-4,0 -0.069,-0.17582 m 1e-4,0 -0.078,-0.17215 m 0,0 -0.086,-0.16804 m 2e-4,0 -0.095,-0.1635 m -2e-4,0 -0.1024,-0.15857 m -5e-4,0 -0.1105,-0.15324 m 0,0 -0.118,-0.14753 m 0,0 -0.1254,-0.14143 m 0,0 -0.1321,-0.13499 m 0,0 -0.1389,-0.12822 m 0,0 -0.145,-0.12112 m 0,0 -0.1509,-0.11372 m 0,0 -0.1564,-0.10603 m 0,4e-5 -0.1615,-0.0981 m 0,7e-5 -0.1662,-0.0899 m 0,5e-5 -0.1705,-0.0815 m 0,2e-5 -0.1743,-0.0728 m 0,-4e-5 -0.1778,-0.064 m 0,-10e-5 -0.1807,-0.055 m 0,0 -0.1834,-0.046 m 0,0 -0.1853,-0.0368 m 0,0 -0.187,-0.0274 m 0,0 -0.188,-0.0181 m 0,-10e-5 -0.1888,-0.009 m 3e-4,-2.5e-4 -0.079,-8.1e-4 m 3e-4,0 h -7.559 m 0,0 v -37.79528 m 0,0 h 7.559 m 0,0 0.1889,-0.004 m 0,-4.2e-4 0.1885,-0.0142 m 0,0 0.1874,-0.0236 m 0,0 0.1861,-0.0329 m 0,-10e-5 0.1842,-0.0421 m 0,0 0.1818,-0.0513 m 0,4e-5 0.1791,-0.0604 m 0,5e-5 0.1759,-0.0692 m 0,-3e-5 0.172,-0.0779 m 0,-5e-5 0.1682,-0.0864 m 0,0 0.1635,-0.0947 m 0,-3e-5 0.1585,-0.10272 m 0,-4e-5 0.1533,-0.11056 m 0,0 0.1475,-0.11808 m 0,0 0.1414,-0.1253 m 0,0 0.135,-0.13222 m 0,0 0.1282,-0.1388 m 0,0 0.1211,-0.14503 m 0,0 0.1137,-0.15091 m 5e-4,0 0.1056,-0.15639 m 4e-4,0 0.098,-0.16151 m 2e-4,0 0.09,-0.16621 m 7e-4,0 0.081,-0.17048 m 7e-4,0 0.072,-0.17435 m 5e-4,0 0.064,-0.17778 m -4e-4,0 0.055,-0.18075 m 0,0 0.046,-0.18327 m 0,0 0.036,-0.18534 m 0,0 0.028,-0.18696 m 0,0 0.018,-0.1881 m 0,0 0.011,-0.18875 m -8e-4,2e-5 8e-4,-0.0786 m 0,2e-5 v -11.33858 m 0,0 v -0.1889 m 0,0 -0.014,-0.18843 m 0,0 -0.024,-0.18749 m 0,0 -0.033,-0.18606 m 0,0 -0.042,-0.1842 m 0,0 -0.051,-0.18185 m 3e-4,0 -0.061,-0.17906 m 6e-4,0 -0.069,-0.17583 m 1e-4,0 -0.078,-0.17215 m 0,0 -0.086,-0.16803 m 2e-4,0 -0.095,-0.16351 m -2e-4,0 -0.1024,-0.15857 m -4e-4,0 -0.1105,-0.15324 m 0,0 -0.1181,-0.14752 m 0,0 -0.1253,-0.14144 m 0,0 -0.1322,-0.13499 m 0,0 -0.1389,-0.12822 m 0,0 -0.1449,-0.12112 m 0,0 -0.1509,-0.11372 m 0,-1e-5 -0.1564,-0.10603 m 0,3e-5 -0.1615,-0.0981 m 0,8e-5 -0.1662,-0.0899 m 0,5e-5 -0.1706,-0.0815 m 0,2e-5 -0.1743,-0.0729 m 0,-5e-5 -0.1778,-0.064 m 0,-8e-5 -0.1807,-0.055 m 0,0 -0.1833,-0.046 m 0,0 -0.1853,-0.0368 m 0,0 -0.187,-0.0274 m 0,-1.1e-4 -0.188,-0.018 m 0,-1.1e-4 -0.1888,-0.009 m 3e-4,-2.5e-4 -0.079,-8.2e-4 m 4e-4,0 h -7.5591 m 0,0 v -37.79528 m 0,0 h 7.5591 m 0,0 0.1889,-0.004 m 0,-4.3e-4 0.1885,-0.0142 m 0,0 0.1874,-0.0236 m 0,0 0.1861,-0.0328 m 0,-1.1e-4 0.1842,-0.0421 m 0,0 0.1818,-0.0513 m 0,3e-5 0.1791,-0.0604 m 0,6e-5 0.1759,-0.0692 m 0,7e-5 0.172,-0.078 m 0,4e-5 0.1681,-0.0864 m 0,0 0.1635,-0.0947 m 0,-3e-5 0.1585,-0.10272 m 0,-4e-5 0.1533,-0.11056 m 0,0 0.1475,-0.11808 m 0,0 0.1415,-0.12531 m 0,0 0.1349,-0.13221 m 0,0 0.1282,-0.13879 m 0,0 0.1212,-0.14504 m 0,0 0.1137,-0.1509 m 4e-4,0 0.1056,-0.1564 m 5e-4,0 0.098,-0.16151 m 2e-4,0 0.09,-0.16621 m 7e-4,0 0.081,-0.17048 m 8e-4,0 0.072,-0.17435 m 4e-4,0 0.064,-0.17777 m -3e-4,0 0.055,-0.18075 m 0,0 0.046,-0.18328 m 0,0 0.036,-0.18535 m 0,0 0.028,-0.18695 m 0,0 0.018,-0.18809 m 0,0 0.011,-0.18875 m -7e-4,2e-5 7e-4,-0.0786 m 0,2e-5 v -11.3386 m -0.027,0 v -0.18889 m 0,0 -0.014,-0.18842 m 0,0 -0.024,-0.18749 m 0,0 -0.033,-0.18606 m 0,0 -0.042,-0.1842 m 0,0 -0.051,-0.18185 m 4e-4,0 -0.061,-0.17907 m 5e-4,0 -0.069,-0.17582 m 1e-4,0 -0.078,-0.17215 m 0,0 -0.086,-0.16805 m 2e-4,0 -0.095,-0.1635 m -2e-4,0 -0.1024,-0.15858 m -5e-4,0 -0.1105,-0.15323 m 0,0 -0.118,-0.14752 m 0,0 -0.1254,-0.14143 m 0,0 -0.1321,-0.135 m 0,0 -0.1389,-0.12821 m 0,0 -0.145,-0.12112 m 0,0 -0.1509,-0.11373 m 0,-10e-6 -0.1564,-0.10603 m 0,-6e-5 -0.1615,-0.098 m 0,-3e-5 -0.1662,-0.0899 m 0,4e-5 -0.1705,-0.0815 m 0,2e-5 -0.1743,-0.0729 m 0,-5e-5 -0.1778,-0.064 m 0,-8e-5 -0.1807,-0.055 m 0,0 -0.1834,-0.046 m 0,0 -0.1853,-0.0368 m 0,0 -0.187,-0.0274 m 0,-10e-5 -0.188,-0.018 m 0,-2.1e-4 -0.1888,-0.009 m 3e-4,-2.5e-4 -0.079,-8.1e-4 m 3e-4,0 h -7.559 m -113.384497,3e-5 H 4.3162334 m 0,0 -0.1889,0.004 m 0,4.3e-4 -0.1885,0.0142 m 0,0 -0.1874,0.0236 m 0,-1.1e-4 -0.1861,0.033 m 0,0 -0.1841,0.0421 m 0,0 -0.1819,0.0513 m 0,-3e-5 -0.1791,0.0604 m 0,-6e-5 -0.1758,0.0692 m 0,2e-5 -0.1722,0.0779 m 0,6e-5 -0.1681,0.0864 m 0,1e-5 -0.1635,0.0947 m 0,3e-5 -0.1585,0.10272 m 0,5e-5 -0.1533,0.11055 m 0,0 -0.1475,0.11808 m 0,0 -0.1414,0.1253 m 0,0 -0.135,0.13222 m 0,0 -0.1282,0.1388 m 0,0 -0.1211,0.14503 m 0,0 -0.1138,0.1509 m -4e-4,0 -0.1056,0.15641 m -4e-4,0 -0.098,0.1615 m -3e-4,0 -0.09,0.1662 m -6e-4,0 -0.081,0.17049 m -7e-4,0 -0.072,0.17435 m -5e-4,0 -0.064,0.17777 m 4e-4,0 -0.055,0.18075 m 0,0 -0.046,0.18328 m -0.001,0 -0.036,0.18535 m 0,0 -0.028,0.18695 m 0,0 -0.018,0.18809 m 0,0 -0.011,0.18875 m 7e-4,-2e-5 -7e-4,0.0786 M 125.25803,819.62107 H 11.872233"
       inkscape:connector-curvature="0" />
  </g>
  <g
     inkscape:groupmode="layer"
     id="layer5"
     inkscape:label="Cuts"
     style="display:inline">
    <rect
       style="fill:none;fill-opacity:1;stroke:#000000;stroke-width:1.06826532;stroke-linecap:square;stroke-linejoin:miter;stroke-miterlimit:4;stroke-dasharray:none;paint-order:normal"
       id="rect2209"
       width="80.366493"
       height="20"
       x="30.267"
       y="56.598427"
       rx="12.891489" />
    <rect
       style="display:inline;fill:none;fill-opacity:1;stroke:#000000;stroke-width:1.06826532;stroke-linecap:square;stroke-linejoin:miter;stroke-miterlimit:4;stroke-dasharray:none;paint-order:normal"
       id="rect2209-3"
       width="80.366493"
       height="20"
       x="29.950249"
       y="113.84843"
       rx="12.891489" />
    <rect
       style="display:inline;fill:none;fill-opacity:1;stroke:#000000;stroke-width:1.06826532;stroke-linecap:square;stroke-linejoin:miter;stroke-miterlimit:4;stroke-dasharray:none;paint-order:normal"
       id="rect2209-6"
       width="80.366493"
       height="20"
       x="29.633505"
       y="171.09842"
       rx="12.891489" />
    <rect
       style="display:inline;fill:none;fill-opacity:1;stroke:#000000;stroke-width:1.06826532;stroke-linecap:square;stroke-linejoin:miter;stroke-miterlimit:4;stroke-dasharray:none;paint-order:normal"
       id="rect2209-7"
       width="80.366493"
       height="20"
       x="29.316751"
       y="285.59842"
       rx="12.891489" />
    <rect
       style="display:inline;fill:none;fill-opacity:1;stroke:#000000;stroke-width:1.06826532;stroke-linecap:square;stroke-linejoin:miter;stroke-miterlimit:4;stroke-dasharray:none;paint-order:normal"
       id="rect2209-5"
       width="80.366493"
       height="20"
       x="29"
       y="228.34842"
       rx="12.891489" />
  </g>
</svg>
