<?xml version="1.0" encoding="UTF-8" standalone="no"?>
<svg
   xmlns:dc="http://purl.org/dc/elements/1.1/"
   xmlns:cc="http://creativecommons.org/ns#"
   xmlns:rdf="http://www.w3.org/1999/02/22-rdf-syntax-ns#"
   xmlns:svg="http://www.w3.org/2000/svg"
   xmlns="http://www.w3.org/2000/svg"
   xmlns:sodipodi="http://sodipodi.sourceforge.net/DTD/sodipodi-0.dtd"
   xmlns:inkscape="http://www.inkscape.org/namespaces/inkscape"
   width="44mm"
   height="62mm"
   id="svg2"
   version="1.1"
   inkscape:version="0.92.2 5c3e80d, 2017-08-06"
   sodipodi:docname="LUHC-01_Side_Solid.svg">
  <metadata
     id="metadata1104">
    <rdf:RDF>
      <cc:Work
         rdf:about="">
        <dc:format>image/svg+xml</dc:format>
        <dc:type
           rdf:resource="http://purl.org/dc/dcmitype/StillImage" />
        <dc:title></dc:title>
      </cc:Work>
    </rdf:RDF>
  </metadata>
  <sodipodi:namedview
     pagecolor="#ffffff"
     bordercolor="#666666"
     borderopacity="1"
     objecttolerance="10"
     gridtolerance="10"
     guidetolerance="10"
     inkscape:pageopacity="0"
     inkscape:pageshadow="2"
     inkscape:window-width="1600"
     inkscape:window-height="849"
     id="namedview1102"
     showgrid="true"
     inkscape:zoom="1.7940591"
     inkscape:cx="191.72984"
     inkscape:cy="133.78282"
     inkscape:window-x="0"
     inkscape:window-y="0"
     inkscape:window-maximized="1"
     inkscape:current-layer="g20"
     units="mm"
     inkscape:document-units="mm">
    <inkscape:grid
       type="xygrid"
       id="grid37917"
       units="mm" />
  </sodipodi:namedview>
  <desc
     id="desc4">G:\GPIO_CASE_VER1.1\hacker case mini filled side.dxf - scale = 1.000000, origin = (0.000000, 0.000000), auto = False</desc>
  <defs
     id="defs6">
    <marker
       refY="0"
       refX="0"
       style="overflow:visible"
       id="DistanceX"
       orient="auto">
      <path
         style="stroke:#000000;stroke-width:0.53333336"
         d="M 3.2,-3.2 -3.2,3.2 M 0,-5.3333333 V 5.3333333"
         id="path9"
         inkscape:connector-curvature="0" />
    </marker>
    <pattern
       height="8"
       width="8"
       patternUnits="userSpaceOnUse"
       y="0"
       x="0"
       id="Hatch">
      <path
         linecap="square"
         stroke="#000000"
         stroke-width="0.25"
         d="M8 4 l-4,4"
         id="path12" />
      <path
         linecap="square"
         stroke="#000000"
         stroke-width="0.25"
         d="M6 2 l-4,4"
         id="path14" />
      <path
         linecap="square"
         stroke="#000000"
         stroke-width="0.25"
         d="M4 0 l-4,4"
         id="path16" />
    </pattern>
    <symbol
       id="*MODEL_SPACE" />
    <symbol
       id="*PAPER_SPACE" />
  </defs>
  <g
     inkscape:label="0"
     inkscape:groupmode="layer"
     id="g20"
     transform="translate(0,-888.18894)">
    <path
       id="path1100"
       style="fill:none;stroke:#000000;stroke-width:1.06666672"
       d="m 0.53783336,936.70945 -7e-4,0.0786 m 0.011,-0.26735 -0.011,0.18876 m 0.027,-0.37685 -0.018,0.18809 m 0.046,-0.37505 -0.028,0.18696 m 0.064,-0.3723 -0.036,0.18534 m 0.083,-0.36861 -0.046,0.18327 m 0.1014,-0.36402 -0.055,0.18075 m 0.1191,-0.35853 -0.064,0.17778 m 0.137,-0.35213 -0.072,0.17435 m 0.1543,-0.34483 -0.081,0.17048 m 0.17130004,-0.33669 -0.09,0.16621 m 0.18800004,-0.32772 -0.098,0.16151 m 0.2041,-0.3179 -0.1056,0.15639 m 0.2198,-0.3073 -0.1138,0.15091 m 0.2349,-0.29594 -0.1211,0.14503 m 0.2493,-0.28383 -0.1282,0.1388 m 0.2632,-0.27102 -0.135,0.13222 m 0.2764,-0.25752 -0.1414,0.1253 m 0.2889,-0.24338 -0.1475,0.11808 m 0.3008,-0.22864 -0.1533,0.11056 m 0.3118,-0.21332 -0.1585,0.10272 m 0.322,-0.19747 -0.1635,0.0947 m 0.3316,-0.18112 -0.1681,0.0864 m 0.3403,-0.16432 -0.1722,0.0779 m 0.348,-0.14712 -0.1758,0.0692 m 0.3549,-0.12955 -0.1791,0.0604 m 0.361,-0.11163 -0.1819,0.0513 m 0.366,-0.0934 -0.1841,0.0421 m 0.3702,-0.0751 -0.1861,0.0329 m 0.3735,-0.0564 -0.1874,0.0236 m 0.3759,-0.0378 -0.1885,0.0142 m 0.3774,-0.0189 -0.1889,0.004 m 128.6927966,-0.004 H 4.3191334 m 128.5824966,8.2e-4 -0.079,-8.2e-4 m 0.2674,0.01 -0.1888,-0.009 m 0.3768,0.0267 -0.188,-0.018 m 0.375,0.0455 -0.187,-0.0274 m 0.3723,0.0642 -0.1853,-0.0368 m 0.3687,0.0828 -0.1834,-0.046 m 0.3641,0.10102 -0.1807,-0.055 m 0.3585,0.11912 -0.1778,-0.064 m 0.3521,0.13691 -0.1743,-0.0729 m 0.3448,0.15433 -0.1705,-0.0815 m 0.3367,0.17136 -0.1662,-0.0899 m 0.3277,0.18797 -0.1615,-0.0981 m 0.3179,0.20413 -0.1564,-0.10603 m 0.3073,0.21976 -0.1509,-0.11372 m 0.2959,0.23484 -0.145,-0.12112 m 0.2838,0.24934 -0.1388,-0.12822 m 0.271,0.26321 -0.1322,-0.13499 m 0.2575,0.27643 -0.1253,-0.14144 m 0.2434,0.28896 -0.1181,-0.14752 m 0.2286,0.30076 -0.1105,-0.15324 m 0.2134,0.31181 -0.1024,-0.15857 m 0.1975,0.32208 -0.095,-0.16351 m 0.1811,0.33154 -0.086,-0.16803 m 0.1643,0.34018 -0.078,-0.17215 m 0.1471,0.34798 -0.069,-0.17583 m 0.1296,0.35489 -0.061,-0.17906 m 0.1117,0.36091 -0.051,-0.18185 m 0.094,0.36605 -0.042,-0.1842 m 0.075,0.37026 -0.033,-0.18606 m 0.056,0.37355 -0.023,-0.18749 m 0.037,0.37592 -0.014,-0.18843 m 0.019,0.37733 v -0.1889 m 0,11.52748 V 936.7883 m -7e-4,11.41717 7e-4,-0.0786 m -0.011,0.26734 0.011,-0.18875 m -0.027,0.37685 0.018,-0.1881 m -0.046,0.37506 0.028,-0.18696 m -0.064,0.3723 0.036,-0.18534 m -0.083,0.36861 0.046,-0.18327 m -0.1013,0.36402 0.055,-0.18075 m -0.1191,0.35853 0.064,-0.17778 m -0.137,0.35213 0.073,-0.17435 m -0.1544,0.34483 0.081,-0.17048 m -0.1713,0.33669 0.09,-0.16621 m -0.188,0.32772 0.098,-0.16151 m -0.2042,0.3179 0.1056,-0.15639 m -0.2197,0.3073 0.1137,-0.15091 m -0.2349,0.29594 0.1212,-0.14503 m -0.2494,0.28383 0.1282,-0.1388 m -0.2632,0.27102 0.135,-0.13222 m -0.2764,0.25752 0.1414,-0.1253 m -0.2889,0.24338 0.1475,-0.11808 m -0.3008,0.22864 0.1533,-0.11056 m -0.3118,0.21332 0.1585,-0.10272 m -0.322,0.19747 0.1635,-0.0947 m -0.3316,0.18112 0.1681,-0.0864 m -0.3402,0.16432 0.1721,-0.0779 m -0.348,0.14713 0.1759,-0.0692 m -0.355,0.12955 0.1791,-0.0604 m -0.3608,0.11163 0.1817,-0.0513 m -0.3659,0.0934 0.1842,-0.0421 m -0.3704,0.0751 0.1862,-0.0329 m -0.3736,0.0564 0.1874,-0.0236 m -0.3759,0.0378 0.1885,-0.0142 m -0.3774,0.0189 0.1889,-0.004 m -7.7479,0.004 h 7.559 m -7.559,37.79528 v -37.79528 m 7.559,37.79528 h -7.559 m 7.6376,8.1e-4 -0.079,-8.1e-4 m 0.2674,0.01 -0.1888,-0.009 m 0.3769,0.0268 -0.1881,-0.0181 m 0.3751,0.0456 -0.187,-0.0274 m 0.3722,0.0642 -0.1852,-0.0368 m 0.3686,0.0828 -0.1834,-0.046 m 0.3641,0.10101 -0.1807,-0.055 m 0.3585,0.11914 -0.1778,-0.064 m 0.3521,0.13689 -0.1743,-0.0729 m 0.3449,0.15433 -0.1706,-0.0815 m 0.3367,0.17137 -0.1661,-0.0899 m 0.3276,0.18798 -0.1615,-0.0981 m 0.3179,0.20412 -0.1564,-0.10603 m 0.3073,0.21975 -0.1509,-0.11372 m 0.2959,0.23484 -0.145,-0.12112 m 0.2839,0.24934 -0.1389,-0.12822 m 0.271,0.26321 -0.1321,-0.13499 m 0.2575,0.27642 -0.1254,-0.14143 m 0.2435,0.28896 -0.1181,-0.14753 m 0.2286,0.30077 -0.1105,-0.15324 m 0.2133,0.31181 -0.1024,-0.15857 m 0.1975,0.32207 -0.095,-0.1635 m 0.1811,0.33154 -0.086,-0.16804 m 0.1643,0.34019 -0.078,-0.17215 m 0.1471,0.34797 -0.069,-0.17582 m 0.1296,0.35489 -0.061,-0.17907 m 0.1117,0.36093 -0.051,-0.18186 m 0.094,0.36605 -0.042,-0.18419 m 0.075,0.37026 -0.033,-0.18607 m 0.057,0.37356 -0.024,-0.18749 m 0.037,0.37592 -0.014,-0.18843 m 0.019,0.37732 v -0.18889 m 0,11.52743 v -11.33854 m -8e-4,11.41714 8e-4,-0.079 m -0.011,0.2674 0.011,-0.1888 m -0.027,0.3769 0.018,-0.1881 m -0.046,0.375 0.028,-0.1869 m -0.064,0.3723 0.036,-0.1854 m -0.083,0.3687 0.046,-0.1833 m -0.1013,0.364 0.055,-0.1807 m -0.1192,0.3585 0.064,-0.1778 m -0.1369,0.3521 0.072,-0.1743 m -0.1544,0.3448 0.081,-0.1705 m -0.1713,0.3367 0.09,-0.1662 m -0.1879,0.3277 0.098,-0.1615 m -0.2042,0.3179 0.1056,-0.1564 m -0.2197,0.3073 0.1137,-0.1509 m -0.2349,0.296 0.1212,-0.1451 m -0.2494,0.2839 0.1282,-0.1388 m -0.2631,0.271 0.1349,-0.1322 m -0.2764,0.2575 0.1415,-0.1253 m -0.289,0.2434 0.1475,-0.1181 m -0.3008,0.2286 0.1533,-0.1105 m -0.3118,0.2133 0.1585,-0.1027 m -0.322,0.1974 0.1635,-0.095 m -0.3316,0.1811 0.1681,-0.086 m -0.3402,0.1644 0.1721,-0.078 m -0.3479,0.1471 0.1758,-0.069 m -0.3549,0.1295 0.1791,-0.06 m -0.3609,0.1117 0.1818,-0.051 m -0.366,0.093 0.1842,-0.042 m -0.3703,0.075 0.1861,-0.033 m -0.3736,0.056 0.1875,-0.024 m -0.3759,0.038 0.1884,-0.014 m -0.3773,0.019 h 0.1889 m -7.748,0 h 7.5591 m -7.5591,37.7953 v -37.7953 m 7.5591,37.7953 h -7.5591 m 7.6377,8e-4 -0.079,-8e-4 m 0.2674,0.01 -0.1888,-0.01 m 0.3769,0.027 -0.1881,-0.018 m 0.3751,0.045 -0.187,-0.027 m 0.3723,0.064 -0.1853,-0.037 m 0.3686,0.083 -0.1833,-0.046 m 0.364,0.101 -0.1807,-0.055 m 0.3585,0.1191 -0.1778,-0.064 m 0.3521,0.1369 -0.1743,-0.073 m 0.3449,0.1543 -0.1706,-0.082 m 0.3368,0.1714 -0.1662,-0.09 m 0.3277,0.188 -0.1615,-0.098 m 0.3178,0.2041 -0.1563,-0.106 m 0.3073,0.2197 -0.151,-0.1137 m 0.2959,0.2349 -0.1449,-0.1212 m 0.2838,0.2494 -0.1389,-0.1282 m 0.2711,0.2632 -0.1322,-0.135 m 0.2575,0.2764 -0.1253,-0.1414 m 0.2434,0.2889 -0.1181,-0.1475 m 0.2286,0.3008 -0.1105,-0.1533 m 0.2133,0.3118 -0.1024,-0.1585 m 0.1976,0.322 -0.095,-0.1635 m 0.1812,0.3316 -0.086,-0.1681 m 0.1642,0.3402 -0.078,-0.1721 m 0.147,0.3479 -0.069,-0.1758 m 0.1296,0.3549 -0.061,-0.1791 m 0.1117,0.361 -0.051,-0.1819 m 0.094,0.3661 -0.042,-0.1842 m 0.075,0.3702 -0.033,-0.186 m 0.057,0.3735 -0.024,-0.1875 m 0.037,0.3759 -0.014,-0.1884 m 0.019,0.3773 v -0.1889 m 0,11.5275 v -11.3386 m -8e-4,11.4172 8e-4,-0.079 m -0.011,0.2674 0.011,-0.1888 m -0.027,0.3769 0.018,-0.1881 m -0.046,0.375 0.028,-0.1869 m -0.064,0.3723 0.036,-0.1854 m -0.083,0.3686 0.046,-0.1832 m -0.1014,0.364 0.055,-0.1808 m -0.1192,0.3586 0.064,-0.1778 m -0.1369,0.3521 0.072,-0.1743 m -0.1543,0.3448 0.081,-0.1705 m -0.1713,0.3367 0.09,-0.1662 m -0.1879,0.3277 0.098,-0.1615 m -0.2041,0.3179 0.1056,-0.1564 m -0.2198,0.3073 0.1137,-0.1509 m -0.2348,0.2959 0.1211,-0.145 m -0.2494,0.2838 0.1283,-0.1388 m -0.2632,0.2711 0.1349,-0.1323 m -0.2763,0.2576 0.1414,-0.1253 m -0.289,0.2433 0.1476,-0.118 m -0.3008,0.2286 0.1532,-0.1106 m -0.3117,0.2134 0.1585,-0.1028 m -0.3221,0.1975 0.1636,-0.095 m -0.3317,0.1811 0.1681,-0.086 m -0.3401,0.1644 0.172,-0.078 m -0.3479,0.1471 0.1759,-0.069 m -0.355,0.1295 0.1791,-0.06 m -0.3609,0.1117 0.1818,-0.051 m -0.366,0.093 0.1842,-0.042 m -0.3703,0.075 0.1861,-0.033 m -0.3735,0.056 0.1874,-0.024 m -0.3759,0.038 0.1885,-0.014 m -0.3774,0.019 h 0.1889 m -7.748,0 h 7.5591 m -7.5591,37.7952 v -37.7952 m 7.5591,37.7952 h -7.5591 m 7.6377,8e-4 -0.079,-8e-4 m 0.2674,0.01 -0.1888,-0.01 m 0.3768,0.027 -0.188,-0.018 m 0.375,0.045 -0.187,-0.027 m 0.3723,0.064 -0.1853,-0.037 m 0.3687,0.083 -0.1834,-0.046 m 0.3641,0.101 -0.1807,-0.055 m 0.3585,0.1192 -0.1778,-0.064 m 0.3521,0.1369 -0.1743,-0.073 m 0.3448,0.1543 -0.1705,-0.082 m 0.3367,0.1714 -0.1662,-0.09 m 0.3277,0.1879 -0.1615,-0.098 m 0.3179,0.2042 -0.1564,-0.1061 m 0.3073,0.2198 -0.1509,-0.1137 m 0.2959,0.2348 -0.145,-0.1211 m 0.2838,0.2493 -0.1388,-0.1282 m 0.271,0.2632 -0.1322,-0.135 m 0.2575,0.2765 -0.1253,-0.1415 m 0.2434,0.289 -0.1181,-0.1475 m 0.2286,0.3007 -0.1105,-0.1532 m 0.2134,0.3118 -0.1024,-0.1586 m 0.1975,0.3221 -0.095,-0.1635 m 0.1811,0.3315 -0.086,-0.168 m 0.1643,0.3402 -0.078,-0.1722 m 0.1471,0.348 -0.069,-0.1758 m 0.1296,0.3549 -0.061,-0.1791 m 0.1117,0.3609 -0.051,-0.1818 m 0.094,0.366 -0.042,-0.1842 m 0.075,0.3703 -0.033,-0.1861 m 0.056,0.3736 -0.023,-0.1875 m 0.037,0.3759 -0.014,-0.1884 m 0.019,0.3773 v -0.1889 m 0,11.5275 v -11.3386 m -7e-4,11.4172 7e-4,-0.079 m -0.011,0.2673 0.011,-0.1887 m -0.027,0.3768 0.018,-0.1881 m -0.046,0.3751 0.028,-0.187 m -0.064,0.3723 0.036,-0.1853 m -0.083,0.3686 0.046,-0.1833 m -0.1013,0.364 0.055,-0.1807 m -0.1191,0.3585 0.064,-0.1778 m -0.137,0.3522 0.073,-0.1744 m -0.1544,0.3449 0.081,-0.1705 m -0.1713,0.3367 0.09,-0.1662 m -0.188,0.3277 0.098,-0.1615 m -0.2042,0.3179 0.1056,-0.1564 m -0.2197,0.3073 0.1137,-0.1509 m -0.2349,0.2959 0.1212,-0.145 m -0.2494,0.2838 0.1282,-0.1388 m -0.2632,0.271 0.135,-0.1322 m -0.2764,0.2575 0.1414,-0.1253 m -0.2889,0.2434 0.1475,-0.1181 m -0.3008,0.2287 0.1533,-0.1106 m -0.3118,0.2133 0.1585,-0.1027 m -0.322,0.1975 0.1635,-0.095 m -0.3316,0.1811 0.1681,-0.086 m -0.3402,0.1643 0.1721,-0.078 m -0.348,0.1471 0.1759,-0.069 m -0.355,0.1296 0.1791,-0.06 m -0.3608,0.1116 0.1817,-0.051 m -0.3659,0.093 0.1842,-0.042 m -0.3704,0.075 0.1862,-0.033 m -0.3736,0.056 0.1874,-0.024 m -0.3759,0.038 0.1885,-0.014 m -0.3774,0.019 h 0.1889 m -128.6927966,0 H 132.81583 m -128.5824966,-8e-4 0.079,8e-4 m -0.2674,-0.01 0.1888,0.01 m -0.3768,-0.027 0.188,0.018 m -0.375,-0.045 0.187,0.027 m -0.3723,-0.064 0.1853,0.037 m -0.3685,-0.083 0.1832,0.046 m -0.364,-0.101 0.1808,0.055 m -0.3587,-0.1191 0.1779,0.064 m -0.3521,-0.1369 0.1742,0.073 m -0.3447,-0.1544 0.1705,0.082 m -0.3368,-0.1713 0.1663,0.09 m -0.3278,-0.188 0.1615,0.098 m -0.3179,-0.2041 0.1564,0.106 m -0.3073,-0.2198 0.1509,0.1138 m -0.2959,-0.2349 0.145,0.1211 m -0.2838,-0.2493 0.1388,0.1282 m -0.271,-0.2632 0.1322,0.135 m -0.2575,-0.2764 0.1253,0.1414 m -0.2434,-0.2889 0.1181,0.1475 m -0.2286,-0.3008 0.1105,0.1533 m -0.2133,-0.3119 0.1024,0.1586 m -0.19760004,-0.3221 0.095,0.1635 m -0.18110004,-0.3315 0.086,0.168 m -0.1642,-0.3401 0.078,0.1721 m -0.1471,-0.348 0.069,0.1759 m -0.1296,-0.3549 0.061,0.179 m -0.1117,-0.3609 0.051,0.1819 m -0.094,-0.3661 0.043,0.1842 m -0.075,-0.3703 0.033,0.1861 m -0.056,-0.3735 0.023,0.1874 m -0.037,-0.3759 0.014,0.1885 m -0.019,-0.3774 v 0.1889 m 0,-11.5274 v 11.3385 m 7e-4,-11.4171 -7e-4,0.079 m 0.011,-0.2674 -0.011,0.1888 m 0.027,-0.3769 -0.018,0.1881 m 0.046,-0.375 -0.028,0.1869 m 0.064,-0.3723 -0.036,0.1854 m 0.083,-0.3687 -0.046,0.1833 m 0.1013,-0.364 -0.055,0.1807 m 0.1191,-0.3585 -0.064,0.1778 m 0.137,-0.3521 -0.073,0.1743 m 0.1544,-0.3448 -0.081,0.1705 m 0.17130004,-0.3367 -0.09,0.1662 m 0.18800004,-0.3277 -0.098,0.1615 m 0.2042,-0.3179 -0.1056,0.1564 m 0.2197,-0.3073 -0.1137,0.1509 m 0.2349,-0.296 -0.1212,0.1451 m 0.2494,-0.2839 -0.1282,0.1388 m 0.2631,-0.271 -0.1349,0.1322 m 0.2764,-0.2575 -0.1415,0.1253 m 0.289,-0.2434 -0.1475,0.1181 m 0.3008,-0.2286 -0.1533,0.1105 m 0.3118,-0.2133 -0.1585,0.1027 m 0.322,-0.1974 -0.1635,0.095 m 0.3316,-0.1812 -0.1681,0.086 m 0.3403,-0.1643 -0.1722,0.078 m 0.348,-0.1471 -0.1758,0.069 m 0.3549,-0.1296 -0.1791,0.06 m 0.3609,-0.1116 -0.1818,0.051 m 0.3659,-0.093 -0.1841,0.042 m 0.3703,-0.075 -0.1862,0.033 m 0.3736,-0.056 -0.1874,0.024 m 0.3759,-0.038 -0.1885,0.014 m 0.3774,-0.019 h -0.1889 m 7.7478996,0 H 4.3144334 m 7.5589996,-37.7953 v 37.7953 m -7.5589996,-37.7953 h 7.5589996 m -7.6376996,-8e-4 0.079,8e-4 m -0.2674,-0.01 0.1888,0.01 m -0.3769,-0.027 0.1881,0.018 m -0.3751,-0.045 0.187,0.027 m -0.3723,-0.064 0.1853,0.037 m -0.3685,-0.083 0.1832,0.046 m -0.364,-0.101 0.1808,0.055 m -0.3586,-0.1191 0.1778,0.064 m -0.3521,-0.1369 0.1743,0.073 m -0.3448,-0.1543 0.1705,0.082 m -0.3368,-0.1714 0.1663,0.09 m -0.3278,-0.188 0.1615,0.098 m -0.3178,-0.2041 0.1563,0.106 m -0.3073,-0.2197 0.151,0.1137 m -0.2959,-0.2348 0.1449,0.1211 m -0.2838,-0.2494 0.1389,0.1283 m -0.2711,-0.2632 0.1322,0.1349 m -0.2575,-0.2764 0.1253,0.1415 m -0.2434,-0.289 0.1181,0.1475 m -0.2286,-0.3007 0.1105,0.1532 m -0.2133,-0.3118 0.1024,0.1586 m -0.19760004,-0.3221 0.095,0.1635 m -0.18110004,-0.3316 0.086,0.1681 m -0.1643,-0.3402 0.078,0.1721 m -0.1471,-0.3479 0.069,0.1758 m -0.1296,-0.3549 0.061,0.1791 m -0.1117,-0.361 0.051,0.1819 m -0.094,-0.366 0.043,0.1841 m -0.075,-0.3702 0.033,0.1861 m -0.056,-0.3736 0.024,0.1875 m -0.037,-0.3759 0.014,0.1884 m -0.019,-0.3773 v 0.1889 m 0,-11.5275 v 11.3386 m 7e-4,-11.4172 -7e-4,0.079 m 0.011,-0.2673 -0.011,0.1887 m 0.027,-0.3768 -0.018,0.1881 m 0.046,-0.3751 -0.028,0.187 m 0.064,-0.3723 -0.036,0.1853 m 0.083,-0.3686 -0.046,0.1833 m 0.1014,-0.3641 -0.055,0.1808 m 0.1191,-0.3585 -0.064,0.1777 m 0.137,-0.3521 -0.072,0.1744 m 0.1543,-0.3449 -0.081,0.1705 m 0.17130004,-0.3367 -0.09,0.1662 m 0.18800004,-0.3277 -0.098,0.1615 m 0.2041,-0.3179 -0.1056,0.1564 m 0.2198,-0.3073 -0.1138,0.1509 m 0.2349,-0.2959 -0.1211,0.145 m 0.2493,-0.2838 -0.1282,0.1388 m 0.2632,-0.271 -0.135,0.1322 m 0.2764,-0.2575 -0.1414,0.1253 m 0.2889,-0.2434 -0.1475,0.1181 m 0.3008,-0.2287 -0.1533,0.1106 m 0.3118,-0.2133 -0.1585,0.1027 m 0.322,-0.1975 -0.1635,0.095 m 0.3316,-0.1811 -0.1681,0.086 m 0.3403,-0.1643 -0.1722,0.078 m 0.348,-0.1472 -0.1758,0.069 m 0.3549,-0.1295 -0.1791,0.06 m 0.361,-0.1117 -0.1819,0.051 m 0.366,-0.093 -0.1841,0.042 m 0.3702,-0.075 -0.1861,0.033 m 0.3735,-0.056 -0.1874,0.024 m 0.3759,-0.038 -0.1885,0.014 m 0.3774,-0.019 h -0.1889 m 7.7478996,0 H 4.3185334 m 7.5589996,-37.7952 v 37.7952 m -7.5589996,-37.7952 h 7.5589996 m -7.6375996,-8e-4 0.079,8e-4 m -0.2674,-0.01 0.1888,0.01 m -0.3769,-0.027 0.1881,0.018 m -0.375,-0.046 0.1869,0.027 m -0.3722,-0.064 0.1853,0.037 m -0.3686,-0.083 0.1833,0.046 m -0.3641,-0.1011 0.1808,0.055 m -0.3586,-0.1191 0.1778,0.064 m -0.3521,-0.1369 0.1743,0.073 m -0.3447,-0.1543 0.1704,0.082 m -0.3367,-0.1714 0.1663,0.09 m -0.3278,-0.1879 0.1615,0.098 m -0.3179,-0.2042 0.1564,0.1061 m -0.3073,-0.2198 0.1509,0.1137 m -0.2959,-0.2348 0.145,0.1211 m -0.2839,-0.2493 0.1389,0.1282 m -0.271,-0.2632 0.1321,0.135 m -0.2575,-0.2765 0.1254,0.1415 m -0.2434,-0.289 0.118,0.1475 m -0.2285,-0.3007 0.1105,0.1532 m -0.2134,-0.3118 0.1024,0.1586 m -0.1975,-0.3221 0.095,0.1635 m -0.18110004,-0.3315 0.086,0.168 m -0.16430004,-0.3402 0.078,0.1722 m -0.1471,-0.348 0.069,0.1758 m -0.1296,-0.3549 0.061,0.1791 m -0.1116,-0.3609 0.051,0.1818 m -0.094,-0.366 0.043,0.1842 m -0.075,-0.3703 0.033,0.1861 m -0.057,-0.3736 0.024,0.1875 m -0.037,-0.3759 0.014,0.1884 m -0.019,-0.3773 v 0.1889 m 0,-11.52748 V 1004.82 m 8e-4,-11.41718 -8e-4,0.0786 m 0.011,-0.26736 -0.011,0.18876 m 0.027,-0.37684 -0.018,0.18808 m 0.046,-0.37504 -0.028,0.18696 m 0.064,-0.3723 -0.036,0.18534 m 0.083,-0.36862 -0.046,0.18328 m 0.1013,-0.36403 -0.055,0.18075 m 0.1192,-0.35852 -0.064,0.17777 m 0.1369,-0.35212 -0.072,0.17435 m 0.1543,-0.34483 -0.081,0.17048 m 0.17130004,-0.33669 -0.09,0.16621 m 0.18790004,-0.32772 -0.098,0.16151 m 0.2042,-0.31791 -0.1056,0.1564 m 0.2197,-0.3073 -0.1137,0.1509 m 0.2349,-0.29594 -0.1212,0.14504 m 0.2494,-0.28383 -0.1282,0.13879 m 0.2631,-0.27101 -0.1349,0.13222 m 0.2763,-0.25752 -0.1414,0.1253 m 0.289,-0.24338 -0.1476,0.11808 m 0.3008,-0.22864 -0.1532,0.11056 m 0.3118,-0.21332 -0.1586,0.10272 m 0.3221,-0.19747 -0.1635,0.0947 m 0.3316,-0.18112 -0.1681,0.0864 m 0.3402,-0.16433 -0.1721,0.0779 m 0.3479,-0.14712 -0.1758,0.0692 m 0.3549,-0.12954 -0.1791,0.0604 m 0.361,-0.11164 -0.1819,0.0513 m 0.366,-0.0934 -0.1841,0.0421 m 0.3702,-0.0751 -0.1861,0.0329 m 0.3735,-0.0564 -0.1874,0.0236 m 0.3759,-0.0378 -0.1885,0.0142 m 0.3774,-0.0189 -0.1889,0.004 m 7.7479996,-0.004 H 4.3217334 M 11.880833,951.9066 v 37.79528 M 4.3217334,951.9066 h 7.5590996 m -7.6376996,-8.2e-4 0.079,8.2e-4 m -0.2674,-0.01 0.1888,0.009 m -0.3768,-0.0268 0.188,0.018 m -0.375,-0.0455 0.187,0.0274 m -0.3723,-0.0642 0.1853,0.0368 m -0.3685,-0.0828 0.1832,0.046 m -0.364,-0.10101 0.1808,0.055 m -0.3587,-0.11912 0.1779,0.0641 m -0.3521,-0.1369 0.1742,0.0728 m -0.3447,-0.15433 0.1705,0.0815 m -0.3368,-0.17136 0.1663,0.0899 m -0.3278,-0.18798 0.1615,0.0981 m -0.3179,-0.20413 0.1564,0.10603 m -0.3073,-0.21975 0.1509,0.11371 m -0.2959,-0.23483 0.145,0.12112 m -0.2838,-0.24935 0.1388,0.12823 m -0.271,-0.26322 0.1322,0.13499 m -0.2575,-0.27643 0.1253,0.14144 m -0.2434,-0.28896 0.1181,0.14752 m -0.2286,-0.30075 0.1105,0.15323 m -0.2133,-0.3118 0.1024,0.15857 m -0.1976,-0.32208 0.095,0.16351 m -0.18110004,-0.33154 0.086,0.16803 m -0.16420004,-0.34018 0.078,0.17215 m -0.1471,-0.34798 0.069,0.17583 m -0.1296,-0.35489 0.061,0.17906 m -0.1117,-0.36092 0.051,0.18186 m -0.094,-0.36605 0.043,0.18419 m -0.075,-0.37026 0.033,0.18607 m -0.056,-0.37356 0.023,0.18749 m -0.037,-0.37592 0.014,0.18843 m -0.019,-0.37732 v 0.18889 m 0,-11.52747 v 11.33858"
       inkscape:connector-curvature="0" />
  </g>
</svg>
